<svg width="299" height="133" viewBox="0 0 299 133" fill="none" xmlns="http://www.w3.org/2000/svg">
<path d="M92.4886 79.0834L89.1044 78.6508V36.8982L81.8531 40.2002C80.8871 40.6531 79.7313 40.2137 79.275 39.2235L71.7172 22.6428C71.2709 21.6593 71.6906 20.4832 72.6532 20.0168C72.7365 19.9762 81.067 15.9307 88.5748 9.51273C95.2299 3.82473 108.264 3.21301 113.556 3.21301C114.552 3.21301 115.215 3.23329 115.465 3.24343L115.542 3.24681V3.25019C115.955 3.21977 116.937 3.21301 117.4 3.21301C122.696 3.21301 135.73 3.82811 142.385 9.51273C149.743 15.8057 157.96 19.8478 158.307 20.0168C159.266 20.4798 159.686 21.6559 159.243 22.6394L151.682 39.2201C151.232 40.2103 150.073 40.6463 149.1 40.1968L141.856 36.8949V75.2981H140.856V35.3335L149.51 39.2775C149.986 39.4972 150.553 39.2843 150.772 38.801L158.33 22.2203C158.547 21.7404 158.343 21.1625 157.871 20.936C157.517 20.7637 149.19 16.6641 141.736 10.2934C135.334 4.82174 122.583 4.2303 117.397 4.2303C116.454 4.2303 115.818 4.25057 115.625 4.25733L115.608 4.26409L115.435 4.26071C115.189 4.25395 114.536 4.23368 113.556 4.23368C108.37 4.23368 95.6196 4.82512 89.2177 10.2968C81.6832 16.7351 73.1662 20.9022 73.0829 20.9428C72.6132 21.1692 72.41 21.7472 72.6266 22.2271L80.1843 38.8044C80.4075 39.2877 80.9704 39.504 81.4401 39.2843L90.1037 35.3402V77.7619L92.6119 78.083L92.4886 79.0834Z" fill="black"/>
<path d="M115.478 16.4816C108.54 16.4816 103.104 12.9262 103.104 8.38395C103.104 6.91717 103.68 5.52474 104.82 4.24722C105.143 3.87884 105.589 3.64902 106.075 3.60171C110.395 3.15559 114.089 3.2029 115.478 3.24346H115.542V3.25022C116.368 3.2029 120.381 3.13869 124.891 3.60171C125.371 3.64902 125.814 3.87884 126.144 4.24384C127.283 5.52474 127.859 6.91717 127.859 8.38057C127.859 10.6179 126.554 12.6863 124.185 14.2004C121.884 15.6739 118.793 16.4816 115.478 16.4816ZM113.676 4.2337C111.868 4.2337 109.173 4.30468 106.169 4.61223C105.935 4.63589 105.712 4.75079 105.559 4.92654C104.59 6.01479 104.1 7.1774 104.1 8.38395C104.1 12.3551 109.096 15.4677 115.475 15.4677C118.603 15.4677 121.507 14.7141 123.646 13.3453C125.714 12.0239 126.853 10.2597 126.853 8.38395C126.853 7.1774 126.364 6.01479 125.398 4.92654C125.238 4.74742 125.018 4.63589 124.788 4.61223C120.082 4.12893 116.078 4.24046 115.608 4.25736L115.592 4.26074L115.445 4.25736C115.042 4.24722 114.439 4.2337 113.676 4.2337Z" fill="black"/>
<path d="M155.209 28.7397C155.039 28.7397 154.873 28.716 154.696 28.6721C150.336 27.452 141.236 20.9191 140.85 20.642C139.97 20.01 139.76 18.7663 140.383 17.874C141.006 16.9919 142.225 16.7756 143.108 17.3975C145.583 19.182 152.668 23.9879 155.722 24.8362C156.225 24.9781 156.648 25.3093 156.905 25.769C157.164 26.232 157.228 26.766 157.091 27.2797C156.861 28.1415 156.088 28.7397 155.209 28.7397ZM141.989 18.0565C141.686 18.0565 141.389 18.1985 141.199 18.4655C140.896 18.9015 141 19.5098 141.429 19.8173C141.523 19.8849 150.769 26.5226 154.953 27.6954C155.469 27.8272 155.995 27.5162 156.128 27.0161C156.198 26.7626 156.165 26.5023 156.038 26.2759C155.912 26.0495 155.705 25.8872 155.459 25.8196C152.265 24.9308 145.047 20.0404 142.535 18.2323C142.369 18.1106 142.179 18.0565 141.989 18.0565Z" fill="black"/>
<path d="M75.9608 28.7399C75.0848 28.7399 74.3087 28.1416 74.0722 27.2832C73.7891 26.2254 74.4019 25.1304 75.4412 24.8397C78.4923 23.988 85.7502 19.0605 88.0519 17.401C88.9446 16.7758 90.167 16.9887 90.7832 17.8742C91.4027 18.763 91.1962 20.0068 90.3169 20.6421C89.3443 21.3417 80.704 27.4894 76.4804 28.6689C76.2972 28.7196 76.1273 28.7399 75.9608 28.7399ZM89.1844 18.0567C88.9912 18.0567 88.7947 18.1141 88.6248 18.2324C86.1233 20.0372 78.9119 24.9208 75.7076 25.8164C75.198 25.9584 74.8982 26.4957 75.0381 27.0128C75.1747 27.513 75.6677 27.8341 76.2239 27.6888C80.3442 26.5363 89.3576 20.0879 89.7406 19.8141C90.1703 19.5032 90.2736 18.8948 89.9671 18.4589C89.7806 18.1986 89.4875 18.0567 89.1844 18.0567Z" fill="black"/>
<path d="M129.618 31.1122C127.823 31.1122 126.364 29.6319 126.364 27.8102C126.364 25.9886 127.823 24.5083 129.618 24.5083C131.413 24.5083 132.872 25.9886 132.872 27.8102C132.869 29.6319 131.41 31.1122 129.618 31.1122ZM129.618 25.3296C128.269 25.3296 127.173 26.4415 127.173 27.8102C127.173 29.179 128.269 30.2909 129.618 30.2909C130.964 30.2909 132.063 29.179 132.063 27.8102C132.06 26.4415 130.964 25.3296 129.618 25.3296Z" fill="black"/>
<path d="M129.631 33.7686C125.931 33.7686 124.698 30.7675 124.565 29.179C124.542 28.9188 124.735 28.689 124.991 28.6653C125.248 28.6417 125.474 28.8377 125.494 29.0979C125.508 29.25 125.871 32.819 129.631 32.819C133.399 32.819 133.835 29.2399 133.852 29.0844C133.882 28.8242 134.108 28.6383 134.364 28.6653C134.621 28.6924 134.804 28.9256 134.778 29.1858C134.774 29.2331 134.248 33.7686 129.631 33.7686Z" fill="black"/>
<path d="M46.5691 61.8606C32.0631 61.8606 16.6478 59.6199 16.6478 55.4662C16.6478 53.4756 20.6015 52.0494 22.3003 51.5289L22.5901 52.4989C19.3458 53.4925 17.647 54.743 17.647 55.4629C17.647 57.663 27.9461 60.8433 46.5691 60.8433C65.192 60.8433 75.4911 57.663 75.4911 55.4629C75.4911 55.0911 75.1347 54.1076 71.8305 52.9754L72.1503 52.0156C75.0714 53.016 76.4904 54.1414 76.4904 55.4629C76.4904 59.6199 61.0751 61.8606 46.5691 61.8606Z" fill="black"/>
<path d="M36.8029 50.5049L36.723 49.4944C37.2626 49.4505 37.6789 49.4099 38.062 49.3727C38.7915 49.3018 39.4243 49.2409 40.5568 49.1936L40.5968 50.2075C39.4909 50.2514 38.9014 50.3089 38.1553 50.3832C37.7689 50.4204 37.3492 50.461 36.8029 50.5049Z" fill="black"/>
<path d="M75.5077 55.3763L67.4315 96.9465L68.4119 97.1426L76.4881 55.5724L75.5077 55.3763Z" fill="black"/>
<path d="M45.5931 112.792C30.5309 112.792 25.398 108.835 25.1881 108.669L25.0349 108.547L16.6577 55.5473L17.6437 55.3884L25.9576 107.976C26.8969 108.601 32.3229 111.778 45.5931 111.778C57.9873 111.778 63.7564 109.622 65.212 108.395L66.4045 102.241L67.3837 102.437L66.128 108.912L66.0181 109.021C65.8682 109.176 62.0643 112.792 45.5931 112.792Z" fill="black"/>
<path d="M45.3999 109.19C30.3343 109.19 24.5353 104.556 24.2955 104.357L24.925 103.569C24.9383 103.579 26.3706 104.732 29.5949 105.871C32.576 106.922 37.7356 108.176 45.3999 108.176C53.7471 108.176 58.9067 106.989 61.7612 105.996C64.849 104.921 65.9815 103.833 65.9914 103.823L66.6909 104.546C66.5044 104.732 61.8711 109.19 45.3999 109.19Z" fill="black"/>
<path d="M25.1449 70.6309C26.3774 70.6309 27.3766 70.0393 27.3766 69.3095C27.3766 68.5797 26.3774 67.988 25.1449 67.988C23.9123 67.988 22.9132 68.5797 22.9132 69.3095C22.9132 70.0393 23.9123 70.6309 25.1449 70.6309Z" fill="black"/>
<path d="M48.3444 102.356C43.458 100.626 39.0812 97.8644 37.0794 96.0292C32.5494 91.8756 26.3306 84.5957 24.6485 69.3635L25.6411 69.252C27.2833 84.1395 33.3388 91.2368 37.7489 95.2789C39.1345 96.5497 43.2015 99.4629 48.6742 101.399L48.3444 102.356Z" fill="black"/>
<path d="M73.9823 98.503L73.2262 97.8372C82.0663 87.4988 73.3594 67.3897 73.2728 67.1903L74.1855 66.778C74.2088 66.8287 76.4804 72.03 77.5929 78.4751C79.0785 87.0797 77.8294 94.0047 73.9823 98.503Z" fill="black"/>
<path d="M50.8626 106.097C49.2271 106.097 47.9447 104.326 47.9447 102.069C47.9447 99.811 49.2271 98.04 50.8626 98.04C52.498 98.04 53.7804 99.811 53.7804 102.069C53.7771 104.326 52.498 106.097 50.8626 106.097ZM50.8626 99.0539C49.8233 99.0539 48.944 100.433 48.944 102.069C48.944 103.701 49.8233 105.083 50.8626 105.083C51.9018 105.083 52.7812 103.704 52.7812 102.069C52.7778 100.433 51.9018 99.0539 50.8626 99.0539Z" fill="black"/>
<path d="M54.0436 99.9563C52.528 99.9563 51.612 99.3074 51.5621 99.2736L52.1416 98.4489C52.1849 98.4793 53.3041 99.2465 55.1461 98.8072C55.8023 98.6517 56.665 98.3982 57.581 98.1346C59.5795 97.5567 62.0643 96.8334 63.8863 96.6577C64.849 96.5631 65.7017 96.6036 66.4511 96.6408C67.7668 96.7016 68.806 96.7489 69.8719 96.1C71.1543 95.3193 72.067 95.4579 72.6066 95.7148C73.3793 96.0798 73.9056 96.9213 74.0922 98.0907L73.1062 98.2529C72.9763 97.4283 72.6499 96.8537 72.1869 96.634C71.604 96.3603 70.8878 96.6644 70.3849 96.972C69.0592 97.7797 67.7701 97.7189 66.4045 97.6547C65.6517 97.6209 64.8723 97.5837 63.9796 97.6682C62.2475 97.8372 59.8093 98.5436 57.8541 99.1113C56.9281 99.3817 56.0521 99.6352 55.3726 99.7974C54.893 99.9089 54.4466 99.9563 54.0436 99.9563Z" fill="black"/>
<path d="M52.6213 105.212L51.9518 104.458C52.0151 104.401 53.504 103.059 56.8915 103.194L57.088 103.201C60.1391 103.322 62.5507 103.414 65.4885 102.224C68.6762 100.93 70.0252 100.511 71.5807 101.227C71.8638 101.359 72.1136 101.339 72.3468 101.17C72.8364 100.811 73.2628 99.7603 73.1062 98.2191L74.0988 98.1144C74.2754 99.8515 73.8257 101.339 72.9264 101.991C72.4001 102.373 71.7739 102.43 71.1643 102.146C70.0218 101.619 68.9493 101.906 65.8549 103.16C62.7206 104.431 60.2157 104.333 57.0447 104.211L56.8482 104.205C53.9137 104.096 52.6313 105.202 52.6213 105.212Z" fill="black"/>
<path d="M298.174 132.073H1.16581C0.889345 132.073 0.666176 131.847 0.666176 131.566V119.761C0.666176 119.481 0.889345 119.254 1.16581 119.254H298.174C298.45 119.254 298.674 119.481 298.674 119.761V131.566C298.674 131.847 298.45 132.073 298.174 132.073ZM1.66544 131.059H297.674V120.268H1.66544V131.059Z" fill="black"/>
<path d="M91.8557 92.7036H68.453V93.7174H91.8557V92.7036Z" fill="black"/>
<path d="M159.972 92.7036H156.758V93.7174H159.972V92.7036Z" fill="black"/>
<path d="M298.5 120.812H0.499566C0.276397 120.812 0.0832058 120.664 0.0199191 120.447C-0.0433677 120.231 0.0432352 119.998 0.233096 119.879L24.8483 104.046L25.3846 104.901L2.22163 119.798H296.598L266.884 102.788L267.373 101.906L298.747 119.863C298.943 119.974 299.043 120.211 298.983 120.434C298.927 120.657 298.727 120.812 298.5 120.812Z" fill="black"/>
<path d="M258.993 97.2356C258.706 97.2356 258.41 97.1748 258.103 97.0497C257.714 96.8943 257.341 96.6644 256.934 96.3265C256.211 95.7283 255.519 94.9104 254.986 94.0283C254.33 92.9434 254.02 91.9633 254.033 91.0305C254.053 89.8747 254.809 88.7965 255.918 88.347C256.488 88.1307 256.868 88.1713 257.384 88.4957L258.29 89.0804L260.019 88.5228L260.402 87.4987C260.632 86.9445 260.905 86.7045 261.524 86.5152L261.561 86.5051C262.713 86.2415 263.933 86.6842 264.595 87.6035C265.138 88.3572 265.441 89.344 265.525 90.6216C265.591 91.6456 265.491 92.717 265.238 93.6362C265.095 94.1669 264.932 94.5623 264.709 94.907C264.416 95.3666 264.079 95.6573 263.679 95.7959C263.17 95.9513 262.82 95.9243 262.367 95.708C262.207 95.6336 261.761 95.5863 261.311 95.7283C260.825 95.8804 260.525 96.1845 260.482 96.3096C260.328 96.678 260.019 96.9754 259.642 97.1241C259.429 97.1984 259.216 97.2356 258.993 97.2356ZM256.535 89.2258C256.465 89.2258 256.388 89.2494 256.275 89.2933C255.545 89.5874 255.042 90.2937 255.029 91.0474C255.016 91.7808 255.282 92.5818 255.835 93.4977C256.311 94.2851 256.924 95.0118 257.564 95.539C257.89 95.8094 258.177 95.9885 258.47 96.1068C258.79 96.2352 259.056 96.2555 259.286 96.1744C259.436 96.1136 259.522 95.9919 259.546 95.9344C259.719 95.4613 260.312 94.978 261.008 94.7617C261.618 94.5724 262.327 94.5826 262.78 94.7887C263.02 94.9036 263.11 94.9104 263.37 94.8293C263.533 94.7718 263.696 94.6197 263.866 94.3561C264.029 94.0993 264.156 93.7951 264.272 93.3659C264.495 92.5514 264.582 91.5983 264.522 90.6858C264.452 89.6077 264.209 88.7931 263.783 88.1983C263.356 87.6035 262.557 87.3196 261.794 87.4886C261.451 87.5934 261.421 87.6441 261.321 87.884L260.778 89.3373L258.147 90.1856L256.851 89.3508C256.708 89.2629 256.625 89.2258 256.535 89.2258Z" fill="black"/>
<path d="M266.957 116.834C266.571 116.834 266.191 116.76 265.834 116.608C265.118 116.304 264.542 115.651 264.292 114.861L260.625 103.143C260.462 102.626 260.472 102.19 260.648 101.842L260.372 100.957C255.868 100.044 253.05 97.7865 251.758 94.0722C251.015 91.9329 250.849 90.385 251.219 89.0534C251.595 87.688 252.571 86.5862 254.196 85.6872C255.269 85.1296 256.575 84.6463 257.714 84.2441L257.727 84.2407C259.013 83.825 260.279 83.5209 261.391 83.3519L261.461 83.3418L261.501 83.3485C263.313 83.1423 264.719 83.4736 265.794 84.359C266.85 85.2276 267.596 86.5896 268.206 88.7763C269.262 92.5683 268.236 96.0629 265.062 99.4493L265.335 100.318C265.791 100.521 265.961 100.943 266.104 101.396L269.768 113.1C270.015 113.891 269.915 114.759 269.502 115.428C269.135 116.023 268.556 116.473 267.873 116.692C267.573 116.787 267.263 116.834 266.957 116.834ZM258.043 85.2006C256.938 85.5892 255.672 86.059 254.666 86.5829C253.3 87.3399 252.484 88.2389 252.181 89.3272C251.871 90.4458 252.031 91.8045 252.704 93.7343C253.91 97.2086 256.501 99.2026 260.851 100.017L261.148 100.071L261.767 102.052L261.571 102.268C261.488 102.359 261.491 102.548 261.581 102.836L265.248 114.553C265.408 115.063 265.771 115.479 266.221 115.672C266.647 115.854 267.114 115.871 267.57 115.722C268.026 115.574 268.413 115.28 268.656 114.888C268.916 114.469 268.975 113.914 268.816 113.404L265.152 101.7C265.012 101.251 264.962 101.241 264.849 101.22L264.552 101.166L263.929 99.1755L264.139 98.9592C267.247 95.7384 268.233 92.5919 267.247 89.05C266.697 87.0797 266.054 85.8731 265.168 85.1431C264.302 84.43 263.12 84.1731 261.554 84.3624L261.484 84.3692L261.464 84.3658C260.425 84.5246 259.246 84.8153 258.043 85.2006ZM266.954 115.172C266.787 115.172 266.621 115.141 266.477 115.08C266.164 114.948 265.981 114.729 265.861 114.354L262.217 102.711L264.552 101.957L268.196 113.6C268.313 113.975 268.286 114.259 268.106 114.553C267.953 114.8 267.68 115.006 267.373 115.104C267.24 115.151 267.097 115.172 266.954 115.172ZM263.473 103.37L266.814 114.046C266.837 114.124 266.854 114.147 266.854 114.147C266.89 114.154 266.98 114.168 267.07 114.137C267.167 114.107 267.243 114.039 267.26 114.012C267.27 114.019 267.267 113.985 267.243 113.908L263.903 103.231L263.473 103.37Z" fill="black"/>
<path d="M218.516 78.9922C218.459 78.9753 218.416 78.9753 218.383 79.0024C218.243 79.1105 218.116 79.1781 218.016 79.1883C217.916 79.195 217.843 79.2322 217.793 79.2964L217.693 79.3877C217.687 79.4046 217.643 79.4282 217.51 79.4485C217.487 79.4654 217.41 79.506 217.443 79.5499C217.487 79.6073 217.527 79.6749 217.56 79.7425C217.593 79.8845 217.57 80.0366 217.437 80.1819C217.387 80.2393 217.32 80.2562 217.237 80.2495C217.194 80.2427 217.144 80.2157 217.144 80.165C217.154 80.1143 217.17 80.0737 217.217 80.0399C217.3 79.9318 217.3 79.8372 217.21 79.7527C217.144 79.7189 217.077 79.7189 217.01 79.7527C216.877 79.8101 216.86 79.9284 216.944 80.0399C216.944 80.0737 216.934 80.1143 216.917 80.165C216.884 80.2326 216.827 80.2495 216.751 80.2393C216.627 80.1718 216.567 80.0535 216.584 79.8507C216.641 79.7594 216.707 79.6749 216.774 79.6073C216.701 79.4722 216.591 79.3708 216.457 79.3032C216.324 79.3708 216.218 79.4722 216.141 79.6073C216.208 79.6817 216.264 79.7594 216.298 79.8507C216.314 79.969 216.304 80.0873 216.214 80.1954C216.131 80.2529 216.048 80.2867 215.964 80.236C215.905 80.1785 215.905 80.1109 215.941 80.0332C215.998 79.9419 215.991 79.8473 215.908 79.773C215.841 79.7223 215.758 79.729 215.701 79.773C215.618 79.8405 215.628 79.925 215.691 80.0332C215.701 80.0737 215.691 80.1177 215.685 80.1413C215.618 80.2833 215.518 80.2664 215.402 80.2157C215.195 80.0129 215.202 79.8034 215.442 79.6006C215.491 79.533 215.468 79.4586 215.375 79.4417C215.202 79.391 215.052 79.3167 214.952 79.1714C214.852 78.9618 214.719 78.9618 214.619 79.1714C214.519 79.3066 214.362 79.391 214.196 79.4417C214.106 79.4586 214.079 79.533 214.122 79.5938C214.372 79.8034 214.372 80.0062 214.172 80.2157C214.056 80.2664 213.956 80.2731 213.889 80.1413C213.873 80.1075 213.873 80.0737 213.883 80.023C213.949 79.9217 213.956 79.8304 213.876 79.7696C213.809 79.7256 213.736 79.7189 213.659 79.7696C213.576 79.8372 213.576 79.9386 213.636 80.0298C213.659 80.0974 213.659 80.165 213.613 80.2224C213.523 80.2731 213.446 80.2461 213.363 80.1887C213.273 80.0704 213.263 79.9622 213.28 79.8439C213.313 79.7425 213.37 79.6682 213.43 79.5904C213.363 79.4654 213.256 79.364 213.113 79.2863C212.99 79.3606 212.88 79.462 212.797 79.5904C212.873 79.6648 212.937 79.7425 212.987 79.8439C213.01 80.0366 212.953 80.165 212.83 80.2224C212.747 80.2393 212.69 80.2224 212.657 80.1481C212.647 80.1075 212.64 80.0636 212.64 80.0298C212.724 79.9217 212.697 79.8034 212.574 79.7425C212.507 79.7087 212.44 79.7087 212.367 79.7425C212.284 79.827 212.277 79.9183 212.357 80.0298C212.407 80.0636 212.43 80.1042 212.43 80.1481C212.44 80.2089 212.39 80.2326 212.34 80.2393C212.257 80.2461 212.201 80.2224 212.151 80.1718C212.011 80.0298 211.984 79.8777 212.017 79.7256C212.051 79.658 212.091 79.6006 212.141 79.5398C212.174 79.4958 212.101 79.4485 212.067 79.4384C211.934 79.4147 211.894 79.3944 211.894 79.3775L211.794 79.2761C211.738 79.2187 211.661 79.1849 211.571 79.1748C211.471 79.168 211.338 79.1004 211.198 78.9889C211.165 78.9618 211.125 78.9618 211.075 78.9787C211.031 79.0193 211.025 79.0632 211.041 79.1038C211.558 79.5668 211.731 80.1075 211.771 80.3847H217.813C217.853 80.1075 218.03 79.5668 218.536 79.1139C218.566 79.0767 218.556 79.0362 218.516 78.9922Z" fill="black"/>
<path d="M211.511 78.9077C211.668 78.9516 211.827 78.9989 211.961 79.0834C212.054 79.1071 212.144 79.0834 212.227 79.0327C212.594 78.7387 213.007 78.4954 213.496 78.3433C213.57 78.3196 213.613 78.3433 213.586 78.4176C213.396 78.5697 213.253 78.7624 213.17 79.0158C213.17 79.0902 213.22 79.124 213.326 79.1172C213.41 79.0936 213.476 79.1003 213.526 79.1341C213.599 79.151 213.659 79.1274 213.709 79.0091C213.759 78.6812 213.959 78.4514 214.249 78.2926C214.382 78.2757 214.439 78.3331 214.422 78.4616C214.316 78.5798 214.232 78.7049 214.199 78.8401C214.206 78.9651 214.272 79.0091 214.382 78.9753C214.449 78.9753 214.499 78.9178 214.539 78.8063C214.645 78.6035 214.929 78.6035 215.035 78.8063C215.075 78.9144 215.125 78.9753 215.185 78.9753C215.302 79.0091 215.368 78.9685 215.375 78.8401C215.342 78.7049 215.258 78.5798 215.152 78.4616C215.135 78.3365 215.192 78.2757 215.325 78.2926C215.615 78.4514 215.815 78.6812 215.864 79.0091C215.904 79.1274 215.971 79.151 216.038 79.1341C216.094 79.1003 216.161 79.0936 216.244 79.1172C216.351 79.1274 216.401 79.0936 216.401 79.0158C216.317 78.7624 216.178 78.5697 215.988 78.4176C215.961 78.3433 216.004 78.3162 216.078 78.3433C216.567 78.4954 216.984 78.7387 217.347 79.0327C217.43 79.0834 217.52 79.1071 217.613 79.0834C217.746 78.9989 217.896 78.9482 218.063 78.9077C218.163 78.8908 218.196 78.8164 218.169 78.6981C218.096 78.59 217.986 78.5224 217.836 78.5055C217.78 78.5156 217.73 78.4987 217.686 78.4548C217.597 78.296 217.43 78.2351 217.203 78.2689C217.097 78.1439 216.947 78.1168 216.79 78.127C216.651 77.9749 216.491 77.958 216.324 77.9918C216.141 77.8735 215.974 77.8329 215.834 77.9073C215.601 77.816 215.401 77.8498 215.238 77.958C215.178 77.8329 215.098 77.7383 214.965 77.6876V77.5355H215.182V77.3159H214.965V77.0894H214.599V77.3159H214.382V77.5355H214.599V77.6876C214.466 77.7383 214.376 77.8296 214.326 77.958C214.152 77.8498 213.959 77.816 213.729 77.9073C213.579 77.8329 213.413 77.8735 213.24 77.9918C213.073 77.958 212.917 77.9749 212.773 78.127C212.607 78.1202 212.467 78.1439 212.357 78.2689C212.134 78.2351 211.967 78.2926 211.877 78.4548C211.834 78.4987 211.787 78.5156 211.728 78.5055C211.578 78.5224 211.471 78.59 211.394 78.6981C211.378 78.8164 211.411 78.8908 211.511 78.9077ZM214.799 77.8059C214.915 77.8059 215.005 77.9242 215.005 78.0763C215.005 78.2284 214.915 78.3534 214.799 78.3534C214.682 78.3534 214.582 78.2284 214.582 78.0763C214.582 77.9242 214.682 77.8059 214.799 77.8059Z" fill="black"/>
<path d="M211.778 81.3917H217.82V80.8205H211.778V81.3917ZM217.137 80.9455C217.227 80.9455 217.303 81.0199 217.303 81.1145C217.303 81.2058 217.227 81.2835 217.137 81.2835C217.047 81.2835 216.97 81.2092 216.97 81.1145C216.97 81.0199 217.047 80.9455 217.137 80.9455ZM215.984 80.9455C216.074 80.9455 216.151 81.0199 216.151 81.1145C216.151 81.2058 216.078 81.2835 215.984 81.2835C215.895 81.2835 215.818 81.2092 215.818 81.1145C215.818 81.0199 215.895 80.9455 215.984 80.9455ZM214.799 80.9455C214.889 80.9455 214.965 81.0199 214.965 81.1145C214.965 81.2058 214.892 81.2835 214.799 81.2835C214.709 81.2835 214.632 81.2092 214.632 81.1145C214.632 81.0199 214.705 80.9455 214.799 80.9455ZM213.61 80.9455C213.699 80.9455 213.776 81.0199 213.776 81.1145C213.776 81.2058 213.703 81.2835 213.61 81.2835C213.52 81.2835 213.443 81.2092 213.443 81.1145C213.446 81.0199 213.52 80.9455 213.61 80.9455ZM212.45 80.9455C212.54 80.9455 212.617 81.0199 212.617 81.1145C212.617 81.2058 212.544 81.2835 212.45 81.2835C212.36 81.2835 212.284 81.2092 212.284 81.1145C212.284 81.0199 212.357 80.9455 212.45 80.9455Z" fill="black"/>
<path d="M217.82 80.5332H211.778V80.6853H217.82V80.5332Z" fill="black"/>
<path d="M210.808 81.9122C210.808 81.9122 209.999 81.8852 209.676 81.145C209.676 81.145 208.92 82.0035 207.747 82.3076L207.824 82.5172V85.2547L207.601 85.4777C207.601 85.4777 206.711 84.8964 206.635 84.0245C206.568 83.2303 206.685 82.6321 207.557 81.8649C207.557 81.8649 207.844 81.6047 208.29 81.4458V81.3546C206.881 81.3546 205.252 82.649 205.252 84.1563C205.252 85.6501 206.371 86.5356 207.847 86.5356C207.847 86.5356 208.786 86.5457 209.479 86.1571V86.5288C209.479 86.5592 209.423 86.5525 209.423 86.5525C209.223 86.5525 209.06 86.6877 209.06 86.8567C209.06 87.0223 209.223 87.1574 209.423 87.1574C209.622 87.1574 209.786 87.0223 209.786 86.8567V86.0151C209.786 86.0151 209.982 85.863 210.045 85.809C210.112 85.7549 210.059 85.6501 209.979 85.6771C209.899 85.7042 209.782 85.7549 209.782 85.7549V82.2502C209.792 82.2569 210.472 82.3211 210.808 81.9122ZM209.479 85.8394C208.307 85.9712 207.994 85.7076 207.994 85.7076L208.956 84.8762V82.0204C208.956 81.8885 209.479 82.2198 209.479 82.2198V85.8394Z" fill="black"/>
<path d="M212.32 83.166C212.32 83.068 212.45 82.9531 212.45 82.9531C211.967 82.8991 211.201 82.5442 211.201 82.5442C210.772 82.9126 210.082 82.9531 210.082 82.9531C210.069 83.0342 210.185 83.1762 210.185 83.1762V84.9302C210.185 84.9302 210.145 84.9505 210.025 85.106C209.989 85.1533 209.966 85.204 209.966 85.204C210.928 85.3088 211.318 85.8157 211.318 85.8157C211.748 85.3257 212.477 85.2209 212.477 85.2209C212.36 85.1668 212.32 85.0012 212.32 84.9708V83.166ZM211.538 85.106C211.018 85.0012 210.911 84.8829 210.911 84.8829V83.0647C210.911 83.0241 211.538 83.2877 211.538 83.2877V85.106Z" fill="black"/>
<path d="M217.147 83.166C217.147 83.068 217.277 82.9531 217.277 82.9531C216.794 82.8991 216.028 82.5442 216.028 82.5442C215.598 82.9126 214.909 82.9531 214.909 82.9531C214.895 83.0342 215.012 83.1762 215.012 83.1762V84.9302C215.012 84.9302 214.972 84.9505 214.852 85.106C214.815 85.1533 214.792 85.204 214.792 85.204C215.755 85.3088 216.144 85.8157 216.144 85.8157C216.574 85.3257 217.303 85.2209 217.303 85.2209C217.187 85.1668 217.147 85.0012 217.147 84.9708V83.166ZM216.367 85.106C215.848 85.0012 215.741 84.8829 215.741 84.8829V83.0647C215.741 83.0241 216.367 83.2877 216.367 83.2877V85.106Z" fill="black"/>
<path d="M222.759 85.1701C222.566 85.1397 222.5 84.9707 222.5 84.92C222.5 84.8693 222.5 83.1288 222.5 83.1288V82.9328C221.94 82.7469 221.394 82.5508 221.394 82.5508C220.874 82.8685 220.315 82.9598 220.315 82.9598C220.301 83.0409 220.418 83.1829 220.418 83.1829V85.0248C220.418 85.0248 220.398 85.0552 220.348 85.1228C220.328 85.1532 220.291 85.1972 220.278 85.2107C220.838 85.2783 221.45 85.8224 221.45 85.8224L221.9 85.3324L222.406 85.8224L223.006 85.2107C223.006 85.2073 222.949 85.2005 222.759 85.1701ZM221.717 85.1093C221.484 84.9234 221.157 84.8017 221.157 84.8017V83.0612C221.184 83.095 221.717 83.2842 221.717 83.2842V85.1093Z" fill="black"/>
<path d="M213.973 85.2074C213.466 85.5048 213.326 85.8191 213.326 85.8191C213.326 85.8191 213.186 85.5048 212.68 85.2074L212.917 85.2107C212.917 85.2107 212.917 83.3452 212.917 83.3012C212.917 83.1998 212.817 82.9734 212.584 82.9565L213.24 82.5476C213.24 82.5476 213.656 82.7977 213.723 82.9058C213.723 82.9058 213.643 82.97 214.179 82.6118L214.269 82.5442C214.269 82.5442 214.595 82.9193 214.849 82.9734C214.785 83.2134 214.549 83.5074 213.896 83.1424C213.896 83.1424 213.736 83.1052 213.736 83.2134V85.2074H213.973Z" fill="black"/>
<path d="M220.001 82.9565C219.745 82.8551 219.259 82.5442 219.259 82.5442L219.169 82.6084C218.636 82.9666 218.513 82.9159 218.513 82.9159C218.446 82.8112 218.03 82.5577 218.03 82.5577L217.397 82.9531C217.63 82.97 217.73 83.1965 217.73 83.2979C217.73 83.3418 217.73 85.204 217.73 85.204H217.493C218 85.5014 218.139 85.8157 218.139 85.8157C218.139 85.8157 218.279 85.5014 218.786 85.204H218.549V83.281L218.886 83.0849L219.145 83.281V85.204H218.909C219.415 85.5014 219.525 85.8157 219.525 85.8157C219.525 85.8157 219.665 85.5014 220.171 85.204H219.935L219.932 83.2032C219.935 83.21 220.065 82.9835 220.001 82.9565Z" fill="black"/>
<path d="M223.262 85.9071C223.262 85.9071 223.339 85.8868 223.339 85.8158C223.339 85.7651 223.306 85.7212 223.216 85.7212H223.073V86.0558H223.133V85.9138H223.199C223.199 85.9138 223.259 85.9814 223.292 86.0558H223.369C223.366 86.0558 223.312 85.9544 223.262 85.9071ZM223.209 85.8631C223.179 85.8631 223.129 85.8631 223.129 85.8631V85.7685H223.209C223.239 85.7685 223.272 85.7753 223.272 85.8158C223.272 85.853 223.239 85.8631 223.209 85.8631Z" fill="black"/>
<path d="M222.883 85.8901C222.883 86.0658 223.023 86.2078 223.196 86.2078C223.369 86.2078 223.509 86.0658 223.509 85.8901C223.509 85.7143 223.369 85.5724 223.196 85.5724C223.023 85.5758 222.883 85.7177 222.883 85.8901ZM222.943 85.8901C222.943 85.7481 223.056 85.6332 223.196 85.6332C223.336 85.6332 223.449 85.7481 223.449 85.8901C223.449 86.032 223.336 86.1469 223.196 86.1469C223.056 86.1503 222.943 86.0354 222.943 85.8901Z" fill="black"/>
<path d="M222.27 113.549H206.185C204.776 113.549 203.607 112.475 203.47 111.052L199.653 71.7055C199.64 71.5636 199.686 71.4216 199.78 71.3169C199.873 71.2121 200.01 71.1512 200.149 71.1512H228.299C228.439 71.1512 228.575 71.2121 228.668 71.3169C228.762 71.4216 228.808 71.5636 228.795 71.7055L224.981 111.052C224.848 112.475 223.679 113.549 222.27 113.549ZM200.702 72.1651L204.463 110.954C204.55 111.856 205.289 112.535 206.185 112.535H222.27C223.162 112.535 223.902 111.856 223.992 110.954L227.752 72.1651H200.702Z" fill="black"/>
<path d="M253.33 96.6509L253.32 106.057C253.157 110.457 252.551 111.45 252.391 111.64H252.318L252.178 111.778C250.929 113.012 245.829 113.208 243.954 113.174C239.044 113.205 235.84 112.072 235.56 111.968C234.871 111.603 234.497 108.899 234.547 106.574L234.637 93.8018L234.727 76.0687C234.707 71.7799 237.559 67.5012 237.585 67.4606L237.609 67.4201C238.901 65.0814 238.964 63.1786 239.007 61.7896L239.011 61.7321C239.054 60.4005 239.034 58.4234 239.034 58.4065C239.011 52.7996 240.483 41.8765 240.5 41.7886C240.546 41.5318 240.989 37.9155 241.036 37.5201C241.139 36.8712 240.916 36.4859 240.796 36.3305C240.706 36.1378 240.886 35.5666 241.019 35.374C241.266 35.0191 241.186 34.7386 241.116 34.6034C241.006 34.3871 240.783 34.2587 240.52 34.2587H240.47C240.47 34.2148 240.473 34.1675 240.48 34.1303L240.483 34.0897C240.543 32.9102 241.223 32.8291 241.366 32.8257H241.406L241.452 32.819C243.204 32.5148 247.874 32.7987 247.904 32.8021C248.77 32.8866 248.874 33.7484 248.867 34.1945L248.304 33.9241L248.394 34.8164C248.397 34.8603 248.397 34.911 248.401 34.9718C248.407 35.2287 248.414 35.614 248.597 36.0026C248.674 36.1649 248.664 36.2662 248.644 36.2831C248.177 36.6279 248.247 37.2768 248.264 37.3849C248.271 37.4457 248.983 43.688 249.446 48.6494C249.906 53.5871 249.736 61.7321 249.733 61.8166C249.686 64.8887 250.719 67.1328 250.762 67.2274L250.809 67.3086C251.248 67.9237 251.988 69.4209 251.995 69.4344C253.763 73.0033 253.617 76.9812 253.613 77.0353L253.484 86.2719C253.687 86.184 253.903 86.1334 254.123 86.1334C254.243 86.1334 254.363 86.13 254.483 86.1232L254.609 77.0623C254.616 76.8899 254.773 72.787 252.884 68.9781C252.854 68.9139 252.131 67.4573 251.645 66.7543C251.515 66.4569 250.689 64.4494 250.729 61.8335C250.729 61.7524 250.902 53.5499 250.436 48.5514C249.973 43.5765 249.26 37.3275 249.25 37.2531C249.243 37.1957 249.247 37.1179 249.257 37.0774C249.676 36.7462 249.77 36.1581 249.496 35.57C249.446 35.4619 249.423 35.3436 249.41 35.2219C249.42 35.2152 249.43 35.2118 249.44 35.205C249.61 35.107 249.82 34.8941 249.856 34.4446C249.946 33.3158 249.513 31.9436 247.984 31.7916C247.788 31.778 243.218 31.5009 241.329 31.8118C240.703 31.8253 239.584 32.2985 239.49 34.0154C239.457 34.2891 239.444 34.7657 239.687 35.0496C239.767 35.1408 239.867 35.205 239.977 35.2422C239.79 35.7154 239.654 36.4048 239.97 36.8982L239.963 36.9253L240.02 36.9692C240.04 37.0098 240.087 37.1314 240.047 37.3748C239.85 38.9734 239.547 41.4202 239.517 41.6027C239.441 42.0353 238.015 52.9382 238.035 58.4099C238.035 58.4302 238.055 60.3836 238.012 61.6915L238.008 61.749C237.965 63.0299 237.908 64.7839 236.746 66.8996C236.499 67.2714 233.705 71.5636 233.725 76.0619L233.635 93.7917L233.545 106.553C233.525 107.476 233.508 112.11 235.15 112.887L235.187 112.9C235.324 112.954 238.578 114.178 243.804 114.178C243.851 114.178 243.901 114.178 243.947 114.178C244.024 114.178 244.167 114.181 244.36 114.181C245.956 114.181 251.075 114.063 252.771 112.589C253.424 112.322 254.14 110.883 254.316 106.07L254.323 96.7388C254.22 96.7658 253.54 96.7455 253.33 96.6509Z" fill="black"/>
<path d="M133.415 85.5081C133.302 85.4743 133.219 85.4743 133.152 85.525C132.872 85.7413 132.626 85.8765 132.429 85.8934C132.233 85.9103 132.083 85.9779 131.983 86.1097L131.786 86.2922C131.77 86.326 131.686 86.3767 131.423 86.4105C131.373 86.4443 131.227 86.5254 131.29 86.6099C131.373 86.7248 131.457 86.86 131.52 86.9918C131.587 87.2757 131.537 87.5765 131.273 87.8604C131.174 87.9753 131.044 88.0091 130.877 87.9922C130.794 87.9753 130.694 87.9246 130.694 87.8266C130.711 87.7252 130.744 87.6441 130.844 87.5765C131.01 87.3602 131.01 87.1743 130.827 87.0087C130.694 86.9411 130.564 86.9411 130.431 87.0087C130.168 87.1236 130.134 87.3602 130.297 87.5765C130.297 87.6441 130.281 87.7252 130.248 87.8266C130.181 87.9584 130.068 87.9922 129.918 87.9753C129.671 87.8401 129.555 87.6069 129.588 87.2081C129.705 87.0222 129.834 86.8566 129.964 86.7248C129.818 86.4578 129.601 86.255 129.338 86.1232C129.075 86.255 128.862 86.4578 128.712 86.7248C128.845 86.8735 128.958 87.0256 129.025 87.2081C129.058 87.4413 129.042 87.6779 128.859 87.8942C128.695 88.0091 128.529 88.0767 128.366 87.9787C128.249 87.8638 128.249 87.7286 128.316 87.5765C128.432 87.394 128.416 87.2081 128.249 87.0594C128.119 86.958 127.953 86.9749 127.839 87.0594C127.673 87.1912 127.693 87.3602 127.823 87.5765C127.839 87.6576 127.823 87.7421 127.806 87.7928C127.673 88.0767 127.476 88.0429 127.246 87.9415C126.833 87.5393 126.85 87.1236 127.33 86.7214C127.43 86.5863 127.38 86.4375 127.196 86.4037C126.85 86.3024 126.554 86.1537 126.357 85.8698C126.161 85.4507 125.897 85.4507 125.698 85.8698C125.501 86.1368 125.188 86.3057 124.858 86.4037C124.678 86.4375 124.628 86.5862 124.712 86.7045C125.205 87.1202 125.205 87.5224 124.812 87.9415C124.582 88.0429 124.382 88.0564 124.252 87.7928C124.219 87.7252 124.219 87.6576 124.235 87.5596C124.369 87.3602 124.382 87.1743 124.219 87.0594C124.089 86.9749 123.939 86.958 123.789 87.0594C123.622 87.1912 123.622 87.394 123.739 87.5765C123.789 87.7083 123.789 87.8435 123.689 87.9584C123.506 88.0598 123.359 88.0091 123.196 87.8908C123.016 87.6576 123 87.4413 123.033 87.2047C123.099 87.0053 123.213 86.8532 123.329 86.7045C123.199 86.4544 122.983 86.2517 122.703 86.103C122.457 86.2517 122.24 86.4544 122.077 86.7045C122.227 86.8532 122.357 87.0053 122.457 87.2047C122.507 87.59 122.39 87.8401 122.143 87.955C121.98 87.9888 121.864 87.955 121.797 87.8063C121.78 87.7252 121.764 87.6407 121.764 87.5731C121.927 87.3568 121.877 87.1202 121.631 87.0053C121.497 86.9377 121.367 86.9377 121.217 87.0053C121.054 87.1709 121.038 87.3568 121.201 87.5731C121.301 87.6407 121.347 87.7218 121.347 87.8063C121.364 87.9246 121.267 87.9753 121.168 87.9922C121.004 88.0091 120.888 87.9584 120.788 87.8604C120.508 87.5765 120.458 87.2757 120.525 86.9749C120.591 86.8397 120.671 86.7248 120.771 86.6065C120.838 86.522 120.688 86.4206 120.625 86.4071C120.361 86.3564 120.278 86.3226 120.278 86.2888L120.082 86.0894C119.965 85.9711 119.819 85.9069 119.635 85.89C119.439 85.8731 119.172 85.7413 118.893 85.5217C118.826 85.471 118.746 85.471 118.646 85.5048C118.563 85.5892 118.546 85.6737 118.579 85.7549C119.602 86.6741 119.945 87.7421 120.028 88.2964H132.016C132.099 87.7455 132.443 86.6741 133.449 85.7751C133.515 85.6771 133.498 85.5926 133.415 85.5081Z" fill="black"/>
<path d="M119.515 85.3425C119.829 85.427 120.142 85.525 120.405 85.694C120.588 85.7447 120.768 85.694 120.931 85.5926C121.657 85.0079 122.48 84.5246 123.449 84.2239C123.599 84.1732 123.679 84.2239 123.629 84.3726C123.249 84.6733 122.97 85.0586 122.806 85.5588C122.806 85.7075 122.906 85.7751 123.119 85.7582C123.286 85.7075 123.416 85.7244 123.516 85.792C123.662 85.8258 123.779 85.7751 123.879 85.5419C123.979 84.8896 124.372 84.4402 124.948 84.1225C125.211 84.0887 125.328 84.207 125.295 84.457C125.081 84.6902 124.915 84.9403 124.851 85.2073C124.868 85.4574 124.998 85.5419 125.215 85.4743C125.348 85.4743 125.444 85.3594 125.528 85.1397C125.741 84.7376 126.3 84.7376 126.517 85.1397C126.6 85.356 126.697 85.4743 126.813 85.4743C127.043 85.5419 127.176 85.4574 127.193 85.2073C127.126 84.9403 126.963 84.6902 126.747 84.457C126.713 84.207 126.83 84.0887 127.093 84.1225C127.669 84.4402 128.066 84.8896 128.166 85.5419C128.249 85.7751 128.379 85.8258 128.512 85.792C128.629 85.7244 128.759 85.7075 128.925 85.7582C129.138 85.7751 129.238 85.7075 129.238 85.5588C129.075 85.0586 128.795 84.6733 128.416 84.3726C128.366 84.2239 128.449 84.1732 128.595 84.2239C129.568 84.5246 130.391 85.0079 131.117 85.5926C131.28 85.694 131.463 85.7413 131.643 85.694C131.906 85.5284 132.203 85.427 132.533 85.3425C132.729 85.3087 132.796 85.16 132.746 84.9234C132.596 84.7071 132.383 84.572 132.086 84.5382C131.97 84.5551 131.873 84.5213 131.79 84.4368C131.61 84.1191 131.28 84.0008 130.834 84.0684C130.621 83.8183 130.324 83.7676 130.011 83.7845C129.731 83.4837 129.418 83.4499 129.088 83.5175C128.725 83.2843 128.396 83.1998 128.116 83.3519C127.653 83.1694 127.26 83.237 126.93 83.4533C126.813 83.2032 126.65 83.0173 126.387 82.9193V82.6185H126.813V82.1825H126.387V81.733H125.661V82.1825H125.235V82.6185H125.661V82.9193C125.398 83.0207 125.215 83.2032 125.118 83.4533C124.772 83.237 124.395 83.1694 123.932 83.3519C123.636 83.2032 123.306 83.2843 122.96 83.5175C122.63 83.4499 122.317 83.4837 122.037 83.7845C121.707 83.7676 121.427 83.8183 121.214 84.0684C120.768 84.0008 120.441 84.1191 120.258 84.4368C120.175 84.5213 120.078 84.5551 119.962 84.5382C119.665 84.572 119.452 84.7071 119.302 84.9234C119.252 85.1566 119.319 85.3087 119.515 85.3425ZM126.037 83.1525C126.267 83.1525 126.45 83.3857 126.45 83.6865C126.45 83.9873 126.27 84.2374 126.037 84.2374C125.807 84.2374 125.611 83.9873 125.611 83.6865C125.611 83.3857 125.807 83.1525 126.037 83.1525Z" fill="black"/>
<path d="M120.045 90.27H132.033V89.1345H120.045V90.27ZM130.68 89.3846C130.86 89.3846 131.01 89.5333 131.01 89.7192C131.01 89.9017 130.86 90.0537 130.68 90.0537C130.501 90.0537 130.351 89.905 130.351 89.7192C130.354 89.5366 130.501 89.3846 130.68 89.3846ZM128.392 89.3846C128.572 89.3846 128.722 89.5333 128.722 89.7192C128.722 89.9017 128.572 90.0537 128.392 90.0537C128.212 90.0537 128.062 89.905 128.062 89.7192C128.062 89.5366 128.212 89.3846 128.392 89.3846ZM126.037 89.3846C126.217 89.3846 126.367 89.5333 126.367 89.7192C126.367 89.9017 126.217 90.0537 126.037 90.0537C125.857 90.0537 125.707 89.905 125.707 89.7192C125.711 89.5366 125.857 89.3846 126.037 89.3846ZM123.682 89.3846C123.862 89.3846 124.012 89.5333 124.012 89.7192C124.012 89.9017 123.866 90.0537 123.682 90.0537C123.502 90.0537 123.353 89.905 123.353 89.7192C123.353 89.5366 123.502 89.3846 123.682 89.3846ZM121.377 89.3846C121.557 89.3846 121.707 89.5333 121.707 89.7192C121.707 89.9017 121.561 90.0537 121.377 90.0537C121.197 90.0537 121.048 89.905 121.048 89.7192C121.048 89.5366 121.197 89.3846 121.377 89.3846Z" fill="black"/>
<path d="M132.033 88.5668H120.045V88.8676H132.033V88.5668Z" fill="black"/>
<path d="M118.123 91.3044C118.123 91.3044 116.521 91.2503 115.875 89.7835C115.875 89.7835 114.373 91.4902 112.048 92.0918L112.204 92.5109V97.942L111.764 98.3882C111.764 98.3882 109.996 97.2323 109.849 95.5019C109.716 93.927 109.949 92.7407 111.681 91.2199C111.681 91.2199 112.254 90.7028 113.133 90.3851V90.2026C110.339 90.2026 107.108 92.7745 107.108 95.7655C107.108 98.7295 109.326 100.487 112.254 100.487C112.254 100.487 114.116 100.504 115.495 99.7367V100.473C115.498 100.534 115.382 100.524 115.382 100.524C114.982 100.524 114.659 100.795 114.659 101.126C114.659 101.457 114.982 101.727 115.382 101.727C115.781 101.727 116.105 101.457 116.105 101.126V99.4528C116.105 99.4528 116.494 99.1486 116.624 99.0472C116.754 98.9424 116.651 98.7329 116.494 98.7836C116.338 98.8343 116.105 98.9424 116.105 98.9424V91.9904C116.105 91.9871 117.45 92.1155 118.123 91.3044ZM115.485 99.0945C113.157 99.3581 112.537 98.8309 112.537 98.8309L114.449 97.1782V91.5105C114.449 91.2469 115.485 91.9059 115.485 91.9059V99.0945Z" fill="black"/>
<path d="M121.121 93.7952C121.121 93.5992 121.377 93.3761 121.377 93.3761C120.421 93.2714 118.899 92.565 118.899 92.565C118.047 93.2984 116.678 93.3761 116.678 93.3761C116.651 93.535 116.884 93.8222 116.884 93.8222V97.3033C116.884 97.3033 116.807 97.3405 116.568 97.648C116.491 97.746 116.444 97.8441 116.444 97.8441C118.356 98.0536 119.132 99.0574 119.132 99.0574C119.985 98.0874 121.431 97.8779 121.431 97.8779C121.198 97.7731 121.121 97.4419 121.121 97.381V93.7952ZM119.572 97.6447C118.54 97.4351 118.333 97.1985 118.333 97.1985V93.589C118.333 93.5113 119.572 94.0352 119.572 94.0352V97.6447Z" fill="black"/>
<path d="M130.701 93.7952C130.701 93.5992 130.96 93.3761 130.96 93.3761C130.004 93.2714 128.482 92.565 128.482 92.565C127.629 93.2984 126.26 93.3761 126.26 93.3761C126.234 93.535 126.467 93.8222 126.467 93.8222V97.3033C126.467 97.3033 126.39 97.3405 126.151 97.648C126.074 97.746 126.027 97.8441 126.027 97.8441C127.939 98.0536 128.715 99.0574 128.715 99.0574C129.568 98.0874 131.014 97.8779 131.014 97.8779C130.78 97.7731 130.704 97.4419 130.704 97.381V93.7952H130.701ZM129.152 97.6447C128.119 97.4351 127.913 97.1985 127.913 97.1985V93.589C127.913 93.5113 129.152 94.0352 129.152 94.0352V97.6447Z" fill="black"/>
<path d="M141.836 97.7663C141.456 97.7055 141.319 97.3709 141.319 97.2661C141.319 97.1648 141.319 93.7141 141.319 93.7141V93.3221C140.21 92.9537 139.124 92.5616 139.124 92.5616C138.092 93.1903 136.979 93.3728 136.979 93.3728C136.953 93.5316 137.186 93.8189 137.186 93.8189V97.4723C137.186 97.4723 137.146 97.5365 137.049 97.665C137.009 97.7224 136.936 97.8103 136.913 97.8407C138.022 97.9793 139.244 99.054 139.244 99.054L140.134 98.084L141.139 99.054L142.329 97.8407C142.325 97.8441 142.215 97.8272 141.836 97.7663ZM139.767 97.6447C139.301 97.2763 138.658 97.033 138.658 97.033V93.5789C138.708 93.6431 139.767 94.025 139.767 94.025V97.6447Z" fill="black"/>
<path d="M124.402 97.8441C123.396 98.4321 123.119 99.0574 123.119 99.0574C123.119 99.0574 122.846 98.4321 121.837 97.8441L122.307 97.8475C122.307 97.8475 122.307 94.1433 122.307 94.0588C122.307 93.8561 122.11 93.4099 121.647 93.3761L122.953 92.565C122.953 92.565 123.779 93.0618 123.909 93.2748C123.909 93.2748 123.752 93.3998 124.812 92.6934L124.991 92.5616C124.991 92.5616 125.638 93.3018 126.137 93.4167C126.011 93.8899 125.541 94.4745 124.245 93.7513C124.245 93.7513 123.932 93.6803 123.932 93.8899V97.8475H124.402V97.8441Z" fill="black"/>
<path d="M136.363 93.3761C135.85 93.1734 134.891 92.5616 134.891 92.5616L134.711 92.6934C133.652 93.3998 133.412 93.3018 133.412 93.3018C133.282 93.0923 132.456 92.5954 132.456 92.5954L131.197 93.3795C131.66 93.4133 131.856 93.8594 131.856 94.0622C131.856 94.1467 131.856 97.8474 131.856 97.8474L131.387 97.8441C132.393 98.4321 132.669 99.0608 132.669 99.0608C132.669 99.0608 132.946 98.4355 133.951 97.8474H133.485V94.0284L134.155 93.6398L134.671 94.0284V97.8474H134.201C135.207 98.4355 135.427 99.0641 135.427 99.0641C135.427 99.0641 135.703 98.4389 136.709 97.8474H136.243L136.233 93.8763C136.233 93.8763 136.493 93.4302 136.363 93.3761Z" fill="black"/>
<path d="M142.835 99.2297C142.835 99.2297 142.985 99.1925 142.985 99.0472C142.985 98.9458 142.915 98.8613 142.742 98.8613H142.455V99.5271H142.575V99.2466H142.705C142.705 99.2466 142.825 99.3818 142.892 99.5271H143.041C143.041 99.5238 142.938 99.3244 142.835 99.2297ZM142.732 99.1418C142.675 99.1418 142.575 99.1418 142.575 99.1418V98.9526H142.732C142.788 98.9526 142.855 98.9695 142.855 99.0438C142.858 99.1216 142.792 99.1418 142.732 99.1418Z" fill="black"/>
<path d="M142.082 99.1993C142.082 99.5474 142.362 99.8313 142.705 99.8313C143.048 99.8313 143.325 99.5508 143.325 99.1993C143.325 98.8512 143.048 98.5707 142.705 98.5707C142.362 98.5707 142.082 98.8546 142.082 99.1993ZM142.199 99.1993C142.199 98.9154 142.425 98.6856 142.705 98.6856C142.985 98.6856 143.208 98.9154 143.208 99.1993C143.208 99.4832 142.981 99.713 142.705 99.713C142.425 99.713 142.199 99.4832 142.199 99.1993Z" fill="black"/>
<path d="M135.637 105.81C135.484 105.854 135.307 105.904 135.187 105.796C135.027 105.651 135.104 104.093 135.084 103.687C135.067 103.346 135.097 103.265 135.084 103.261C134.041 103.035 133.575 102.494 133.575 102.494C132.909 103.008 132.652 103.143 131.903 103.366C132.03 103.43 132.05 103.637 132.05 103.714V105.445C132.05 105.573 131.98 105.624 131.876 105.695C132.106 105.759 132.709 106.013 133.329 106.418C133.392 106.459 133.885 106.013 134.128 105.948C134.255 106.141 134.668 106.597 135.071 106.405C135.207 106.34 135.494 105.989 135.637 105.871C135.634 105.874 135.637 105.816 135.637 105.81ZM133.095 105.198V103.387C133.089 103.383 133.988 103.765 133.988 103.765L133.995 105.573L133.095 105.198Z" fill="black"/>
<path d="M130.847 102.504C131.253 102.937 131.45 102.995 131.876 103.214C131.773 103.718 130.897 103.86 130.337 103.559C130.287 103.532 130.178 103.559 130.114 103.589C130.054 103.616 130.034 103.65 130.034 103.65L130.028 105.698L130.294 105.695L129.438 106.408L128.682 105.695L128.988 105.698V103.478C128.829 103.251 128.572 103.312 128.282 103.444L129.088 102.619C129.385 102.346 129.841 103.177 130.048 103.153C130.134 103.143 130.527 102.748 130.614 102.667C130.664 102.616 130.83 102.491 130.847 102.504Z" fill="black"/>
<path d="M127.43 101.545C127.466 101.534 127.503 101.558 127.503 101.592V102.504H128.239V102.859H127.709C127.483 102.859 127.503 102.957 127.503 102.957V105.31C127.503 105.31 127.496 105.499 127.753 105.492C127.773 105.492 127.799 105.485 127.816 105.482C127.923 105.462 128.326 105.161 128.382 105.404C128.402 105.489 128.366 105.556 128.339 105.593C128.249 105.718 127.02 106.428 127.02 106.428C127.02 106.428 126.294 105.766 126.237 105.705C126.177 105.644 126.45 105.408 126.45 105.408V103.008C126.45 102.866 125.964 102.869 125.964 102.869L125.961 102.511C126.041 102.511 126.447 102.511 126.447 102.511V102.234C126.444 102.207 126.447 102.177 126.477 102.15C126.62 102.021 127.313 101.605 127.43 101.545Z" fill="black"/>
<path d="M122.866 105.857C122.746 106.013 122.636 106.249 122.467 106.344C122.267 106.455 122.077 106.225 121.98 106.087C121.87 105.931 121.607 105.259 122.124 105.529C122.21 105.577 122.347 105.664 122.463 105.62C122.483 105.614 122.537 105.556 122.6 105.472C122.826 105.185 123.176 104.722 123.209 104.678C123.233 104.647 123.229 104.61 123.209 104.566C123.189 104.529 122.736 103.9 122.513 103.599C122.467 103.539 122.417 103.515 122.38 103.505C122.157 103.434 121.924 103.789 121.767 103.681C121.72 103.65 121.83 103.376 121.894 103.251C121.967 103.109 122.067 102.924 122.177 102.795C122.23 102.731 122.327 102.602 122.473 102.542C122.756 102.42 123.116 102.65 123.263 102.846C123.446 103.093 123.826 103.606 123.916 103.725C123.919 103.728 123.946 103.752 123.966 103.725C124.059 103.599 124.462 103.065 124.718 102.748C124.818 102.619 124.955 102.586 125.078 102.586C125.255 102.586 125.441 102.677 125.518 102.798C125.674 103.052 125.508 103.373 125.255 103.123C125.198 103.069 125.148 103.028 125.045 103.062C125.031 103.069 125.015 103.072 124.981 103.109C124.838 103.316 124.325 103.971 124.235 104.106C124.219 104.127 124.219 104.147 124.229 104.16L125.318 105.648C125.434 105.773 125.834 105.343 126.004 105.472C126.157 105.59 125.774 106.239 125.404 106.391C124.498 106.766 123.956 105.458 123.526 105.002L122.866 105.857Z" fill="black"/>
<path d="M117.947 99.7669C118.08 99.7466 118.28 99.8379 118.396 99.8615C118.733 99.9325 119.112 99.9595 119.455 99.9866C120.058 100.034 120.588 99.9832 121.108 99.9088C121.281 99.8852 121.507 99.8041 121.661 99.8446C121.577 100.034 121.481 100.139 121.371 100.284C121.264 100.426 120.948 100.902 120.805 100.96C120.731 100.987 120.658 100.96 120.588 100.96C120.298 100.963 119.889 100.98 119.589 100.977C119.346 100.973 119.052 100.916 118.806 100.977C118.759 101.433 118.726 101.95 118.819 102.346C118.986 102.298 119.092 102.207 119.239 102.156C119.689 102.008 120.381 102.457 120.705 102.204C120.745 102.173 120.785 102.072 120.834 102.062C121.261 101.974 120.691 103.015 120.515 103.099C120.225 103.238 119.752 103.194 119.412 103.13C119.296 103.106 119.072 103.042 118.933 103.099C118.666 103.207 118.773 104.106 118.773 104.498C118.773 104.495 118.773 104.539 118.773 104.546C118.753 104.776 118.763 104.87 118.686 105.002C118.636 105.087 118.619 105.151 118.583 105.252C118.829 105.252 119.009 105.178 119.222 105.157C119.615 105.12 119.968 105.245 120.282 105.299C120.515 105.34 120.918 105.397 121.094 105.252C121.218 105.147 121.294 104.769 121.427 104.701C121.474 104.678 121.561 104.688 121.601 104.701C121.677 104.725 121.74 104.796 121.73 104.904C121.72 105.009 121.004 106.367 120.948 106.398C120.948 106.401 120.948 106.408 120.948 106.411C120.938 106.418 120.904 106.428 120.904 106.428C120.854 106.445 120.771 106.449 120.701 106.445C120.052 106.391 119.372 106.175 118.743 106.114C118.53 106.094 118.276 106.094 118.06 106.114C117.893 106.127 117.27 106.347 117.161 106.273C116.984 106.151 117.264 105.925 117.32 105.881C117.387 105.823 117.497 105.708 117.524 105.614C117.587 105.387 117.537 104.884 117.524 104.688C117.47 103.812 117.53 102.839 117.537 101.92C117.537 101.714 117.5 101.457 117.567 101.274C117.637 101.071 117.89 100.957 118.003 100.771C117.557 100.588 117.234 101.264 117.001 101.038C116.921 100.96 116.911 100.892 116.987 100.801C117.234 100.497 117.52 100.223 117.77 99.919C117.81 99.8784 117.883 99.777 117.947 99.7669Z" fill="black"/>
<path d="M157.457 114.928H91.7059V74.8419H157.457V114.928ZM92.7051 113.914H156.458V75.8558H92.7051V113.914Z" fill="black"/>
<path d="M38.4384 60.8906C38.6482 60.8906 38.8447 60.9311 39.0346 61.0055L39.0579 56.4733C39.0379 52.1845 41.8892 47.9059 41.9158 47.8653L41.9391 47.8247C43.2315 45.486 43.2948 43.5833 43.3381 42.1942L43.3414 42.1368C43.3847 40.8052 43.3648 38.8281 43.3648 38.8112C43.3414 33.2043 44.8137 22.2812 44.8303 22.1933C44.877 21.9364 45.32 18.3202 45.3666 17.9248C45.4699 17.2759 45.2467 16.8906 45.1268 16.7351C45.0369 16.5425 45.2167 15.9713 45.35 15.7787C45.5964 15.4238 45.5165 15.1433 45.4466 15.0081C45.3366 14.7918 45.1135 14.6634 44.8503 14.6634H44.8004C44.8004 14.6194 44.8037 14.5721 44.8104 14.535L44.8137 14.4944C44.8736 13.3149 45.5531 13.2338 45.6964 13.2304H45.7363L45.783 13.2236C47.535 12.9195 52.2049 13.2034 52.2349 13.2067C53.1009 13.2912 53.2042 14.153 53.1975 14.5992L52.6346 14.3288L52.7245 15.221C52.7279 15.265 52.7279 15.3157 52.7312 15.3765C52.7379 15.6333 52.7445 16.0186 52.9277 16.4073C53.0043 16.5695 52.9943 16.6709 52.9743 16.6878C52.508 17.0325 52.578 17.6814 52.5946 17.7896C52.6013 17.8504 53.3141 24.0927 53.7771 29.054C54.2367 33.9917 54.0669 42.1368 54.0635 42.2213C54.0169 45.2934 55.0495 47.5375 55.0928 47.6321L55.1394 47.7132C55.5791 48.3283 56.3186 49.8255 56.3252 49.839C58.0939 53.408 57.9474 57.3859 57.944 57.4399L57.9074 61.1272C58.2405 60.9818 58.5769 60.8331 58.91 60.6878L58.9433 57.467C58.95 57.2946 59.1065 53.1917 57.2179 49.3828C57.1879 49.3186 56.4651 47.8619 55.9788 47.159C55.8489 46.8615 55.0228 44.854 55.0628 42.2381C55.0628 42.157 55.236 33.9546 54.7697 28.956C54.3067 23.9811 53.5939 17.7321 53.5839 17.6578C53.5772 17.6003 53.5806 17.5226 53.5906 17.482C54.0103 17.1508 54.1035 16.5628 53.8304 15.9747C53.7804 15.8665 53.7571 15.7483 53.7438 15.6266C53.7538 15.6198 53.7638 15.6164 53.7738 15.6097C53.9436 15.5117 54.1535 15.2988 54.1901 14.8493C54.2801 13.7204 53.847 12.3483 52.3182 12.1962C52.1216 12.1827 47.5517 11.9056 45.6631 12.2165C45.0369 12.23 43.9177 12.7032 43.8244 14.42C43.7911 14.6938 43.7778 15.1703 44.0209 15.4542C44.1009 15.5455 44.2008 15.6097 44.3107 15.6469C44.1242 16.12 43.9876 16.8095 44.3041 17.3029L44.2974 17.3299L44.354 17.3739C44.374 17.4144 44.4206 17.5361 44.3807 17.7794C44.1841 19.378 43.881 21.8249 43.8511 22.0074C43.7744 22.44 42.3488 33.3428 42.3688 38.8145C42.3688 38.8348 42.3888 40.7883 42.3455 42.0962L42.3422 42.1537C42.2989 43.4346 42.2422 45.1886 41.0798 47.3043C40.8333 47.676 38.0387 51.9682 38.0587 56.4666L38.0353 60.8838C38.0453 60.8838 38.0587 60.8838 38.0686 60.8838H38.4384V60.8906Z" fill="black"/>
<path d="M77.3897 18.1209C77.6495 17.9722 77.9293 17.837 78.2357 17.7221C78.259 17.712 78.2823 17.7086 78.3056 17.6984C78.1125 17.2219 77.7361 16.8163 77.0965 16.5933C76.91 16.5358 72.5332 15.1772 70.6213 15.0285C70.0118 14.8933 68.8126 15.086 68.323 16.7352C68.2264 16.9921 68.1032 17.4551 68.2764 17.7863C68.333 17.8945 68.4129 17.9823 68.5129 18.0432C68.2231 18.4589 67.93 19.0943 68.1232 19.6519L68.1098 19.6789L68.1565 19.7364C68.1665 19.7803 68.1831 19.9088 68.0899 20.1386C67.5303 21.6459 66.6676 23.9508 66.5943 24.1232C66.4177 24.5254 62.5106 34.7827 61.2649 40.1091C61.2616 40.1294 60.8285 42.0321 60.4821 43.2961L60.4655 43.3502C60.1291 44.5838 59.6661 46.2736 58.0473 48.0547C57.9407 48.1527 57.4877 48.5819 56.8848 49.2646C56.8948 49.2748 56.9114 49.2815 56.9214 49.2917C57.1013 49.41 57.2445 49.5688 57.3511 49.7648C57.4177 49.873 57.4677 49.9845 57.501 50.0994C58.2005 49.2883 58.7234 48.805 58.7367 48.7915L58.7701 48.7577C60.5654 46.7907 61.0684 44.9589 61.4348 43.6206L61.4514 43.5665C61.8045 42.2822 62.2408 40.3558 62.2442 40.3389C63.5199 34.8841 67.4803 24.6166 67.5136 24.5355C67.6169 24.299 68.8859 20.8889 69.0225 20.5171C69.2723 19.9088 69.1457 19.4829 69.0658 19.3038C69.0225 19.0976 69.3323 18.5839 69.5055 18.4285C69.8252 18.1412 69.8152 17.8505 69.7786 17.7018C69.722 17.4652 69.5355 17.2861 69.279 17.2253L69.2323 17.2152C69.2423 17.1712 69.259 17.1307 69.2723 17.0901L69.2856 17.0529C69.6154 15.9207 70.2949 16.0052 70.4348 16.0356L70.4748 16.0458L70.5214 16.0492C72.2934 16.1742 76.7701 17.5599 76.7968 17.57C77.1165 17.6714 77.2964 17.8809 77.3897 18.1209Z" fill="black"/>
<path d="M75.601 33.468C75.7276 32.5656 75.8575 31.6227 75.9841 30.6798C75.9374 30.6426 75.8941 30.6054 75.8442 30.5615C75.8375 30.5581 75.8342 30.5513 75.8308 30.5479L75.8275 30.5446C75.8275 30.5446 75.8275 30.5446 75.8308 30.5446C75.6776 30.4128 75.5411 30.2708 75.4145 30.1154C75.3745 30.068 75.3345 30.0207 75.2979 29.9734C75.2946 29.97 75.2912 29.9633 75.2879 29.9599C75.2546 29.916 75.2246 29.8686 75.1946 29.8247C75.1613 29.774 75.138 29.7166 75.1114 29.6625C74.9482 30.8893 74.7783 32.1465 74.6117 33.326C73.9156 38.2367 71.8638 46.1114 71.8438 46.1958C71.0877 49.17 71.5707 51.5966 71.594 51.7013L71.6206 51.7892C71.9038 52.4922 72.2768 54.1212 72.2801 54.1381C72.6132 55.588 72.6732 57.0277 72.6199 58.2681C72.7998 58.1227 73.0063 58.0112 73.2261 57.9368C73.3593 57.8929 73.4992 57.876 73.6391 57.876C73.6625 56.6661 73.5758 55.3007 73.2561 53.9116C73.2394 53.8441 72.8764 52.2522 72.5666 51.4546C72.51 51.1369 72.1702 48.9875 72.8131 46.4527C72.8297 46.3682 74.8982 38.4361 75.601 33.468Z" fill="black"/>
<path d="M38.7848 53.5465C38.7881 53.533 38.7948 53.5195 38.7981 53.5093C38.8281 53.4384 38.8581 53.364 38.8881 53.293C38.9147 53.2254 38.9447 53.1477 38.978 53.0767C38.9813 53.0666 38.988 53.0565 38.9913 53.0497C38.9947 53.0463 38.9947 53.0396 38.998 53.0362C38.998 53.0328 39.0013 53.0328 39.0013 53.0294C39.0047 53.026 39.2611 52.6881 39.2611 52.6881C39.2611 52.6881 39.2611 52.6847 39.2645 52.6847C39.2778 52.6712 39.2944 52.661 39.3078 52.6475C38.9614 52.0392 38.565 51.4308 38.1053 50.8394C38.062 50.7853 37.0661 49.501 36.4499 48.913C36.2633 48.6494 35.0576 46.8514 34.5746 44.2794C34.5613 44.1983 33.1023 36.1277 31.6534 31.3285C30.2178 26.5564 28.2792 20.5811 28.2559 20.5102C28.2392 20.4561 28.2259 20.3784 28.2292 20.3344C28.5723 19.9221 28.549 19.3273 28.166 18.8068C28.096 18.7088 28.046 18.5973 28.0127 18.4857C28.0227 18.479 28.0294 18.4722 28.0394 18.4621C28.1859 18.3303 28.3492 18.0768 28.2959 17.6307C28.1593 16.5086 27.4631 15.2514 25.9343 15.417C25.7411 15.444 21.2077 16.1065 19.4191 16.7959C18.8095 16.9379 17.8069 17.6273 18.0534 19.3307C18.0767 19.6044 18.1567 20.0776 18.4531 20.3006C18.5497 20.375 18.6596 20.4189 18.7729 20.4291C18.6863 20.9293 18.6896 21.6322 19.096 22.0513V22.0783L19.1626 22.1088C19.1892 22.1426 19.2592 22.2541 19.2692 22.5008C19.3957 24.1061 19.5823 26.5666 19.5856 26.7524C19.5956 27.1918 20.3617 38.1622 21.4675 43.519C21.4709 43.5393 21.8806 45.4488 22.0971 46.7398L22.1071 46.7973C22.3203 48.0613 22.61 49.7883 21.8906 52.1C21.7673 52.4042 20.7214 55.0505 20.5316 58.1733C20.878 58.1226 21.2077 58.2003 21.5275 58.3423C21.704 55.2161 22.8066 52.5056 22.8199 52.4718L22.8365 52.4278C23.6393 49.8728 23.3229 47.9971 23.093 46.6283L23.083 46.5709C22.8632 45.2562 22.4502 43.3264 22.4468 43.3095C21.3143 37.8209 20.5915 26.82 20.5882 26.7322C20.5815 26.4719 20.2984 22.8388 20.2684 22.4433C20.2385 21.7843 19.9453 21.4531 19.7988 21.3281C19.6755 21.1591 19.7355 20.5609 19.8288 20.3479C19.9986 19.9491 19.8654 19.6923 19.7721 19.574C19.6222 19.3847 19.3758 19.3036 19.1193 19.3577L19.0693 19.3678C19.0627 19.3239 19.056 19.28 19.0527 19.2394L19.0493 19.1989C18.8728 18.0295 19.5256 17.8132 19.6622 17.7828L19.7022 17.776L19.7455 17.7591C21.4009 17.1035 26.0342 16.4309 26.0608 16.4241C26.9235 16.3329 27.1967 17.1542 27.2799 17.5901L26.6737 17.4414L26.9369 18.2965C26.9502 18.337 26.9602 18.3877 26.9735 18.4452C27.0301 18.6953 27.1167 19.0704 27.3699 19.4152C27.4765 19.5605 27.4898 19.6619 27.4698 19.6788C27.0801 20.1114 27.2766 20.7332 27.3166 20.838C27.3366 20.8988 29.2718 26.864 30.7074 31.6327C32.1364 36.3778 33.5853 44.3876 33.5986 44.4721C34.1616 47.4901 35.6171 49.4774 35.6804 49.5619L35.7437 49.6295C36.2966 50.1432 37.3159 51.4579 37.3259 51.4714C37.8921 52.198 38.3585 52.9652 38.7448 53.7189C38.7515 53.6614 38.7648 53.604 38.7848 53.5465Z" fill="black"/>
<path d="M234.547 106.178H224.865V107.192H234.547V106.178Z" fill="#030202"/>
<path d="M262.303 106.186L253.806 106.247L253.814 107.261L262.311 107.2L262.303 106.186Z" fill="#030202"/>
<path d="M203.237 107.192H165.242C161.907 107.192 159.196 104.441 159.196 101.058V11.6116H268.183V101.224C268.183 102.42 267.836 103.576 267.177 104.563L266.347 103.995C266.894 103.177 267.18 102.217 267.18 101.224V12.6255H160.192V101.058C160.192 103.88 162.454 106.178 165.238 106.178H203.234V107.192H203.237Z" fill="#030202"/>
<path d="M268.183 12.6255H159.153V6.87664C159.153 5.47745 160.275 4.3385 161.654 4.3385H265.705C267.07 4.3385 268.183 5.46731 268.183 6.85298V12.6255ZM160.152 11.6116H267.187V6.85298C267.187 6.02496 266.524 5.3524 265.708 5.3524H161.651C160.825 5.3524 160.149 6.0351 160.149 6.87664V11.6116H160.152Z" fill="#030202"/>
<path d="M264.785 5.11922H163.453V4.28106C163.453 1.95922 165.315 0.0733643 167.6 0.0733643H260.308C262.773 0.0733643 264.782 2.10793 264.782 4.61227V5.11922H264.785ZM164.459 4.10532H263.749C263.506 2.40196 262.057 1.08727 260.312 1.08727H167.6C165.925 1.08727 164.549 2.42562 164.459 4.10532Z" fill="#030202"/>
<path d="M267.663 67.5046H251.821V68.5185H267.663V67.5046Z" fill="#030202"/>
<path d="M236.453 67.5046H159.782V68.5185H236.453V67.5046Z" fill="#030202"/>
<path d="M160.096 62.2797H159.319C158.267 62.2797 157.407 61.4111 157.407 60.3398V41.0046H160.096V62.2797ZM158.407 42.0219V60.3431C158.407 60.7757 158.7 61.1407 159.096 61.2388V42.0219H158.407Z" fill="#030202"/>
<path d="M158.407 48.4332H157.371C156.658 48.4332 156.079 47.8452 156.079 47.1219V42.3194C156.079 41.5961 156.658 41.0081 157.371 41.0081H158.407V48.4332ZM157.371 42.022C157.211 42.022 157.078 42.1538 157.078 42.3194V47.1219C157.078 47.2875 157.211 47.4193 157.371 47.4193H157.408V42.022H157.371Z" fill="#030202"/>
<path d="M268.053 62.523H267.277V41.2513H269.965V60.5865C269.961 61.6544 269.105 62.523 268.053 62.523ZM268.273 42.2652V61.4821C268.669 61.3807 268.962 61.0157 268.962 60.5865V42.2652H268.273Z" fill="#030202"/>
<path d="M269.998 48.6765H268.962V41.2513H269.998C270.711 41.2513 271.29 41.8394 271.29 42.5627V47.3652C271.29 48.0884 270.711 48.6765 269.998 48.6765ZM269.961 47.6626H269.998C270.161 47.6626 270.291 47.5274 270.291 47.3652V42.5627C270.291 42.4004 270.161 42.2652 269.998 42.2652H269.961V47.6626Z" fill="#030202"/>
<path d="M213.986 26.1847H213.26C211.541 26.1847 210.145 24.7652 210.145 23.0213V9.5837C210.145 7.83979 211.544 6.42371 213.26 6.42371H213.986C215.705 6.42371 217.1 7.84317 217.1 9.5837V23.0213C217.1 24.7652 215.705 26.1847 213.986 26.1847ZM213.26 7.43761C212.094 7.43761 211.145 8.40082 211.145 9.5837V23.0213C211.145 24.2042 212.094 25.1708 213.26 25.1708H213.986C215.152 25.1708 216.101 24.2076 216.101 23.0213V9.5837C216.101 8.40082 215.152 7.43761 213.986 7.43761H213.26Z" fill="#030202"/>
<path d="M225.034 33.4342C224.865 33.3836 224.741 33.3836 224.648 33.4613C224.235 33.779 223.872 33.9784 223.582 34.002C223.292 34.0257 223.073 34.1271 222.926 34.3231L222.636 34.5935C222.613 34.6442 222.49 34.7151 222.103 34.7658C222.03 34.8132 221.813 34.9382 221.91 35.0599C222.033 35.2322 222.153 35.4283 222.25 35.6243C222.346 36.0434 222.273 36.4861 221.887 36.9052C221.74 37.0775 221.547 37.1249 221.304 37.1012C221.181 37.0775 221.037 37.0032 221.037 36.8545C221.061 36.7058 221.111 36.5841 221.257 36.4861C221.5 36.165 221.5 35.8947 221.234 35.6479C221.041 35.5499 220.844 35.5499 220.651 35.6479C220.261 35.8203 220.215 36.165 220.458 36.4861C220.458 36.5841 220.431 36.7058 220.385 36.8545C220.288 37.0505 220.118 37.1012 219.898 37.0742C219.535 36.8781 219.365 36.5334 219.415 35.942C219.585 35.6716 219.778 35.4249 219.971 35.2289C219.755 34.8368 219.439 34.5394 219.052 34.3434C218.666 34.5394 218.349 34.8368 218.129 35.2289C218.323 35.4485 218.493 35.6716 218.592 35.942C218.639 36.2867 218.616 36.6314 218.349 36.9491C218.106 37.1215 217.866 37.2195 217.623 37.0708C217.453 36.8984 217.453 36.7024 217.55 36.4793C217.72 36.209 217.696 35.9386 217.453 35.7155C217.26 35.5668 217.017 35.5905 216.847 35.7155C216.604 35.9115 216.631 36.1583 216.824 36.4793C216.847 36.601 216.824 36.7261 216.8 36.797C216.607 37.2127 216.314 37.1654 215.978 37.0167C215.372 36.4253 215.395 35.8102 216.098 35.2221C216.244 35.0261 216.171 34.803 215.904 34.7557C215.398 34.607 214.958 34.3873 214.669 33.9682C214.379 33.3531 213.989 33.3531 213.699 33.9682C213.41 34.3603 212.947 34.607 212.464 34.7557C212.197 34.803 212.124 35.0261 212.247 35.1984C212.973 35.8135 212.973 36.4016 212.394 37.0167C212.054 37.1654 211.764 37.1891 211.571 36.797C211.521 36.699 211.521 36.601 211.548 36.4523C211.741 36.1583 211.764 35.8879 211.524 35.7155C211.331 35.5905 211.111 35.5668 210.895 35.7155C210.652 35.9115 210.652 36.209 210.822 36.4793C210.895 36.6754 210.895 36.8714 210.748 37.0437C210.482 37.1924 210.265 37.1181 210.022 36.9457C209.756 36.601 209.732 36.2833 209.779 35.9386C209.876 35.6446 210.045 35.4215 210.215 35.2018C210.022 34.8334 209.706 34.536 209.293 34.3163C208.93 34.536 208.613 34.8334 208.37 35.2018C208.59 35.4215 208.783 35.6446 208.93 35.9386C209.003 36.503 208.833 36.8748 208.467 37.0437C208.223 37.0944 208.054 37.0437 207.96 36.8241C207.937 36.7024 207.914 36.5773 207.914 36.4793C208.157 36.1583 208.084 35.8135 207.721 35.6412C207.527 35.5432 207.334 35.5432 207.114 35.6412C206.871 35.8879 206.848 36.1583 207.091 36.4793C207.238 36.5773 207.307 36.699 207.307 36.8241C207.334 36.9964 207.188 37.0708 207.041 37.0944C206.798 37.1181 206.628 37.0437 206.485 36.8984C206.072 36.4793 205.998 36.0366 206.098 35.5939C206.195 35.3978 206.315 35.2255 206.461 35.0531C206.558 34.9281 206.342 34.7827 206.245 34.7591C205.859 34.6847 205.735 34.634 205.735 34.5867L205.446 34.2927C205.276 34.1203 205.056 34.0223 204.789 33.9987C204.5 33.975 204.11 33.779 203.697 33.4579C203.6 33.3836 203.48 33.3836 203.334 33.4309C203.21 33.5525 203.187 33.6776 203.237 33.7993C204.743 35.1511 205.249 36.726 205.369 37.5372H223.016C223.136 36.726 223.645 35.1511 225.124 33.8229C225.178 33.681 225.154 33.5593 225.034 33.4342Z" fill="black"/>
<path d="M204.573 33.1875C205.036 33.3125 205.495 33.4579 205.882 33.7046C206.148 33.7789 206.415 33.7046 206.658 33.5559C207.724 32.6941 208.936 31.9809 210.365 31.5382C210.585 31.4638 210.705 31.5382 210.632 31.7579C210.075 32.2006 209.662 32.765 209.419 33.5052C209.419 33.7249 209.566 33.8262 209.879 33.7992C210.122 33.7249 210.315 33.7485 210.462 33.8499C210.678 33.9006 210.848 33.8262 210.995 33.4815C211.141 32.5217 211.721 31.8559 212.57 31.3895C212.957 31.3388 213.127 31.5112 213.08 31.8829C212.763 32.2277 212.524 32.596 212.427 32.9881C212.45 33.3565 212.644 33.4815 212.96 33.3801C213.153 33.3801 213.3 33.2078 213.42 32.8901C213.736 32.2986 214.559 32.2986 214.875 32.8901C214.995 33.2078 215.142 33.3801 215.312 33.3801C215.651 33.4781 215.845 33.3565 215.871 32.9881C215.775 32.5927 215.531 32.2243 215.215 31.8829C215.168 31.5145 215.335 31.3422 215.725 31.3895C216.574 31.8559 217.157 32.5217 217.3 33.4815C217.42 33.8262 217.617 33.9006 217.81 33.8499C217.98 33.7519 218.173 33.7282 218.416 33.7992C218.732 33.8262 218.876 33.7249 218.876 33.5052C218.632 32.7684 218.223 32.2006 217.663 31.7579C217.59 31.5382 217.71 31.4638 217.93 31.5382C219.359 31.9809 220.571 32.6941 221.64 33.5559C221.883 33.7046 222.15 33.7755 222.413 33.7046C222.803 33.4579 223.239 33.3125 223.722 33.1875C224.012 33.1368 224.112 32.9171 224.038 32.5724C223.819 32.2547 223.506 32.0553 223.069 32.008C222.899 32.035 222.753 31.9843 222.633 31.8593C222.366 31.3929 221.88 31.2205 221.227 31.3185C220.911 30.9501 220.474 30.8758 220.015 30.8994C219.602 30.4567 219.142 30.406 218.656 30.504C218.123 30.1593 217.637 30.0376 217.227 30.2573C216.547 29.9869 215.964 30.0849 215.481 30.406C215.312 30.0376 215.068 29.7673 214.682 29.6185V29.1758H215.312V28.5371H214.682V27.8746H213.616V28.5371H212.987V29.1758H213.616V29.6185C213.23 29.7673 212.96 30.0376 212.817 30.406C212.307 30.0883 211.751 29.9869 211.071 30.2573C210.635 30.0376 210.149 30.1593 209.642 30.504C209.156 30.406 208.696 30.4567 208.283 30.8994C207.797 30.8758 207.387 30.9501 207.071 31.3185C206.415 31.2205 205.932 31.3929 205.665 31.8593C205.542 31.9843 205.399 32.0316 205.229 32.008C204.793 32.0587 204.476 32.2547 204.26 32.5724C204.186 32.9171 204.283 33.1402 204.573 33.1875ZM214.172 29.9667C214.512 29.9667 214.779 30.3114 214.779 30.7541C214.779 31.1969 214.512 31.5652 214.172 31.5652C213.833 31.5652 213.543 31.1969 213.543 30.7541C213.543 30.3114 213.836 29.9667 214.172 29.9667Z" fill="black"/>
<path d="M205.349 40.4437H222.996V38.7708H205.349V40.4437ZM221.011 39.1391C221.277 39.1391 221.497 39.3588 221.497 39.6326C221.497 39.9029 221.277 40.126 221.011 40.126C220.744 40.126 220.524 39.9063 220.524 39.6326C220.524 39.3622 220.744 39.1391 221.011 39.1391ZM217.64 39.1391C217.906 39.1391 218.126 39.3588 218.126 39.6326C218.126 39.9029 217.906 40.126 217.64 40.126C217.373 40.126 217.157 39.9063 217.157 39.6326C217.154 39.3622 217.373 39.1391 217.64 39.1391ZM214.172 39.1391C214.439 39.1391 214.659 39.3588 214.659 39.6326C214.659 39.9029 214.439 40.126 214.172 40.126C213.906 40.126 213.689 39.9063 213.689 39.6326C213.689 39.3622 213.906 39.1391 214.172 39.1391ZM210.708 39.1391C210.975 39.1391 211.195 39.3588 211.195 39.6326C211.195 39.9029 210.978 40.126 210.708 40.126C210.442 40.126 210.222 39.9063 210.222 39.6326C210.222 39.3622 210.442 39.1391 210.708 39.1391ZM207.314 39.1391C207.581 39.1391 207.8 39.3588 207.8 39.6326C207.8 39.9029 207.584 40.126 207.314 40.126C207.048 40.126 206.831 39.9063 206.831 39.6326C206.828 39.3622 207.048 39.1391 207.314 39.1391Z" fill="black"/>
<path d="M222.996 37.9359H205.349V38.3787H222.996V37.9359Z" fill="black"/>
<path d="M202.524 41.9645C202.524 41.9645 200.163 41.8867 199.213 39.7238C199.213 39.7238 197.005 42.2349 193.581 43.1237L193.811 43.7422V51.7385L193.165 52.3941C193.165 52.3941 190.563 50.6942 190.347 48.1459C190.15 45.8274 190.493 44.0802 193.045 41.8394C193.045 41.8394 193.887 41.0756 195.18 40.6126V40.3422C191.069 40.3422 186.31 44.1275 186.31 48.5312C186.31 52.8943 189.577 55.4832 193.887 55.4832C193.887 55.4832 196.629 55.5102 198.657 54.378V55.4663C198.661 55.5541 198.491 55.5372 198.491 55.5372C197.904 55.5372 197.428 55.9327 197.428 56.4227C197.428 56.9094 197.904 57.3048 198.491 57.3048C199.077 57.3048 199.557 56.9094 199.557 56.4227V53.9589C199.557 53.9589 200.129 53.5128 200.319 53.3607C200.509 53.2053 200.359 52.8977 200.129 52.9755C199.9 53.0532 199.557 53.2053 199.557 53.2053V42.9716C199.553 42.9682 201.532 43.1609 202.524 41.9645ZM198.641 53.4351C195.216 53.8204 194.3 53.0498 194.3 53.0498L197.115 50.6164V42.272C197.115 41.8867 198.637 42.85 198.637 42.85V53.4351H198.641Z" fill="black"/>
<path d="M206.934 45.6315C206.934 45.3442 207.314 45.013 207.314 45.013C205.908 44.8609 203.663 43.8199 203.663 43.8199C202.408 44.9014 200.393 45.0163 200.393 45.0163C200.356 45.2495 200.696 45.672 200.696 45.672V50.7956C200.696 50.7956 200.582 50.853 200.229 51.3059C200.119 51.4479 200.049 51.5932 200.049 51.5932C202.864 51.9008 204.003 53.381 204.003 53.381C205.259 51.9548 207.387 51.6439 207.387 51.6439C207.044 51.4918 206.931 51.0051 206.931 50.9139V45.6315H206.934ZM204.653 51.2958C203.134 50.9882 202.827 50.6401 202.827 50.6401V45.3273C202.827 45.2124 204.653 45.9829 204.653 45.9829V51.2958Z" fill="black"/>
<path d="M221.037 45.6315C221.037 45.3442 221.417 45.013 221.417 45.013C220.011 44.8609 217.766 43.8199 217.766 43.8199C216.511 44.9014 214.496 45.0163 214.496 45.0163C214.459 45.2495 214.799 45.672 214.799 45.672V50.7956C214.799 50.7956 214.685 50.853 214.332 51.3059C214.222 51.4479 214.152 51.5932 214.152 51.5932C216.967 51.9008 218.106 53.381 218.106 53.381C219.362 51.9548 221.49 51.6439 221.49 51.6439C221.147 51.4918 221.034 51.0051 221.034 50.9139V45.6315H221.037ZM218.756 51.2958C217.234 50.9882 216.93 50.6401 216.93 50.6401V45.3273C216.93 45.2124 218.756 45.9829 218.756 45.9829V51.2958Z" fill="black"/>
<path d="M237.425 51.4783C236.866 51.387 236.666 50.8936 236.666 50.7449C236.666 50.5962 236.666 45.5165 236.666 45.5165V44.942C235.03 44.4012 233.435 43.8233 233.435 43.8233C231.916 44.7493 230.277 45.0197 230.277 45.0197C230.241 45.2529 230.58 45.6754 230.58 45.6754V51.0524C230.58 51.0524 230.52 51.1437 230.377 51.3363C230.317 51.4208 230.207 51.5526 230.174 51.5932C231.806 51.796 233.605 53.381 233.605 53.381L234.914 51.9548L236.393 53.381L238.145 51.5932C238.148 51.5932 237.988 51.5661 237.425 51.4783ZM234.384 51.2992C233.701 50.7584 232.749 50.4002 232.749 50.4002V45.3171C232.822 45.4118 234.384 45.9728 234.384 45.9728V51.2992Z" fill="black"/>
<path d="M211.768 51.5932C210.285 52.4617 209.882 53.381 209.882 53.381C209.882 53.381 209.479 52.4584 207.997 51.5932L208.686 51.5999C208.686 51.5999 208.686 46.1451 208.686 46.0235C208.686 45.726 208.4 45.0704 207.717 45.0197L209.639 43.8233C209.639 43.8233 210.855 44.5567 211.048 44.8676C211.048 44.8676 210.818 45.0501 212.377 44.0092L212.644 43.8165C212.644 43.8165 213.593 44.9082 214.332 45.0738C214.146 45.7734 213.453 46.6318 211.548 45.5638C211.548 45.5638 211.085 45.4591 211.085 45.77V51.5965H211.768V51.5932Z" fill="black"/>
<path d="M229.371 45.0163C228.618 44.7189 227.203 43.8165 227.203 43.8165L226.936 44.0092C225.378 45.0501 225.021 44.9048 225.021 44.9048C224.831 44.5972 223.612 43.8638 223.612 43.8638L221.76 45.0197C222.443 45.0704 222.729 45.726 222.729 46.0235C222.729 46.1485 222.729 51.5965 222.729 51.5965L222.04 51.5932C223.522 52.4584 223.929 53.3844 223.929 53.3844C223.929 53.3844 224.335 52.4617 225.814 51.5965H225.124V45.9761L226.11 45.405L226.87 45.9761V51.5965H226.18C227.662 52.4651 227.982 53.3878 227.982 53.3878C227.982 53.3878 228.385 52.4651 229.871 51.5965H229.181L229.175 45.7565C229.181 45.7497 229.561 45.094 229.371 45.0163Z" fill="black"/>
</svg>
