<svg width="432" height="291" viewBox="0 0 432 291" fill="none" xmlns="http://www.w3.org/2000/svg">
<path d="M423.285 204.937C423.314 204.814 423.324 204.682 423.315 204.556C423.036 200.291 421.662 197.282 420.591 195.538C421.339 195.116 421.918 194.397 422.131 193.494C422.539 191.784 421.519 190.01 419.794 189.603L390.053 182.588C388.329 182.181 386.623 183.313 386.224 185.024C386.011 185.927 386.207 186.829 386.688 187.542C384.952 188.623 382.377 190.701 380.221 194.391C380.157 194.501 380.107 194.622 380.078 194.745L362.075 271.069C362.025 271.278 362.031 271.5 362.091 271.704L363.418 276.232C364.279 279.173 366.659 281.435 369.629 282.136L393.579 287.785C396.55 288.486 399.69 287.525 401.775 285.279L404.984 281.822C405.128 281.665 405.233 281.469 405.282 281.261L423.285 204.937ZM388.635 185.526C388.725 185.143 389.107 184.906 389.485 184.996L419.226 192.011C420.127 192.223 419.786 193.671 418.885 193.459L389.144 186.444C388.724 186.345 388.535 185.924 388.635 185.526ZM399.977 283.594C398.493 285.192 396.259 285.875 394.146 285.377L370.197 279.728C368.085 279.229 366.391 277.62 365.778 275.528L365.05 273.043L388.663 278.613C389.325 278.769 389.987 278.356 390.144 277.691C390.301 277.026 389.892 276.361 389.231 276.205L364.753 270.431L382.188 196.515L387.561 197.782C388.223 197.938 388.885 197.526 389.042 196.861C389.199 196.196 388.791 195.531 388.129 195.375L383.253 194.224C384.61 192.298 386.031 191.031 387.068 190.266C388.004 189.574 388.774 189.178 389.175 188.993L417.717 195.726C417.995 196.072 418.506 196.769 419.034 197.805C419.619 198.952 420.324 200.721 420.678 203.051L392.919 196.504C392.267 196.35 391.593 196.769 391.438 197.425C391.283 198.081 391.699 198.757 392.351 198.911L420.606 205.576L403.171 279.491L394.021 277.333C393.359 277.177 392.697 277.59 392.54 278.255C392.383 278.92 392.791 279.586 393.453 279.742L401.738 281.696L399.977 283.594Z" fill="#111E47"/>
<path d="M381.831 250.241C382.03 249.81 382.331 249.54 382.835 249.519C384.621 249.444 386.406 249.358 388.193 249.273C388.745 249.246 389.165 248.998 389.401 248.482C389.537 248.186 389.562 247.867 389.584 247.548C389.605 247.246 389.632 246.946 389.658 246.63C389.739 246.681 389.749 246.749 389.775 246.803C390.346 247.971 391.01 249.078 391.931 250.008C392.479 250.561 393.089 251.019 393.876 251.178C394.755 251.356 395.476 251.035 396.139 250.486C395.47 249.126 394.81 247.785 394.148 246.441C393.278 246.945 392.422 246.961 391.571 246.484C390.682 245.984 390.093 245.2 389.587 244.339C389.583 244.333 389.595 244.318 389.604 244.296L389.73 244.326L397.183 246.084C397.219 246.093 397.257 246.101 397.294 246.112C398.042 246.335 398.807 246.439 399.587 246.395C400.148 246.363 400.678 246.229 401.132 245.865C401.262 245.76 401.283 245.67 401.209 245.514C400.757 244.57 400.317 243.622 399.872 242.675C399.705 242.32 399.537 241.967 399.367 241.609C398.712 242.111 398.502 242.156 397.706 241.969L394.282 241.161C392.196 240.669 390.11 240.175 388.024 239.688C387.894 239.657 387.812 239.603 387.758 239.479C387.647 239.228 387.514 238.987 387.405 238.736C387.007 237.815 386.643 236.887 386.661 235.854C386.676 235.001 387.001 234.34 387.78 233.957C388.249 233.726 388.735 233.594 389.269 233.764C389.643 233.884 390.036 233.942 390.42 234.032C392.129 234.431 393.838 234.83 395.547 235.232C395.604 235.245 395.674 235.236 395.713 235.295C395.712 235.308 395.713 235.316 395.71 235.32C395.682 235.354 395.654 235.389 395.625 235.423C395.067 236.114 394.698 236.882 394.761 237.791C394.856 239.131 395.741 239.93 396.742 240.652C396.812 240.537 396.778 240.433 396.773 240.335C396.75 239.889 396.806 239.456 396.963 239.037C397.223 238.348 397.682 237.811 398.243 237.352C398.604 237.057 398.998 236.814 399.41 236.588C399.394 236.553 399.385 236.53 399.374 236.509C398.581 235.055 397.771 233.607 396.875 232.212C396.614 231.805 396.348 231.399 396.019 231.04C395.927 230.942 395.828 230.862 395.689 230.827C393.64 230.324 391.574 229.887 389.533 229.347C388.493 229.071 387.464 229.24 386.475 229.641C385.252 230.137 384.261 230.957 383.367 231.914C383.242 232.049 383.229 232.146 383.301 232.308C384.28 234.553 385.252 236.801 386.223 239.049C386.252 239.113 386.301 239.177 386.288 239.274C385.954 239.195 385.63 239.128 385.313 239.042C384.531 238.831 383.742 238.846 382.952 238.975C382.348 239.073 381.785 239.279 381.313 239.694C381.214 239.781 381.184 239.849 381.247 239.982C381.833 241.214 382.41 242.451 382.992 243.685C383.015 243.732 383.019 243.799 383.095 243.814C383.106 243.782 383.118 243.754 383.128 243.724C383.284 243.253 383.613 242.862 384.33 243.044C385.569 243.36 386.816 243.638 388.061 243.931C388.288 243.985 388.356 244.063 388.365 244.295C388.373 244.468 388.324 244.625 388.204 244.75C387.983 244.978 387.722 245.126 387.399 245.137C385.935 245.19 384.472 245.237 383.009 245.297C382.294 245.326 381.573 245.295 380.868 245.462C380.47 245.556 380.082 245.676 379.794 246.001C379.71 246.096 379.686 246.182 379.745 246.309C380.21 247.337 380.668 248.369 381.128 249.4C381.309 249.805 381.489 250.211 381.693 250.667C381.732 250.485 381.775 250.361 381.831 250.241Z" fill="#111E47"/>
<path d="M389.327 272.416C389.579 271.844 390.007 271.42 390.471 271.026C390.773 270.771 391.102 270.554 391.436 270.331C390.998 269.417 390.565 268.513 390.124 267.595C390.927 267.498 391.647 267.257 392.284 266.768C391.625 265.332 390.97 263.905 390.31 262.466C389.824 262.873 389.322 262.96 388.721 262.814C385.911 262.128 383.091 261.476 380.275 260.811C379.996 260.745 379.717 260.691 379.429 260.679C378.264 260.626 377.25 261.019 376.334 261.72C376.215 261.812 376.184 261.883 376.257 262.032C376.841 263.244 377.415 264.462 377.994 265.677C378.019 265.73 378.024 265.804 378.104 265.822C378.185 265.647 378.278 265.48 378.403 265.335C378.632 265.069 378.903 264.939 379.265 265.025C382.353 265.758 385.442 266.484 388.531 267.215C388.581 267.227 388.647 267.215 388.68 267.288C387.911 268.16 387.313 269.115 387.421 270.34C387.53 271.564 388.24 272.433 389.201 273.197C389.186 272.89 389.226 272.647 389.327 272.416Z" fill="#111E47"/>
<path d="M389.932 261.451C391.194 260.94 392.318 260.195 393.399 259.376C393.752 259.108 394.102 258.835 394.454 258.563C394.425 258.505 394.407 258.465 394.386 258.425C393.844 257.451 393.305 256.475 392.758 255.502C392.251 254.603 391.749 253.7 391.19 252.832C391.102 252.694 390.991 252.622 390.83 252.584C388.781 252.105 386.729 251.63 384.685 251.132C383.986 250.962 383.294 250.917 382.59 251.05C380.746 251.397 379.349 252.483 378.093 253.809C378.114 253.861 378.129 253.903 378.146 253.942C378.992 255.786 379.843 257.626 380.675 259.476C380.788 259.727 380.927 259.87 381.197 259.881C381.209 259.882 381.222 259.882 381.264 259.885C381.235 259.803 381.212 259.739 381.188 259.673C380.955 259.018 380.754 258.354 380.695 257.654C380.665 257.296 380.685 256.946 380.862 256.613C381.45 255.509 382.584 255.046 383.831 255.401C383.983 255.444 384.054 255.511 384.1 255.665C384.524 257.089 385.064 258.463 385.859 259.723C386.28 260.39 386.767 260.998 387.433 261.441C387.923 261.768 388.444 261.891 389.025 261.735C389.331 261.655 389.637 261.569 389.932 261.451ZM384.84 255.653L390.113 256.897C389.826 257.53 388.497 258.043 387.484 257.987C386.087 257.908 385.121 256.548 384.84 255.653Z" fill="#111E47"/>
<path d="M396.963 229.889C397.854 229.6 398.666 229.15 399.456 228.655C400.321 228.112 401.116 227.471 401.945 226.837C401.51 226.054 401.084 225.284 400.655 224.517C400.03 223.399 399.406 222.28 398.73 221.19C398.624 221.021 398.501 220.915 398.293 220.867C396.298 220.406 394.305 219.933 392.312 219.462C392.133 219.419 391.957 219.363 391.776 219.328C390.853 219.146 389.957 219.277 389.082 219.597C387.721 220.095 386.629 220.98 385.642 222.017C385.552 222.111 385.612 222.18 385.647 222.254C386.501 224.122 387.357 225.988 388.213 227.855C388.33 228.111 388.421 228.162 388.741 228.147C388.713 228.066 388.687 227.989 388.659 227.913C388.439 227.306 388.27 226.688 388.185 226.046C388.059 225.103 388.472 224.425 389.222 223.926C389.845 223.511 390.535 223.507 391.243 223.655C391.442 223.696 391.534 223.778 391.594 223.979C392.015 225.397 392.56 226.763 393.351 228.018C393.737 228.63 394.186 229.188 394.773 229.623C395.325 230.03 395.922 230.203 396.598 229.994C396.717 229.956 396.842 229.929 396.963 229.889ZM392.32 223.941L397.627 225.193C396.873 226.041 395.937 226.335 394.86 226.248C393.542 226.141 392.639 224.869 392.32 223.941Z" fill="#111E47"/>
<path d="M399.383 217.006C399.564 216.644 399.687 216.26 399.789 215.854C399.806 215.881 399.816 215.89 399.817 215.9C399.824 215.955 399.829 216.012 399.833 216.068C399.891 216.725 400.07 217.329 400.387 217.871C400.908 218.761 401.667 219.287 402.567 219.605C403.62 219.977 404.687 219.991 405.765 219.557C406.963 219.074 407.795 218.134 408.143 216.781C408.726 214.515 409.156 212.539 409.697 210.262C409.727 210.134 409.707 210.053 409.628 209.965C408.692 208.922 407.758 207.876 406.823 206.832C406.79 206.796 406.768 206.736 406.69 206.749C406.677 206.806 406.661 206.867 406.648 206.928C406.531 207.446 406.418 207.964 406.296 208.481C405.887 210.224 405.544 211.655 405.14 213.399C404.967 214.145 404.54 214.574 403.888 214.749C403.195 214.934 402.538 214.818 401.903 214.552C401.187 214.251 400.597 213.777 400.241 212.999C399.912 212.279 399.86 211.501 399.99 210.69C400.074 210.662 400.136 210.696 400.2 210.711C401.63 211.048 402.638 211.285 404.068 211.623C404.107 211.632 404.147 211.635 404.183 211.651C404.308 211.702 404.36 211.64 404.376 211.503C404.397 211.319 404.43 211.136 404.444 210.953C404.534 209.818 404.335 208.789 403.665 207.947C403.126 207.273 402.422 206.883 401.635 206.693C398.882 206.031 396.548 205.488 393.792 204.838C393.584 204.789 393.381 204.72 393.184 204.634C392.067 204.148 391.199 203.32 390.511 202.245C390.483 202.2 390.463 202.142 390.405 202.12C390.401 202.146 390.397 202.159 390.397 202.17C390.325 204.184 390.11 206.179 389.463 208.115C389.204 208.887 388.87 209.618 388.361 210.238C388.266 210.355 388.244 210.459 388.262 210.599C388.401 211.731 388.659 212.823 389.058 213.861C389.968 216.224 391.385 218 393.655 218.771C394.72 219.133 395.818 219.24 396.945 218.96C397.99 218.698 398.835 218.092 399.383 217.006ZM393.557 213.901C392.794 213.663 392.05 213.373 391.351 212.968C391.072 212.807 390.805 212.621 390.568 212.39C390.461 212.284 390.36 212.172 390.285 212.01C390.778 211.653 391.198 211.235 391.539 210.722C392.025 209.995 392.179 209.173 392.207 208.313C392.219 207.92 392.207 207.53 392.168 207.142C392.163 207.082 392.162 207.02 392.133 206.985C392.268 207.206 392.406 207.427 392.538 207.651C392.945 208.337 393.453 208.895 394.14 209.227C394.283 209.296 394.431 209.347 394.585 209.384C396.014 209.72 397.442 210.06 398.873 210.391C399.01 210.424 399.064 210.484 399.075 210.644C399.126 211.371 399.089 212.088 398.799 212.777C398.376 213.78 397.637 214.224 396.706 214.307C395.619 214.403 394.577 214.218 393.557 213.901Z" fill="#111E47"/>
<g clip-path="url(#clip0)">
<path d="M402.807 54.404C402.593 49.7377 400.052 45.5585 396.011 43.2254C391.969 40.8918 387.079 40.781 382.932 42.9289L372.936 48.1029C371.277 48.9615 369.967 50.3027 369.145 51.981C368.324 53.6592 368.07 55.5168 368.409 57.3535C368.75 59.1897 369.653 60.8318 371.021 62.1022C372.39 63.3726 374.094 64.1516 375.95 64.3547L376.074 64.3685C380.726 64.9133 384.973 67.3841 387.744 71.1642C388.459 72.1393 389.351 72.9385 390.375 73.53C390.932 73.8514 391.529 74.1115 392.157 74.3058C393.94 74.8552 395.814 74.8163 397.575 74.1936C399.335 73.5704 400.818 72.4209 401.861 70.8705C402.904 69.3193 403.41 67.5144 403.325 65.6478L402.807 54.404Z" fill="#111E47"/>
<path d="M379.098 40.7015C381.009 41.0035 382.924 40.4274 384.494 39.08C385.987 37.7987 386.989 35.9566 387.314 33.8934C387.639 31.8311 387.252 29.7716 386.227 28.0942C385.15 26.3323 383.505 25.1965 381.595 24.8979C377.756 24.2928 374.071 27.3457 373.38 31.7056C372.834 35.1778 374.35 38.4445 376.93 39.9341C377.589 40.3145 378.316 40.5789 379.098 40.7015Z" fill="#111E47"/>
<path d="M393.009 40.1577C396.935 42.4247 402.234 40.6253 404.819 36.1473C407.405 31.6675 406.315 26.1794 402.388 23.9125C398.462 21.6456 393.164 23.4465 390.578 27.9253C387.993 32.4033 389.084 37.8914 393.009 40.1577Z" fill="#111E47"/>
<path d="M404.155 49.2534C404.643 49.8031 405.204 50.2547 405.818 50.609C408.681 52.262 412.676 51.7866 415.592 49.1948C417.271 47.7034 418.358 45.7282 418.651 43.6342C418.959 41.4419 418.373 39.3838 417 37.8376C415.627 36.2915 413.653 35.4655 411.442 35.5132C409.329 35.5585 407.241 36.4059 405.563 37.8978C402.023 41.0447 401.391 46.1385 404.155 49.2534Z" fill="#111E47"/>
<path d="M419.698 56.9632L419.698 56.9617C418.146 53.3954 413.595 51.9257 409.552 53.6851C405.51 55.4475 403.481 59.7816 405.027 63.3462C405.591 64.646 406.554 65.6687 407.747 66.357C409.825 67.5568 412.599 67.7432 415.172 66.6252C419.215 64.8628 421.244 60.5287 419.698 56.9632Z" fill="#111E47"/>
</g>
<g clip-path="url(#clip1)">
<path d="M149.492 206.609C147.01 205.524 144.184 205.774 141.934 207.277C139.684 208.781 138.372 211.297 138.426 214.005L138.554 220.532C138.575 221.614 138.937 222.64 139.599 223.498C140.261 224.355 141.162 224.964 142.205 225.258C143.248 225.552 144.333 225.504 145.345 225.117C146.357 224.731 147.199 224.045 147.781 223.131L147.82 223.07C149.296 220.79 151.67 219.215 154.347 218.742C155.038 218.621 155.682 218.362 156.253 217.981C156.563 217.773 156.851 217.529 157.113 217.253C157.856 216.466 158.317 215.481 158.444 214.405C158.572 213.33 158.354 212.264 157.815 211.324C157.275 210.383 156.466 209.657 155.473 209.223L149.492 206.609Z" fill="#111E47"/>
<path d="M136.284 215.428C136.931 214.511 137.123 213.367 136.824 212.205C136.541 211.1 135.839 210.106 134.849 209.408C133.86 208.71 132.689 208.383 131.554 208.486C130.361 208.595 129.348 209.159 128.703 210.076C127.404 211.918 128.047 214.618 130.138 216.095C131.804 217.27 133.892 217.319 135.329 216.359C135.696 216.114 136.02 215.803 136.284 215.428Z" fill="#111E47"/>
<path d="M139.568 208.052C141.754 206.591 142.177 203.373 140.511 200.88C138.844 198.386 135.709 197.546 133.523 199.007C131.337 200.468 130.915 203.686 132.582 206.18C134.248 208.673 137.383 209.513 139.568 208.052Z" fill="#111E47"/>
<path d="M147.158 204.587C147.569 204.474 147.948 204.298 148.29 204.069C149.884 203.004 150.661 200.804 150.061 198.622C149.715 197.366 148.966 196.295 147.953 195.605C146.891 194.883 145.67 194.659 144.514 194.977C143.357 195.295 142.422 196.11 141.879 197.273C141.361 198.383 141.266 199.687 141.612 200.942C142.341 203.591 144.829 205.226 147.158 204.587Z" fill="#111E47"/>
<path d="M155.155 198.479L155.154 198.478C152.901 198.371 150.969 200.361 150.848 202.916C150.728 205.47 152.462 207.637 154.713 207.747C155.533 207.787 156.313 207.548 156.976 207.105C158.133 206.331 158.942 204.936 159.02 203.31C159.14 200.756 157.406 198.589 155.155 198.479Z" fill="#111E47"/>
</g>
<g clip-path="url(#clip2)">
<path d="M30.011 21.0807C27.1989 19.8515 23.998 20.1347 21.4492 21.8382C18.8998 23.5421 17.414 26.3914 17.4748 29.4594L17.6198 36.8531C17.644 38.0798 18.0536 39.2419 18.804 40.2134C19.5544 41.1849 20.5751 41.8745 21.7561 42.2079C22.9372 42.5403 24.1672 42.4855 25.3133 42.0481C26.4595 41.6108 27.4136 40.833 28.0724 39.7984L28.1167 39.729C29.7892 37.1459 32.4789 35.3612 35.5116 34.8263C36.2938 34.6884 37.0238 34.3951 37.67 33.9632C38.0211 33.7285 38.3479 33.4522 38.6447 33.1387C39.4866 32.2474 40.0082 31.1315 40.1528 29.913C40.2968 28.6949 40.0502 27.487 39.4395 26.4222C38.8285 25.3567 37.9117 24.5344 36.7871 24.0423L30.011 21.0807Z" fill="#111E47"/>
<path d="M15.0483 31.0716C15.7815 30.0332 15.9985 28.7369 15.6604 27.4206C15.3392 26.1683 14.5447 25.0429 13.4233 24.2519C12.3024 23.4615 10.9765 23.0909 9.69025 23.2076C8.33908 23.3304 7.19166 23.9702 6.46105 25.0086C4.98908 27.0953 5.71754 30.1539 8.08617 31.8273C9.97353 33.1582 12.339 33.2137 13.9663 32.126C14.382 31.8482 14.7491 31.4965 15.0483 31.0716Z" fill="#111E47"/>
<path d="M18.7693 22.7159C21.2458 21.0607 21.7247 17.4157 19.8369 14.5913C17.9484 11.7657 14.3974 10.8142 11.9209 12.4694C9.44436 14.1247 8.96653 17.7698 10.8547 20.5948C12.7424 23.4192 16.2934 24.3707 18.7693 22.7159Z" fill="#111E47"/>
<path d="M27.3673 18.7901C27.833 18.6622 28.2621 18.4627 28.6491 18.2041C30.455 16.9971 31.3354 14.5049 30.6553 12.0332C30.2643 10.6105 29.4158 9.39664 28.2672 8.61521C27.0647 7.79713 25.6818 7.54421 24.3716 7.90433C23.0615 8.26445 22.0015 9.18745 21.3871 10.5045C20.8 11.7628 20.6929 13.2391 21.0846 14.6614C21.9106 17.6617 24.7287 19.5139 27.3673 18.7901Z" fill="#111E47"/>
<path d="M36.4259 11.8705L36.4249 11.8703C33.8726 11.7486 31.6845 14.0033 31.5467 16.897C31.411 19.7911 33.3756 22.2458 35.9253 22.3701C36.8551 22.4156 37.7377 22.1449 38.4895 21.6424C39.8004 20.7662 40.7162 19.1854 40.8049 17.3443C40.9407 14.4502 38.976 11.9955 36.4259 11.8705Z" fill="#111E47"/>
</g>
<defs>
<clipPath id="clip0">
<rect width="55.976" height="48.979" fill="white" transform="translate(383.49 13) rotate(30)"/>
</clipPath>
<clipPath id="clip1">
<rect width="32.4641" height="28.4061" fill="white" transform="translate(123 206.04) rotate(-33.7574)"/>
</clipPath>
<clipPath id="clip2">
<rect width="36.7766" height="32.1795" fill="white" transform="translate(0 20.436) rotate(-33.7574)"/>
</clipPath>
</defs>
</svg>
