<svg width="30" height="70" viewBox="0 0 30 70" fill="none" xmlns="http://www.w3.org/2000/svg">
<path d="M29.9896 9.60793C29.9896 9.52192 29.9756 9.43331 29.95 9.35118C29.105 6.57085 27.7349 4.79297 26.7603 3.8054C27.1869 3.40895 27.4558 2.84241 27.4558 2.2112C27.459 1.01538 26.5131 0 25.3161 0H4.67348C3.47653 0 2.53059 1.01538 2.53378 2.2112C2.53378 2.84241 2.80268 3.40895 3.22935 3.8054C2.2553 4.79297 0.884621 6.57085 0.0396004 9.35118C0.0140517 9.43396 0 9.52192 0 9.60793V62.9586C0 63.1041 0.0383229 63.2503 0.10922 63.3764L1.68365 66.1671C2.70624 67.9799 4.62174 69.1065 6.68352 69.1065H23.3067C25.3685 69.1065 27.284 67.9799 28.3066 66.1671L29.8804 63.3764C29.9513 63.2503 29.9896 63.1041 29.9896 62.9586V9.60793Z" fill="#DCDCDC"/>
<path d="M7.1626 45.8816C7.22903 45.5504 7.39318 45.3144 7.73617 45.2174C8.95292 44.8733 10.1671 44.5221 11.382 44.1709C11.7575 44.0623 12.006 43.8223 12.0845 43.4253C12.1299 43.1989 12.0948 42.9732 12.0584 42.7488C12.0239 42.5366 11.9938 42.3239 11.9606 42.1007C12.0245 42.1234 12.0418 42.168 12.0692 42.2016C12.6524 42.9176 13.2885 43.5759 14.0722 44.07C14.5385 44.3637 15.0322 44.581 15.6 44.5622C16.2336 44.5422 16.6775 44.2013 17.0448 43.713C16.3639 42.8801 15.692 42.0593 15.0188 41.236C14.5021 41.7276 13.9151 41.8789 13.2528 41.6875C12.561 41.487 12.0277 41.0388 11.5404 40.5259C11.5372 40.5227 11.5423 40.5098 11.5448 40.4936H11.6362H17.048C17.0748 40.4936 17.1023 40.4929 17.1291 40.4949C17.6803 40.5266 18.2232 40.4742 18.7527 40.3164C19.1328 40.2032 19.4758 40.0221 19.7293 39.6968C19.8021 39.6024 19.8015 39.5371 19.7255 39.4413C19.2618 38.8619 18.8051 38.2759 18.3459 37.6932C18.1741 37.4746 18.0003 37.258 17.8253 37.0374C17.4568 37.4921 17.3188 37.5574 16.7414 37.5574H14.2555C12.7405 37.5574 11.2261 37.5561 9.71172 37.5593C9.61783 37.56 9.55204 37.5354 9.49455 37.4584C9.37767 37.3026 9.24737 37.1577 9.13176 37.0012C8.70829 36.4282 8.30782 35.8448 8.15197 35.1263C8.02359 34.5333 8.13984 34.0223 8.61313 33.6291C8.89799 33.3924 9.21096 33.2217 9.60633 33.2521C9.88289 33.2734 10.1633 33.2501 10.4418 33.2488C11.6822 33.2456 12.9225 33.2437 14.1629 33.2424C14.2044 33.2424 14.2517 33.2249 14.2868 33.2598C14.2881 33.2682 14.2907 33.2741 14.2888 33.2773C14.2753 33.3057 14.2613 33.3342 14.2472 33.3627C13.9751 33.9324 13.8461 34.5255 14.0377 35.1444C14.3207 36.057 15.0584 36.4664 15.8638 36.8033C15.8945 36.7121 15.8536 36.6461 15.8338 36.5789C15.7463 36.2736 15.7137 35.9645 15.7546 35.6489C15.821 35.1289 16.0497 34.682 16.3614 34.2726C16.5613 34.0094 16.7932 33.7766 17.0403 33.5522C17.0237 33.5308 17.0142 33.5166 17.0027 33.5036C16.2209 32.6254 15.4295 31.7555 14.587 30.9355C14.3411 30.6962 14.0927 30.4582 13.8084 30.2641C13.7299 30.2105 13.6481 30.1717 13.5472 30.1704C12.0558 30.1568 10.5638 30.1917 9.07172 30.151C8.31229 30.1303 7.63142 30.4148 7.01634 30.8546C6.25499 31.3979 5.70697 32.128 5.2471 32.9371C5.18259 33.0509 5.19089 33.1195 5.26562 33.2204C6.30289 34.6154 7.33633 36.0143 8.36914 37.4125C8.39916 37.4526 8.44323 37.4888 8.45025 37.558C8.20754 37.558 7.97441 37.5639 7.74192 37.5568C7.17027 37.5386 6.62991 37.677 6.10745 37.8956C5.70761 38.0625 5.35376 38.2966 5.09636 38.6614C5.04207 38.7383 5.03249 38.7901 5.09827 38.8722C5.70122 39.6302 6.29906 40.392 6.89945 41.152C6.92245 41.1804 6.93586 41.2263 6.99143 41.2244C6.99398 41.2005 6.99718 41.1791 6.99909 41.1571C7.03039 40.8053 7.19262 40.4807 7.71509 40.4897C8.61824 40.5059 9.52138 40.4942 10.4252 40.4942C10.5906 40.4942 10.65 40.5376 10.6941 40.6967C10.7273 40.815 10.7196 40.9321 10.6564 41.0381C10.542 41.2315 10.3862 41.377 10.1665 41.4378C9.16817 41.714 8.16922 41.9856 7.17218 42.2663C6.68548 42.4034 6.18409 42.4998 5.72741 42.73C5.46873 42.86 5.22091 43.0068 5.07592 43.2791C5.03313 43.3586 5.03121 43.422 5.09189 43.5016C5.57923 44.1373 6.06082 44.7776 6.54497 45.4166C6.7353 45.6675 6.92564 45.9191 7.13961 46.2023C7.13386 46.0659 7.14408 45.9734 7.1626 45.8816Z" fill="#24388D"/>
<path d="M15.9159 60.0173C15.9958 59.5808 16.2219 59.2167 16.4773 58.8674C16.6434 58.6411 16.835 58.4367 17.0286 58.2278C16.5789 57.6658 16.1344 57.1109 15.6821 56.5463C16.2187 56.3484 16.6747 56.0645 17.0337 55.6208C16.3477 54.7335 15.6655 53.852 14.9783 52.9634C14.7094 53.3249 14.3785 53.4672 13.9416 53.464C11.8971 53.4484 9.85195 53.4575 7.80679 53.4568C7.60432 53.4568 7.40312 53.4652 7.20384 53.5034C6.39395 53.6567 5.75971 54.0952 5.24362 54.7303C5.17592 54.8137 5.16698 54.8674 5.24107 54.9592C5.84018 55.7036 6.43227 56.4525 7.02756 57.1995C7.05374 57.2318 7.06907 57.2829 7.1272 57.2823C7.15466 57.1478 7.19107 57.0171 7.25366 56.8955C7.36799 56.6744 7.53406 56.5398 7.79657 56.5405C10.0397 56.5431 12.2823 56.5418 14.5248 56.5431C14.5612 56.5431 14.6053 56.5243 14.6398 56.5696C14.2527 57.2991 13.9953 58.0584 14.2693 58.8901C14.5427 59.7205 15.1718 60.2062 15.9574 60.5781C15.8961 60.3685 15.884 60.1939 15.9159 60.0173Z" fill="#24388D"/>
<path d="M14.5534 52.322C15.339 51.762 15.9918 51.0622 16.6017 50.3184C16.8017 50.0746 16.9978 49.8282 17.1958 49.5831C17.1664 49.5475 17.1478 49.5223 17.1268 49.4984C16.596 48.9118 16.0665 48.3233 15.5325 47.7393C15.0382 47.1992 14.5464 46.656 14.0207 46.1457C13.937 46.0642 13.8495 46.0325 13.7326 46.0332C12.2451 46.0364 10.7575 46.0429 9.26993 46.0319C8.76215 46.028 8.27801 46.1101 7.81621 46.3164C6.60393 46.8584 5.81895 47.8382 5.17065 48.9629C5.19301 48.9952 5.20962 49.0224 5.22878 49.047C6.10957 50.1859 6.99291 51.3222 7.86603 52.4669C7.9842 52.6221 8.103 52.6978 8.29014 52.6622C8.29908 52.6609 8.30803 52.659 8.33677 52.6532C8.30292 52.6014 8.27673 52.56 8.25054 52.5193C7.98356 52.1034 7.73701 51.6766 7.58372 51.2012C7.50516 50.9574 7.46173 50.7123 7.52943 50.4523C7.7549 49.5915 8.4594 49.0858 9.37532 49.1278C9.48709 49.133 9.54649 49.1679 9.6027 49.2668C10.1252 50.1839 10.7198 51.0473 11.4709 51.7911C11.8682 52.1843 12.3019 52.5258 12.832 52.7243C13.2223 52.8705 13.6004 52.8705 13.9753 52.668C14.1734 52.5613 14.3694 52.4527 14.5534 52.322ZM10.1105 49.1381H13.9389C13.8438 49.6232 13.0134 50.1962 12.307 50.323C11.3336 50.4963 10.449 49.7118 10.1105 49.1381Z" fill="#24388D"/>
<path d="M14.2691 29.3095C14.835 28.9641 15.3205 28.5198 15.7835 28.0464C16.2907 27.5284 16.7333 26.9547 17.2002 26.3811C16.7735 25.9096 16.3565 25.4459 15.9362 24.9841C15.3243 24.3115 14.7137 23.6382 14.0718 22.9947C13.9715 22.8945 13.8699 22.8408 13.7186 22.8415C12.2712 22.8486 10.8239 22.846 9.37658 22.8453C9.24629 22.8453 9.11599 22.835 8.98633 22.8395C8.32143 22.8647 7.72678 23.1015 7.17685 23.4669C6.32161 24.034 5.71355 24.8257 5.20322 25.7052C5.15659 25.7854 5.20897 25.8229 5.24538 25.8695C6.13574 27.0233 7.02739 28.1771 7.91904 29.3302C8.04103 29.488 8.11193 29.508 8.33037 29.4453C8.29779 29.3942 8.26714 29.3451 8.2352 29.2966C7.9861 28.9124 7.76958 28.5114 7.60607 28.0807C7.36719 27.4482 7.54092 26.9107 7.97524 26.4431C8.33676 26.0538 8.81068 25.9387 9.32165 25.9251C9.46473 25.9212 9.54201 25.9626 9.61546 26.092C10.1347 27.0058 10.7313 27.8634 11.4792 28.6033C11.8446 28.9641 12.2431 29.2778 12.7183 29.4828C13.1642 29.6755 13.6023 29.6969 14.0335 29.4421C14.1114 29.3962 14.1925 29.3567 14.2691 29.3095ZM10.1105 25.9477H13.9638C13.5832 26.6592 12.9866 27.0149 12.2323 27.1306C11.3081 27.2723 10.4796 26.5382 10.1105 25.9477Z" fill="#24388D"/>
<path d="M13.8427 19.9896C13.9091 19.7096 13.9309 19.4237 13.9353 19.1262C13.9507 19.1418 13.959 19.1463 13.9615 19.1534C13.9756 19.1909 13.9877 19.2291 14.0005 19.2672C14.1467 19.7128 14.3684 20.1022 14.6743 20.4255C15.177 20.9572 15.7844 21.1971 16.4551 21.2708C17.2394 21.3568 17.9758 21.1926 18.6465 20.7153C19.3919 20.1849 19.8122 19.3979 19.832 18.4038C19.8658 16.7391 19.8403 15.2995 19.8428 13.6341C19.8428 13.5397 19.816 13.4873 19.747 13.4395C18.9333 12.8703 18.1221 12.298 17.3097 11.7276C17.2816 11.7082 17.256 11.67 17.2049 11.6913C17.2049 11.7334 17.2043 11.778 17.2049 11.8226C17.2081 12.2003 17.2145 12.578 17.2151 12.9551C17.2164 14.2298 17.2119 15.2769 17.2177 16.5509C17.2196 17.0968 16.9954 17.4635 16.5758 17.6898C16.1287 17.9317 15.6579 17.9589 15.1783 17.878C14.6366 17.7868 14.1538 17.5547 13.7827 17.0741C13.439 16.6285 13.2775 16.0982 13.2353 15.5149C13.2877 15.4819 13.3362 15.4948 13.3828 15.4948C14.4214 15.4935 15.1527 15.4942 16.1913 15.4942C16.2187 15.4942 16.2475 15.4903 16.2749 15.4948C16.3688 15.5103 16.395 15.4586 16.3835 15.3609C16.3682 15.2303 16.3605 15.0984 16.3407 14.969C16.2187 14.1677 15.9153 13.4873 15.3169 13.0139C14.8366 12.6349 14.2905 12.4804 13.7169 12.4771C11.7164 12.4674 10.0226 12.4726 8.02083 12.4739C7.86945 12.4739 7.71935 12.459 7.56989 12.4312C6.72295 12.2773 5.99099 11.8453 5.34333 11.2134C5.3165 11.1875 5.29415 11.1494 5.25072 11.1436C5.25199 11.163 5.25135 11.1714 5.25327 11.1804C5.53047 12.5871 5.70676 14.0041 5.57518 15.4508C5.52281 16.0277 5.41103 16.5891 5.16193 17.1013C5.11467 17.1983 5.11722 17.2733 5.15171 17.3671C5.43147 18.129 5.78532 18.843 6.22859 19.4968C7.23712 20.985 8.5005 21.9842 10.1867 22.1465C10.9787 22.2228 11.7509 22.1174 12.481 21.7397C13.1593 21.3898 13.6422 20.8323 13.8427 19.9896ZM9.33147 18.7912C8.76812 18.7518 8.20988 18.6722 7.66251 18.506C7.44407 18.4394 7.23009 18.3547 7.02954 18.2331C6.9382 18.1781 6.8507 18.116 6.77277 18.0158C7.05445 17.6879 7.27544 17.3302 7.42682 16.9189C7.64271 16.3356 7.61524 15.7406 7.49452 15.141C7.43959 14.8668 7.36742 14.5984 7.278 14.3365C7.26459 14.2958 7.25437 14.2531 7.22818 14.2337C7.3572 14.365 7.48686 14.4956 7.6146 14.6288C8.00613 15.0369 8.44557 15.3415 8.97251 15.4592C9.08173 15.4838 9.19223 15.4955 9.304 15.4955C10.3419 15.4948 11.3798 15.4967 12.4171 15.4922C12.5167 15.4916 12.5634 15.5252 12.5966 15.6339C12.7505 16.1286 12.8412 16.6318 12.7524 17.1569C12.624 17.9207 12.1878 18.3489 11.5612 18.5584C10.8318 18.8022 10.0852 18.8436 9.33147 18.7912Z" fill="#24388D"/>
<path d="M29.6888 9.56006H24.5554V62.1896H29.6888V9.56006Z" fill="#C4312C"/>
</svg>
