<svg width="69" height="21" viewBox="0 0 69 21" fill="none" xmlns="http://www.w3.org/2000/svg">
<path d="M48.4872 17.9962C48.0244 17.9019 47.695 17.6694 47.5598 17.1827C47.0799 15.4569 46.5898 13.7343 46.0991 12.0117C45.9474 11.4791 45.6123 11.1262 45.0581 11.0147C44.742 10.9503 44.4272 11 44.1136 11.0516C43.8171 11.1007 43.5207 11.1434 43.209 11.1905C43.2401 11.1 43.303 11.0752 43.3499 11.037C44.3491 10.2101 45.2682 9.30799 45.9576 8.19568C46.3677 7.53378 46.6711 6.83365 46.6451 6.02905C46.6171 5.1308 46.141 4.50138 45.4599 3.98027C44.2977 4.94605 43.1513 5.89909 42.0023 6.85404C42.6885 7.58729 42.8999 8.41929 42.632 9.35895C42.3521 10.3407 41.7268 11.0969 41.0102 11.7874C41.0051 11.7925 40.9873 11.7842 40.9645 11.7811V11.6511V3.9739C40.9645 3.93567 40.9638 3.89681 40.9664 3.85859C41.0108 3.07692 40.9372 2.30672 40.7175 1.55562C40.5595 1.01667 40.3075 0.529959 39.8523 0.170657C39.7209 0.067454 39.6295 0.068091 39.4956 0.175754C38.6863 0.833198 37.8693 1.48109 37.0555 2.1328C36.7508 2.37679 36.448 2.62333 36.1402 2.87115C36.7749 3.39417 36.8664 3.58975 36.8664 4.40837V7.93513C36.8664 10.0839 36.8651 12.2321 36.8695 14.3802C36.8702 14.514 36.8365 14.607 36.7292 14.6886C36.5121 14.8542 36.309 15.0396 36.0907 15.2033C35.2908 15.8041 34.4771 16.3723 33.4735 16.5928C32.6451 16.775 31.9322 16.61 31.3838 15.9385C31.0537 15.534 30.8144 15.0906 30.8576 14.53C30.8874 14.1375 30.855 13.74 30.8531 13.345C30.8487 11.5861 30.8461 9.82655 30.8442 8.067C30.8442 8.00775 30.8201 7.9415 30.8684 7.89117C30.8804 7.88926 30.888 7.88607 30.8925 7.88799C30.9325 7.9071 30.9718 7.92685 31.0118 7.94659C31.8072 8.33265 32.6349 8.51549 33.4982 8.2441C34.7716 7.84339 35.3429 6.79607 35.8133 5.65382C35.6857 5.6105 35.5936 5.66847 35.4997 5.6965C35.0731 5.82073 34.6421 5.8666 34.2016 5.80863C33.476 5.71434 32.852 5.39008 32.2807 4.9486C31.9132 4.66447 31.5882 4.33575 31.2753 3.98536C31.2454 4.00894 31.2257 4.02295 31.2073 4.03888C29.9816 5.148 28.7673 6.27049 27.6228 7.46562C27.2882 7.81472 26.9563 8.16702 26.6852 8.57028C26.6103 8.68176 26.5557 8.79771 26.5544 8.94104C26.536 11.0567 26.5843 13.1724 26.5271 15.2887C26.4979 16.366 26.8953 17.3311 27.5091 18.2045C28.2677 19.2843 29.2865 20.0622 30.4158 20.7139C30.5745 20.805 30.671 20.7942 30.8119 20.6878C32.7594 19.2162 34.7113 17.7503 36.6639 16.2851C36.7197 16.2424 36.7699 16.1799 36.867 16.1704C36.867 16.5144 36.8752 16.845 36.8651 17.175C36.8397 17.986 37.0333 18.7524 37.338 19.4933C37.571 20.0603 37.8979 20.5623 38.407 20.9273C38.5142 21.0037 38.5866 21.0178 38.7009 20.9248C39.759 20.0692 40.8223 19.2213 41.8836 18.3695C41.9236 18.337 41.9877 18.3179 41.9845 18.2389C41.9515 18.2351 41.9211 18.2306 41.8906 18.2281C41.3999 18.1841 40.9461 17.9535 40.9594 17.212C40.9816 15.9309 40.9657 14.6497 40.9657 13.368C40.9657 13.1335 41.026 13.0494 41.2482 12.987C41.4132 12.9399 41.5764 12.9507 41.7256 13.0399C41.9953 13.2023 42.1991 13.4228 42.2829 13.7349C42.6688 15.1505 43.0472 16.5679 43.4394 17.9822C43.6311 18.6728 43.7651 19.3837 44.0869 20.0316C44.2685 20.3985 44.4735 20.7502 44.8531 20.956C44.9642 21.0165 45.053 21.019 45.1635 20.9337C46.0509 20.2425 46.944 19.5589 47.8359 18.8728C48.1863 18.6033 48.5373 18.3332 48.9321 18.0293C48.7449 18.0363 48.6148 18.0223 48.4872 17.9962Z" fill="white"/>
<path d="M68.2178 5.57929C67.6078 5.4659 67.1 5.14545 66.6131 4.78297C66.297 4.54726 66.012 4.27587 65.7206 4.00066C64.9367 4.63836 64.1616 5.26904 63.3732 5.91056C63.0971 5.14928 62.7004 4.50266 62.0815 3.99365C60.843 4.96708 59.6128 5.93413 58.3718 6.90947C58.8765 7.29043 59.0752 7.75994 59.0701 8.3798C59.0479 11.2803 59.0606 14.1809 59.0599 17.0814C59.0599 17.3687 59.072 17.6535 59.1247 17.937C59.3386 19.0856 59.9511 19.9851 60.8373 20.7171C60.9535 20.8133 61.029 20.826 61.1566 20.7209C62.1951 19.8717 63.2412 19.0314 64.2841 18.1873C64.3292 18.1504 64.4003 18.1287 64.3997 18.0465C64.2124 18.0077 64.0296 17.9561 63.8601 17.8675C63.551 17.7057 63.3637 17.47 63.3643 17.0973C63.3681 13.9158 63.3662 10.735 63.3682 7.55354C63.3682 7.50193 63.3415 7.4395 63.4056 7.39045C64.4238 7.94023 65.4839 8.30463 66.6442 7.91602C67.8033 7.52805 68.4806 6.63553 69.0005 5.52132C68.7079 5.60732 68.4641 5.62516 68.2178 5.57929Z" fill="white"/>
<path d="M57.4777 7.51286C56.6957 6.39864 55.7194 5.473 54.6815 4.60723C54.3413 4.32374 53.9973 4.04535 53.6551 3.7644C53.605 3.80581 53.5701 3.83257 53.537 3.86251C52.7182 4.61551 51.8974 5.36661 51.0817 6.12407C50.3276 6.82483 49.5697 7.52305 48.8575 8.26841C48.7439 8.3869 48.7001 8.51113 48.7001 8.6774C48.7051 10.7873 48.7134 12.8979 48.6982 15.0079C48.6931 15.7284 48.8073 16.4145 49.0955 17.07C49.8522 18.7894 51.2201 19.903 52.7893 20.8223C52.8344 20.7904 52.8718 20.7669 52.9067 20.7395C54.4962 19.4902 56.0825 18.2365 57.6802 16.9987C57.8973 16.8305 58.0027 16.6623 57.9532 16.3973C57.9513 16.3852 57.9487 16.3724 57.9405 16.331C57.8681 16.3788 57.811 16.4158 57.7539 16.4533C57.173 16.8318 56.5776 17.1815 55.9143 17.3994C55.574 17.5109 55.2313 17.5727 54.8694 17.4765C53.6678 17.1567 52.9619 16.1571 53.0203 14.8588C53.028 14.7002 53.0762 14.6161 53.2146 14.5358C54.4943 13.7949 55.6997 12.9514 56.7376 11.8856C57.2867 11.3218 57.7634 10.7071 58.0401 9.9547C58.2439 9.4011 58.2439 8.8647 57.9614 8.33339C57.8116 8.05245 57.6605 7.77342 57.4777 7.51286ZM53.033 13.8153V8.38435C53.7103 8.51941 54.5102 9.69733 54.6866 10.6988C54.9291 12.0799 53.8341 13.3349 53.033 13.8153Z" fill="white"/>
<path d="M25.3568 7.91611C24.8743 7.11342 24.2542 6.4254 23.594 5.76859C22.8716 5.04871 22.0705 4.42185 21.2688 3.75867C20.6105 4.36324 19.9637 4.9557 19.3194 5.55135C18.3806 6.41902 17.4405 7.28542 16.5423 8.19578C16.4026 8.33785 16.3277 8.48182 16.3284 8.69651C16.3379 10.7498 16.3347 12.8024 16.3341 14.8556C16.3341 15.0403 16.3195 15.2251 16.3258 15.4092C16.3607 16.3527 16.6921 17.1962 17.2012 17.9759C17.9927 19.1889 19.0972 20.0514 20.3255 20.7758C20.4373 20.842 20.4893 20.7675 20.5547 20.7165C22.1657 19.4533 23.7755 18.1887 25.3853 16.9248C25.6056 16.7515 25.6342 16.6515 25.5466 16.3419C25.4748 16.3884 25.4063 16.4317 25.3383 16.4763C24.802 16.8298 24.2427 17.1369 23.6416 17.3682C22.7586 17.7077 22.0083 17.4612 21.3551 16.8439C20.8118 16.331 20.6512 15.6589 20.6315 14.934C20.6264 14.7314 20.6842 14.6218 20.8645 14.5173C22.1404 13.7802 23.3369 12.9349 24.369 11.8735C24.8731 11.3556 25.3111 10.7899 25.5973 10.1165C25.8658 9.48392 25.8963 8.86278 25.5402 8.25057C25.478 8.14036 25.4228 8.02441 25.3568 7.91611ZM20.6639 13.8153V8.34995C21.6567 8.89018 22.1537 9.73619 22.3156 10.8064C22.513 12.1162 21.4884 13.291 20.6639 13.8153Z" fill="white"/>
<path d="M12.347 8.52162C11.9566 8.42733 11.5567 8.39676 11.1416 8.39038C11.1631 8.36872 11.1695 8.35662 11.1796 8.35344C11.2323 8.33369 11.285 8.31585 11.3383 8.29801C11.9604 8.09033 12.5038 7.77626 12.9557 7.34242C13.6978 6.62956 14.033 5.76825 14.1352 4.81712C14.2551 3.70418 14.026 2.66004 13.3601 1.70828C12.62 0.650763 11.5212 0.0544763 10.1335 0.0264457C7.80963 -0.0213337 5.80057 0.0137045 3.47539 0.0105192C3.34399 0.0105192 3.27099 0.0487427 3.20307 0.146213C2.40897 1.29993 1.61042 2.45109 0.813781 3.60353C0.786486 3.64366 0.733799 3.67934 0.762999 3.75196C0.821398 3.75196 0.883606 3.7526 0.945814 3.75196C1.47331 3.7475 2.00017 3.73795 2.5264 3.73731C4.30504 3.7354 5.76693 3.74177 7.54557 3.73349C8.30729 3.7303 8.81892 4.04947 9.13568 4.64448C9.47338 5.27835 9.51083 5.94599 9.39847 6.62701C9.27152 7.3953 8.94651 8.08014 8.27683 8.60635C7.65538 9.0937 6.91523 9.32304 6.10082 9.38292C6.05448 9.30839 6.07289 9.23958 6.07289 9.17397C6.07162 7.70109 6.07225 6.66332 6.07225 5.19044C6.07225 5.15094 6.06718 5.11081 6.07289 5.07195C6.09447 4.93817 6.02211 4.90122 5.88626 4.91778C5.70408 4.94008 5.52 4.95027 5.33909 4.9783C4.22062 5.15158 3.27036 5.58223 2.61019 6.43079C2.08079 7.11181 1.86497 7.88711 1.86116 8.7C1.84783 11.5381 1.85481 13.9404 1.85672 16.7792C1.85672 16.9939 1.83577 17.2066 1.79768 17.4188C1.58249 18.6203 0.980092 19.658 0.0977553 20.5773C0.0615731 20.6149 0.00825207 20.6467 0 20.7085C0.0266605 20.7066 0.039356 20.7073 0.0514167 20.7047C2.01477 20.3117 3.99273 20.0619 6.01195 20.2486C6.81748 20.3231 7.60079 20.4818 8.31618 20.8347C8.45139 20.9016 8.55613 20.8984 8.68689 20.8493C9.75077 20.4518 10.7474 19.9504 11.6595 19.3217C13.7365 17.8908 15.1311 16.0994 15.3584 13.7073C15.465 12.5841 15.3177 11.4884 14.7909 10.4532C14.3021 9.49058 13.5232 8.80575 12.347 8.52162ZM10.6744 14.9202C10.6191 15.7197 10.5081 16.5116 10.2764 17.2875C10.1837 17.5978 10.065 17.9004 9.8955 18.1858C9.81869 18.3151 9.73236 18.4393 9.59271 18.5496C9.13568 18.1495 8.63611 17.8367 8.06227 17.622C7.24786 17.3162 6.41757 17.3551 5.5803 17.5258C5.19753 17.6042 4.82302 17.7061 4.45675 17.8329C4.39962 17.852 4.34059 17.8666 4.31329 17.9036C4.49674 17.7207 4.67892 17.536 4.86428 17.3557C5.4343 16.8002 5.85897 16.1765 6.02338 15.4299C6.05765 15.2751 6.07416 15.1177 6.07416 14.9597C6.07352 13.4875 6.07606 12.0159 6.06971 10.5443C6.06908 10.4029 6.11605 10.3372 6.26776 10.2901C6.95903 10.0716 7.66109 9.94353 8.39362 10.0684C9.45941 10.2506 10.0574 10.8692 10.35 11.7585C10.6896 12.7925 10.7474 13.8512 10.6744 14.9202Z" fill="white"/>
</svg>
