<svg width="186" height="42" viewBox="0 0 186 42" fill="none" xmlns="http://www.w3.org/2000/svg">
<g clip-path="url(#clip0)">
<path d="M110.389 11.2485C108.786 11.2485 107.604 12.4543 107.571 14.1154C107.545 15.4393 108.372 16.2319 109.773 16.2319C111.376 16.2319 112.557 15.0261 112.591 13.365C112.616 12.0411 111.798 11.2485 110.389 11.2485Z" fill="white"/>
<path d="M105.436 11.9231C105.377 11.8472 105.293 11.8135 105.191 11.8135H101.682C101.53 11.8135 101.403 11.9231 101.378 12.0664C101.378 12.0664 100.02 18.7868 99.9352 19.259C99.0494 17.7075 97.3282 16.7462 95.1768 16.7462C90.9078 16.7462 87.803 20.1781 87.803 24.9169C87.803 28.8125 90.1484 31.4264 93.6329 31.4264C95.3118 31.4264 96.7798 30.7603 97.8766 29.5376C97.8007 29.8749 97.7332 30.2291 97.6573 30.6338C97.6404 30.7265 97.6657 30.8193 97.7248 30.8867C97.7838 30.9542 97.8682 30.9964 97.961 30.9964H101.471C101.623 30.9964 101.749 30.8867 101.774 30.7434L105.495 12.1845C105.52 12.0833 105.495 11.9905 105.436 11.9231ZM98.695 24.0652C98.6107 24.5627 98.4504 25.0349 98.2226 25.4481C97.9948 25.8697 97.7163 26.2323 97.3873 26.5442C97.0583 26.8478 96.687 27.0923 96.2736 27.261C95.4974 27.5814 94.5441 27.6067 93.8354 27.3116C93.5063 27.1767 93.2195 26.9827 92.9917 26.7298C92.7554 26.4768 92.5783 26.1732 92.4686 25.8107C92.3505 25.4481 92.2998 25.0349 92.3252 24.588C92.3505 24.0399 92.477 23.5256 92.6795 23.0365C92.8904 22.5559 93.1689 22.1259 93.5063 21.7633C93.8438 21.4091 94.2488 21.114 94.6959 20.9032C95.1431 20.6924 95.624 20.5912 96.1302 20.5912C96.5774 20.5912 96.9739 20.6755 97.3282 20.8358C97.6826 20.996 97.9779 21.2321 98.2057 21.5272C98.4335 21.8223 98.6022 22.1849 98.6866 22.6065C98.7794 23.0534 98.7794 23.534 98.695 24.0652Z" fill="white"/>
<path d="M110.945 18.2471H107.317C107.165 18.2471 107.031 18.3483 107.005 18.4832L104.55 30.6506C104.533 30.7349 104.558 30.8192 104.618 30.8867C104.677 30.9542 104.769 30.9879 104.862 30.9879H108.49C108.642 30.9879 108.777 30.8867 108.802 30.7518L111.257 18.5844C111.274 18.5 111.249 18.4157 111.19 18.3483C111.131 18.2808 111.038 18.2471 110.945 18.2471Z" fill="white"/>
<path d="M58.1472 29.8835C58.5184 28.2392 59.2018 24.5966 59.2187 24.5038C59.379 24.5038 63.4878 24.5291 63.4878 24.5291C68.3896 24.5291 71.4269 21.9152 71.4269 17.6992C71.4269 14.0059 68.8958 11.8052 64.6521 11.8052H57.371C57.2191 11.8052 57.0841 11.9148 57.0588 12.0666L53.3635 30.5074C53.3466 30.6002 53.3803 30.6929 53.4394 30.7688C53.4985 30.8447 53.5913 30.8869 53.6841 30.8869H55.1268L56.9323 30.8784C56.9323 30.87 57.9194 30.8784 58.1472 29.8835ZM63.6312 20.5323C63.6312 20.5323 60.1214 20.5492 60.0118 20.5492C60.0371 20.4396 60.9483 15.9284 60.9736 15.7345C61.1507 15.7429 64.3315 15.7682 64.3315 15.7682C65.9345 15.7682 66.8203 16.5187 66.8203 17.8762C66.8203 19.5627 65.656 20.5323 63.6312 20.5323Z" fill="white"/>
<path d="M137.825 16.7378C133.058 16.7378 129.591 20.1359 129.591 24.8241C129.591 28.8293 132.341 31.418 136.593 31.418C141.36 31.418 144.819 28.0199 144.819 23.3317C144.828 19.3264 142.077 16.7378 137.825 16.7378ZM136.872 27.2778C135.066 27.2778 133.995 26.266 133.995 24.5627C133.995 22.4294 135.488 20.8779 137.547 20.8779C139.352 20.8779 140.424 21.8898 140.424 23.593C140.424 25.7264 138.93 27.2778 136.872 27.2778Z" fill="white"/>
<path d="M130.114 11.9231C130.055 11.8472 129.971 11.8135 129.869 11.8135H126.36C126.208 11.8135 126.081 11.9231 126.056 12.0664C126.056 12.0664 124.698 18.7868 124.613 19.259C123.727 17.7075 122.006 16.7462 119.855 16.7462C115.586 16.7462 112.481 20.1781 112.481 24.9169C112.481 28.8125 114.826 31.4264 118.311 31.4264C119.99 31.4264 121.458 30.7603 122.555 29.5376C122.479 29.8749 122.411 30.2291 122.335 30.6338C122.318 30.7265 122.344 30.8193 122.403 30.8867C122.462 30.9542 122.546 30.9964 122.639 30.9964H126.149C126.301 30.9964 126.427 30.8867 126.452 30.7434L130.173 12.1845C130.198 12.0833 130.173 11.9905 130.114 11.9231ZM123.432 24.0652C123.348 24.5627 123.187 25.0349 122.96 25.4481C122.732 25.8697 122.453 26.2323 122.124 26.5442C121.795 26.8478 121.424 27.0923 121.011 27.261C120.234 27.5814 119.281 27.6067 118.572 27.3116C118.243 27.1767 117.957 26.9827 117.729 26.7298C117.492 26.4768 117.315 26.1732 117.206 25.8107C117.088 25.4481 117.037 25.0349 117.062 24.588C117.088 24.0399 117.214 23.5256 117.417 23.0365C117.627 22.5559 117.906 22.1259 118.243 21.7633C118.581 21.4091 118.986 21.114 119.433 20.9032C119.88 20.6924 120.361 20.5912 120.867 20.5912C121.314 20.5912 121.711 20.6755 122.065 20.8358C122.42 20.996 122.715 21.2321 122.943 21.5272C123.171 21.8223 123.339 22.1849 123.424 22.6065C123.525 23.0534 123.525 23.534 123.432 24.0652Z" fill="white"/>
<path d="M156.412 17.8005C154.581 16.9657 152.7 16.6031 150.978 16.7549C147.958 17.0163 146.228 18.8208 146.465 21.4516C146.608 23.0368 147.511 24.2594 149.24 25.1701L151.147 26.1651C151.932 26.5867 151.999 26.7806 152.025 27.0251C152.075 27.5901 151.426 27.7334 151.029 27.7672C149.831 27.8683 148.38 27.4214 146.827 26.4602C146.76 26.418 146.667 26.4012 146.591 26.4265C146.507 26.4433 146.439 26.5024 146.397 26.5698L144.87 29.2681C144.794 29.4114 144.836 29.5885 144.963 29.6728C146.861 30.9713 149.055 31.5531 151.291 31.3508C154.648 31.0557 156.437 29.2849 156.192 26.4771C156.041 24.7907 155.231 23.7198 153.383 22.7838L151.662 21.9153C150.649 21.3672 150.599 21.2239 150.573 20.9625C150.557 20.8192 150.523 20.3638 151.485 20.2795C152.446 20.1952 153.695 20.4819 154.927 21.0721C155.003 21.1058 155.087 21.1143 155.163 21.0806C155.239 21.0553 155.307 20.9962 155.34 20.9119L156.555 18.1884C156.64 18.0535 156.564 17.8679 156.412 17.8005Z" fill="white"/>
<path d="M175.386 12.353C175.327 12.2349 175.209 12.1675 175.083 12.1675H170.122C170.012 12.1675 169.902 12.2265 169.843 12.3193C169.843 12.3193 164.916 19.301 164.57 19.9756C164.478 19.3431 162.056 12.4289 162.056 12.4289C162.014 12.2855 161.879 12.1843 161.727 12.1843H157.382C157.272 12.1843 157.171 12.2349 157.104 12.3277C157.036 12.4204 157.028 12.5301 157.062 12.6312L161.668 24.2928L160.284 31.0637C160.268 31.1649 160.293 31.2661 160.352 31.3419C160.419 31.4178 160.512 31.4684 160.613 31.4684H164.123C164.587 31.4684 164.984 31.1396 165.068 30.6927L166.3 24.4108L175.344 12.7156C175.437 12.6059 175.446 12.471 175.386 12.353Z" fill="white"/>
<path d="M185.933 17.6401C185.874 17.5727 185.789 17.5305 185.696 17.5305H182.271C182.128 17.5305 182.001 17.6317 181.976 17.775C181.976 17.775 181.849 18.4243 181.765 18.8881V18.9049C180.989 17.969 179.782 17.3956 178.584 17.3197C177.487 17.2523 176.433 17.4293 175.403 17.8172C172.037 19.0989 169.793 22.4127 169.827 26.0384C169.86 29.192 171.919 31.3169 175.066 31.4602C176.753 31.5361 178.23 31.0386 179.563 29.9003C179.495 30.2376 179.402 30.6845 179.343 30.988C179.327 31.0724 179.352 31.1651 179.411 31.2326C179.47 31.3 179.554 31.3422 179.647 31.3422H183.064C183.207 31.3422 183.334 31.241 183.359 31.0977L185.992 17.9015C186.017 17.8003 185.992 17.716 185.933 17.6401ZM180.634 24.4364C180.55 24.917 180.398 25.3554 180.179 25.7602C179.959 26.1565 179.689 26.5106 179.377 26.8058C179.065 27.1009 178.711 27.3285 178.314 27.4887C177.572 27.7923 176.66 27.8176 175.985 27.5393C175.673 27.4129 175.403 27.2274 175.176 26.9828C174.956 26.7467 174.787 26.4516 174.678 26.1059C174.568 25.7602 174.517 25.3639 174.543 24.9338C174.568 24.4111 174.686 23.9136 174.889 23.4498C175.091 22.986 175.353 22.5813 175.682 22.2356C176.002 21.8899 176.39 21.62 176.821 21.4177C177.251 21.2153 177.707 21.1141 178.196 21.1141C178.618 21.1141 179.006 21.19 179.343 21.3502C179.681 21.502 179.959 21.7297 180.179 22.0079C180.398 22.2946 180.558 22.6403 180.643 23.0366C180.719 23.4667 180.719 23.9304 180.634 24.4364Z" fill="white"/>
<path d="M79.8132 16.7212C75.1307 16.7212 71.7222 20.1362 71.7222 24.8328C71.7222 28.8886 74.4473 31.4014 78.8345 31.4014C80.8256 31.4014 82.4708 30.8955 84.2004 29.7318C84.3522 29.6306 84.3775 29.403 84.251 29.2681L82.0911 27.042C81.9983 26.9493 81.8549 26.924 81.7368 26.9914C80.7918 27.4973 79.906 27.7166 78.9188 27.7166C76.9109 27.7166 75.7381 26.7975 75.7128 25.2038L85.5503 25.1701C85.6937 25.1701 85.8202 25.0689 85.854 24.9256C86.0733 23.9306 86.2083 23.197 86.2083 22.4297C86.2168 18.9135 83.7616 16.7212 79.8132 16.7212ZM76.1684 22.1599C76.8181 20.6084 77.9908 19.7989 79.7372 19.7989C81.509 19.7989 82.4033 20.6084 82.4623 22.1683C82.1755 22.1767 76.4637 22.1599 76.1684 22.1599Z" fill="white"/>
<path d="M29.0145 0.0252961H28.5252L26.2978 0H0.734011C0.329039 0 0 0.32885 0 0.733588V4.78097C0 9.22465 3.13853 11.6699 8.83344 11.6699L29.0145 11.7121C31.1491 11.7121 32.8786 13.4407 32.8786 15.574C32.8786 17.7073 31.1491 19.4359 29.0145 19.4359H6.38674C6.0577 19.4359 5.77084 19.6635 5.68647 19.9755L0.329039 41.1062C0.278418 41.3254 0.320602 41.5531 0.455593 41.7217C0.590583 41.8988 0.801506 42 1.02087 42H8.19223C10.8836 42 12.1745 39.7739 12.4782 38.6019L14.5874 30.9203H28.9976C37.5189 30.9203 44.454 23.9892 44.454 15.4728C44.4709 6.95643 37.5358 0.0252961 29.0145 0.0252961Z" fill="white"/>
</g>
<defs>
<clipPath id="clip0">
<rect width="186" height="42" fill="white"/>
</clipPath>
</defs>
</svg>
