<?xml version="1.0" standalone="no"?>
<!DOCTYPE svg PUBLIC "-//W3C//DTD SVG 1.1//EN" "http://www.w3.org/Graphics/SVG/1.1/DTD/svg11.dtd" >
<svg xmlns="http://www.w3.org/2000/svg" xmlns:xlink="http://www.w3.org/1999/xlink" version="1.1">
<metadata></metadata>
<defs>
<font id="intensaposter" horiz-adv-x="1630" >
<font-face units-per-em="2048" ascent="1536" descent="-512" />
<missing-glyph horiz-adv-x="491" />
<glyph horiz-adv-x="0" />
<glyph horiz-adv-x="682" />
<glyph unicode="&#xd;" horiz-adv-x="0" />
<glyph horiz-adv-x="0" />
<glyph unicode=" "  horiz-adv-x="491" />
<glyph unicode="&#x09;" horiz-adv-x="491" />
<glyph unicode="&#xa0;" horiz-adv-x="491" />
<glyph unicode="!" horiz-adv-x="593" d="M82 1434h430l-45 -922h-340zM100 0v311h394v-311h-394z" />
<glyph unicode="&#x22;" horiz-adv-x="841" d="M78 977v457h282v-457h-282zM481 977v457h283v-457h-283z" />
<glyph unicode="#" horiz-adv-x="1712" d="M82 307v244h235l45 332h-280v243h313l43 308h365l-43 -308h303l43 308h364l-43 -308h203v-243h-235l-45 -332h280v-244h-315l-41 -307h-365l41 307h-303l-41 -307h-364l41 307h-201zM682 551h303l45 332h-303z" />
<glyph unicode="$" horiz-adv-x="1439" d="M72 993v35q0 87 25 161t76.5 135t141.5 95.5t209 34.5h99v207h200v-207h365l78 -416l-37 -10q-31 53 -105.5 89t-199.5 36h-301q-75 0 -111.5 -32t-36.5 -89v-20q0 -50 38.5 -80t86.5 -35l451 -63q135 -17 226 -121t91 -240v-72q0 -88 -22.5 -160.5t-71.5 -132 t-136.5 -93t-207.5 -33.5h-107v-209h-200v209h-451l-78 415l37 11q30 -53 105.5 -89t199.5 -36h383q146 0 146 112v23q0 40 -32 71t-75 37l-416 58q-160 22 -265 136.5t-105 272.5z" />
<glyph unicode="%" horiz-adv-x="1878" d="M78 971v256q0 101 52 164t171 63h244q119 0 171 -63t52 -164v-256q0 -48 -11.5 -87.5t-36 -72.5t-69.5 -51.5t-106 -18.5h-244q-61 0 -106 18.5t-69.5 51.5t-36 72.5t-11.5 87.5zM283 997q0 -26 17 -44.5t42 -18.5h162q25 0 42 18.5t17 44.5v203q0 26 -17 45t-42 19h-162 q-25 0 -42 -19t-17 -45v-203zM530 0l533 1434h283l-531 -1434h-285zM1108 209v256q0 101 53 165t170 64h246q117 0 170 -64t53 -165v-256q0 -101 -52.5 -164t-170.5 -63h-246q-118 0 -170.5 63t-52.5 164zM1313 236q0 -26 17 -45t42 -19h164q25 0 42 19t17 45v202 q0 26 -17 45t-42 19h-164q-25 0 -42 -19t-17 -45v-202z" />
<glyph unicode="&#x26;" horiz-adv-x="1495" d="M66 287v202q0 92 61.5 161t169.5 100v22q-97 35 -157 99.5t-60 146.5v131q0 133 84.5 219t249.5 86h440q42 0 68 2t59.5 13.5t56.5 33.5l37 -10l119 -391l-37 -10q-42 52 -124 82t-159 30h-274q-49 0 -77.5 -25.5t-28.5 -68.5v-119q0 -43 28.5 -68.5t77.5 -25.5h850v-260 h-143v-350q0 -132 -89.5 -218.5t-259.5 -86.5h-544q-170 0 -259 86t-89 219zM479 348q0 -53 35.5 -84t95.5 -31h152q60 0 95.5 31t35.5 84v289h-283q-60 0 -95.5 -31t-35.5 -82v-176z" />
<glyph unicode="'" horiz-adv-x="438" d="M78 977v457h282v-457h-282z" />
<glyph unicode="(" horiz-adv-x="808" d="M78 457v520q0 252 98.5 364.5t298.5 112.5h227l29 -254h-86q-28 0 -48 -5.5t-41.5 -24.5t-35.5 -51t-22.5 -89t-8.5 -135v-356q0 -78 8.5 -135t22.5 -89.5t35 -51.5t41.5 -24.5t48.5 -5.5l86 3l-29 -254h-239q-199 0 -292 110.5t-93 364.5z" />
<glyph unicode=")" horiz-adv-x="808" d="M78 236l86 -3q28 0 48 5.5t41.5 24.5t35 51.5t22 89.5t8.5 135v356q0 78 -8.5 135t-22 89.5t-35 51t-41.5 24t-48 5.5h-86l28 254h228q200 0 298.5 -112.5t98.5 -364.5v-520q0 -254 -93 -364.5t-292 -110.5h-240z" />
<glyph unicode="*" horiz-adv-x="876" d="M78 991l170 76v23l-170 75l104 183l152 -111l20 10l-20 187h209l-19 -187l19 -10l151 111l105 -183l-170 -75v-23l170 -76l-105 -182l-151 111l-19 -13l19 -186h-209l20 186l-20 13l-152 -111z" />
<glyph unicode="+" horiz-adv-x="1040" d="M78 582v270h307v307h272v-307h306v-270h-306v-308h-272v308h-307z" />
<glyph unicode="," horiz-adv-x="464" d="M78 0v311h309v-311q0 -105 -74.5 -179.5t-179.5 -74.5v164q35 0 60.5 26.5t27.5 63.5h-143z" />
<glyph unicode="-" horiz-adv-x="1062" d="M78 571v291h907v-291h-907z" />
<glyph unicode="." horiz-adv-x="587" d="M78 0v395h432v-395h-432z" />
<glyph unicode="/" horiz-adv-x="1026" d="M0 0l666 1434h360l-664 -1434h-362z" />
<glyph unicode="0" horiz-adv-x="1589" d="M78 508v418q0 98 15.5 175t55 145t103 112.5t163.5 70t232 25.5h295q132 0 232 -25.5t163.5 -70t103 -112.5t55 -145t15.5 -175v-418q0 -97 -15.5 -173.5t-55 -144.5t-103 -112.5t-163.5 -70t-232 -25.5h-295q-132 0 -232 25.5t-163.5 70t-103 112.5t-55 144.5 t-15.5 173.5zM481 428q0 -58 46.5 -105t119.5 -47h295q73 0 119.5 47t46.5 105v578q0 59 -46.5 105t-119.5 46h-295q-73 0 -119.5 -46t-46.5 -105v-578z" />
<glyph unicode="1" horiz-adv-x="770" d="M45 1014v276q62 0 113.5 15t81 36t50.5 42t28 36l8 15h331l11 -35q-25 -28 -39.5 -82t-14.5 -105v-991q0 -107 74 -184l-10 -37h-531l-10 37q72 75 72 184v793h-164z" />
<glyph unicode="2" horiz-adv-x="1464" d="M72 0v389q0 132 90.5 233.5t226.5 143.5q89 27 451 123q50 11 87.5 39.5t37.5 77.5v26q0 57 -36.5 89t-111.5 32h-321q-125 0 -200.5 -36t-105.5 -89l-36 10l77 416h684q119 0 209 -34.5t142 -95.5t77 -135t25 -161v-41q0 -152 -104 -258.5t-267 -150.5 q-284 -79 -415 -119q-43 -13 -75 -46t-32 -73v-39h569q124 0 200 36t106 89l36 -10l-77 -416h-1237z" />
<glyph unicode="3" horiz-adv-x="1351" d="M66 381l36 8q15 -25 35 -47.5t52.5 -48t80 -42t103.5 -18.5h348q69 0 110 37t41 99v123q0 59 -41.5 96t-109.5 37h-246q-50 -2 -85 -16t-66 -52l-37 10l78 357l36 10q51 -49 224 -49h100q54 3 85.5 33.5t31.5 80.5v91q0 51 -34.5 82.5t-92.5 31.5h-312q-106 -4 -172 -46 t-98 -95l-37 8l78 383h748q165 0 249 -86t84 -219v-143q0 -84 -53 -148t-147 -98v-23q108 -31 169.5 -99.5t61.5 -160.5v-190q0 -133 -89 -219t-259 -86h-815z" />
<glyph unicode="4" horiz-adv-x="1441" d="M25 580l729 854h489l10 -35q-73 -79 -73 -187v-632q103 0 182 73l35 -10l-62 -328h-155v-94q0 -108 73 -184l-10 -37h-530l-11 37q72 75 72 184v94h-641zM365 580h409v479z" />
<glyph unicode="5" horiz-adv-x="1435" d="M72 379l37 10q42 -52 124 -82.5t158 -30.5h404q73 0 119.5 47t46.5 105v72q0 60 -48.5 105.5t-132.5 45.5h-94q-150 0 -240 -106l-374 84l84 805h338q126 4 236.5 15.5t163.5 19t132 5.5t182 -18l86 -416l-30 -14q-57 62 -120.5 90t-127 27t-142.5 -6.5t-167.5 -11.5 t-202.5 12l-41 -318h29q59 63 153 96t209 33h53q457 0 457 -463q0 -120 -22.5 -209.5t-72.5 -157t-136 -102t-207 -34.5h-746z" />
<glyph unicode="6" horiz-adv-x="1449" d="M78 477v428q0 98 15.5 175t55 145t103 113t163.5 70.5t232 25.5h320q42 0 68 2t59.5 13.5t56.5 33.5l37 -10l119 -437l-37 -10q-42 52 -124 81.5t-159 29.5h-340q-73 0 -119.5 -46.5t-46.5 -105.5v-162h25q39 72 119 106t219 34h69q459 0 459 -463v-8 q0 -120 -22.5 -210.5t-72.5 -159.5t-136.5 -104.5t-208.5 -35.5h-285q-128 0 -225.5 24t-161 65.5t-104 105t-58 136t-20.5 164.5zM481 428q0 -58 46.5 -105t119.5 -47h156q73 0 119.5 47t46.5 105v86q0 59 -46.5 105.5t-119.5 46.5h-156q-73 0 -119.5 -46.5t-46.5 -105.5 v-86z" />
<glyph unicode="7" horiz-adv-x="1331" d="M45 1036l78 437l37 10q33 -31 76.5 -40t107.5 -9h834l108 -224l-538 -989q-58 -106 -29 -184l-12 -37h-527l-10 37q51 35 96.5 82t69.5 92l506 928h-518q-72 0 -135 -29t-107 -84z" />
<glyph unicode="8" horiz-adv-x="1411" d="M70 287v184q0 92 61.5 160.5t169.5 99.5v23q-94 34 -147.5 98t-53.5 147v150q0 133 84.5 219t249.5 86h543q165 0 249.5 -86t84.5 -219v-150q0 -83 -53.5 -147t-147.5 -98v-23q108 -31 169.5 -99.5t61.5 -160.5v-184q0 -133 -89 -219t-259 -86h-575q-170 0 -259 86 t-89 219zM483 348q0 -53 35.5 -84t95.5 -31h183q60 0 95.5 31t35.5 84v158q0 51 -35.5 81.5t-95.5 30.5h-183q-60 0 -95.5 -30.5t-35.5 -81.5v-158zM514 973q0 -43 29 -68.5t78 -25.5h170q49 0 77.5 25.5t28.5 68.5v137q0 43 -28.5 68.5t-77.5 25.5h-170q-49 0 -78 -25.5 t-29 -68.5v-137z" />
<glyph unicode="9" horiz-adv-x="1449" d="M78 934v10q0 120 22.5 210.5t72.5 159.5t136.5 104.5t208.5 35.5h285q159 0 271 -35.5t175 -104t91.5 -154.5t31.5 -202v-430q0 -98 -15.5 -175t-55 -145t-103 -112.5t-163.5 -70t-232 -25.5h-320q-42 0 -68 -2t-59.5 -13.5t-56.5 -33.5l-37 10l-119 436l37 11 q42 -52 124 -81.5t159 -29.5h340q73 0 119.5 46.5t46.5 105.5v161h-25q-39 -72 -119 -105.5t-219 -33.5h-69q-459 0 -459 463zM481 920q0 -59 46.5 -105.5t119.5 -46.5h156q73 0 119.5 46.5t46.5 105.5v88q0 58 -46.5 104.5t-119.5 46.5h-156q-73 0 -119.5 -46.5 t-46.5 -104.5v-88z" />
<glyph unicode=":" horiz-adv-x="464" d="M78 0v313h309v-313h-309zM78 612v314h309v-314h-309z" />
<glyph unicode=";" horiz-adv-x="464" d="M78 0v311h309v-311q0 -105 -74.5 -179.5t-179.5 -74.5v164q35 0 60.5 26.5t27.5 63.5h-143zM78 612v314h309v-314h-309z" />
<glyph unicode="&#x3c;" horiz-adv-x="997" d="M78 604v227l842 324v-262l-502 -166v-20l502 -164v-262z" />
<glyph unicode="=" horiz-adv-x="1310" d="M78 322v272h1155v-272h-1155zM78 842v270h1155v-270h-1155z" />
<glyph unicode="&#x3e;" horiz-adv-x="997" d="M78 281v262l502 164v20l-502 166v262l842 -324v-227z" />
<glyph unicode="?" horiz-adv-x="1349" d="M78 1038l78 416h663q119 0 209 -34.5t142 -95.5t77 -135t25 -161v-8q0 -159 -101 -273.5t-260 -136.5l-65 -6q-43 -6 -75 -37t-32 -71v-43h-403v71q0 74 9.5 126.5t35 99t74.5 76.5t123 44l176 27q46 5 80 35t34 80v20q0 57 -36 89t-111 32h-301q-125 0 -199.5 -36 t-105.5 -89zM338 0v311h391v-311h-391z" />
<glyph unicode="@" horiz-adv-x="1288" d="M78 225v840q0 107 65.5 175.5t196.5 68.5h598q132 0 202 -69t70 -175v-596q0 -107 -64 -175.5t-194 -68.5h-20q-140 0 -203 86h-16q-38 -84 -129 -84t-134.5 59t-43.5 156v408q0 98 37.5 156.5t113.5 58.5q70 0 109 -57h20v43h170v-615q0 -35 23 -55.5t61 -20.5h18 q36 0 58 20.5t22 55.5v649q0 35 -23 55.5t-61 20.5h-620q-40 0 -63 -20.5t-23 -55.5v-880q0 -34 23 -54t63 -20h635l-41 -149h-588q-131 0 -196.5 68t-65.5 175zM573 438q0 -23 15.5 -38t40.5 -15t40 15t15 38v418q0 22 -15.5 36.5t-39.5 14.5q-25 0 -40.5 -14.5 t-15.5 -36.5v-418z" />
<glyph unicode="A" d="M0 37q99 80 129 184l307 991q14 44 14 83q0 57 -30 104l10 35h770l10 -35q-29 -44 -29 -103q0 -39 13 -84l307 -991q36 -109 129 -184l-8 -37h-526l-11 37q31 46 31 103q0 38 -14 81l-29 94h-516l-29 -94q-13 -44 -13 -82q0 -58 30 -102l-10 -37h-525zM625 588h381 l-179 542h-24z" />
<glyph unicode="B" horiz-adv-x="1523" d="M82 37q72 75 72 184v991q0 109 -72 187l10 35h1002q165 0 249 -86.5t84 -219.5v-147q0 -84 -53 -148t-147 -98v-22q108 -31 169.5 -99.5t61.5 -160.5v-148q0 -133 -89 -219t-259 -86h-1018zM555 252h358q60 0 95.5 31t35.5 84v120q0 51 -35.5 82t-95.5 31h-358v-348z M555 860h352q49 0 78 25.5t29 68.5v136q0 43 -29 68.5t-78 25.5h-352v-324z" />
<glyph unicode="C" horiz-adv-x="1320" d="M78 508v422q0 94 14.5 168.5t51 140.5t95 111t149.5 72.5t212 31.5h551l78 -412l-37 -8q-29 49 -95.5 84t-174.5 39h-275q-73 0 -119.5 -46t-46.5 -105v-578q0 -58 46.5 -105t119.5 -47h314q109 6 175 41t95 84l37 -10l-109 -409h-520q-130 1 -228.5 26.5t-161 70 t-101.5 112t-54.5 144t-15.5 173.5z" />
<glyph unicode="D" horiz-adv-x="1552" d="M82 37q72 75 72 184v991q0 109 -72 187l10 35h914q224 0 346.5 -114t122.5 -335v-534q0 -222 -122 -336.5t-347 -114.5h-914zM557 297h361q61 0 107 39.5t46 99.5v561q0 61 -45.5 101.5t-107.5 40.5h-361v-842z" />
<glyph unicode="E" horiz-adv-x="1462" d="M82 35q72 78 72 184v993q0 107 -72 185l10 37h981q42 0 67.5 2t59 13.5t57.5 33.5l35 -10l78 -439l-37 -10q-44 55 -107 84t-134 29h-533v-299h377q105 0 184 73l35 -10v-371l-35 -10q-81 74 -184 74h-377v-315q113 25 227 27h32q93 0 159 -8q77 -9 152 -11h8 q71 0 133 26q66 27 127 93l30 -15l-108 -414q-115 -19 -198 -19q-4 0 -7 -1q-78 1 -134 11q-58 10 -203.5 21t-340.5 11h-344z" />
<glyph unicode="F" horiz-adv-x="1419" d="M82 37q72 78 72 184v993q0 107 -72 185l10 35h983q42 0 68 2t60 13.5t57 33.5l36 -10l78 -437l-37 -10q-44 55 -107 84t-134 29h-537v-369h381q103 0 184 74l35 -10v-388l-35 -8q-82 72 -184 72h-381v-299q0 -45 20 -92t52 -82l-10 -37h-529z" />
<glyph unicode="G" horiz-adv-x="1548" d="M78 508v422q0 118 26 209t85.5 164t166 112t256.5 39h709l94 -412l-37 -8q-29 49 -95.5 84t-174.5 39h-461q-73 0 -119.5 -46t-46.5 -105v-578q0 -58 46.5 -105t119.5 -47h236q71 0 118.5 47t47.5 105v168q-191 0 -242 -49l-37 10l27 281h669v-838h-221l-37 139h-24 q-93 -157 -328 -157h-209q-132 0 -232 25.5t-163.5 70t-103 112.5t-55 144.5t-15.5 173.5z" />
<glyph unicode="H" horiz-adv-x="1677" d="M82 37q72 75 72 184v991q0 109 -72 187l10 35h531l10 -35q-74 -80 -74 -187v-354h559v354q0 107 -74 187l11 35h530l10 -35q-71 -77 -71 -187v-991q0 -110 71 -184l-10 -37h-530l-11 37q74 77 74 184v354h-559v-354q0 -107 74 -184l-10 -37h-531z" />
<glyph unicode="I" horiz-adv-x="714" d="M82 37q72 75 72 184v991q0 109 -72 187l10 35h531l10 -35q-74 -80 -74 -187v-991q0 -107 74 -184l-10 -37h-531z" />
<glyph unicode="J" horiz-adv-x="1191" d="M0 391l37 10q39 -68 124.5 -96.5t180.5 -28.5h51q53 0 107.5 18.5t96.5 60t42 96.5q0 16 -0.5 81.5t-1 236.5t-0.5 443q0 108 -74 185l10 37h531l8 -37q-72 -78 -72 -185v-782q0 -26 11.5 -62t27.5 -55v-24q-36 -50 -76.5 -91.5t-78 -71.5t-82.5 -53.5t-80 -38.5 t-83.5 -25.5t-79.5 -15.5t-80 -7.5t-74 -3t-72 -0.5h-11h-253z" />
<glyph unicode="K" horiz-adv-x="1646" d="M82 37q72 75 72 184v991q0 109 -72 187l10 35h531l10 -35q-74 -80 -74 -187v-325h182l211 325q54 84 54 149q0 20 -5 38l9 35h544l11 -35q-127 -82 -195 -187l-305 -464l352 -527q74 -110 197 -184l-10 -37h-557l-9 37q4 16 4 33q0 66 -55 151l-260 387h-168v-387 q0 -107 74 -184l-10 -37h-531z" />
<glyph unicode="L" horiz-adv-x="1396" d="M82 37q72 75 72 184v991q0 110 -72 185l10 37h529l10 -37q-32 -35 -52 -82t-20 -92v-934q87 15 177 17q25 1 48 1q60 -1 105 -5q63 -6 129 -8h26q50 0 90 5q50 6 104 35t103 82l33 -15l-108 -424q-116 -19 -199 -19q-4 0 -7 -1q-78 1 -135 11q-59 10 -207.5 21t-348.5 11 h-277z" />
<glyph unicode="M" horiz-adv-x="1904" d="M82 37q72 75 72 184v991q0 109 -72 187l10 35h428q35 -50 187 -266.5t235 -331.5h21q82 113 230 325t191 273h428l11 -35q-72 -78 -72 -187v-991q0 -109 72 -184l-11 -37h-530l-10 37q74 77 74 184v598h-29l-324 -454h-82l-323 454h-29v-598q0 -107 74 -184l-10 -37h-531 z" />
<glyph unicode="N" horiz-adv-x="1658" d="M82 37q74 77 74 184v993q0 108 -74 185l10 35h428q22 -85 69 -166t113.5 -155t129 -134t145.5 -136.5t133 -129.5h31v501q0 107 -72 185l10 35h490l10 -35q-74 -81 -74 -185v-1214h-360q0 51 -27.5 110.5t-67 112t-105.5 120.5t-121.5 118.5t-138 126t-132.5 123.5h-31 v-490q0 -109 72 -184l-8 -37h-494z" />
<glyph unicode="O" horiz-adv-x="1613" d="M78 508v418q0 98 15.5 175t55 145t103 112.5t163.5 70t232 25.5h320q132 0 232 -25.5t163.5 -70t103 -112.5t55 -145t15.5 -175v-418q0 -97 -15.5 -173.5t-55 -144.5t-103 -112.5t-163.5 -70t-232 -25.5h-320q-132 0 -232 25.5t-163.5 70t-103 112.5t-55 144.5 t-15.5 173.5zM481 428q0 -58 46.5 -105t119.5 -47h320q73 0 119.5 47t46.5 105v578q0 59 -46.5 105t-119.5 46h-320q-73 0 -119.5 -46t-46.5 -105v-578z" />
<glyph unicode="P" horiz-adv-x="1456" d="M82 37q72 75 72 184v991q0 109 -72 187l10 35h877q207 0 320.5 -106t113.5 -310v-127q0 -204 -113.5 -310t-320.5 -106h-410v-266q0 -44 20 -90.5t52 -81.5l-10 -37h-529zM559 748h297q56 0 99.5 37t43.5 92l-2 155q-1 56 -42.5 92.5t-98.5 36.5h-297v-413z" />
<glyph unicode="Q" d="M82 510v418q0 98 15.5 174.5t55 144.5t103.5 112t164 69.5t233 25.5h326q133 0 233 -25.5t163.5 -69.5t102.5 -112t54.5 -144.5t15.5 -174.5v-418q0 -81 -11 -147.5t-36 -127.5t-68 -106t-105 -79t-150 -51t-199 -17h-84v-25q82 -50 160.5 -78.5t132.5 -34.5q29 -3 56 -3 q25 0 49 3q50 5 74.5 14t43.5 19l23 -29l-146 -266q-2 -1 -19 -5.5t-28 -6.5t-35 -5.5t-47 -1.5t-57 5.5t-72.5 15t-85 27.5t-103.5 42t-120 60q-77 40 -145 63.5t-114 31.5q-34 6 -67 6h-20q-42 -3 -65 -9.5t-48 -17.5l-22 33l174 162l-2 28q-182 56 -256 176t-74 324z M487 430q0 -58 47.5 -104.5t120.5 -46.5h324q73 0 119.5 46.5t46.5 104.5v578q0 59 -46.5 105t-119.5 46h-326q-74 0 -120 -46t-46 -105v-578z" />
<glyph unicode="R" horiz-adv-x="1560" d="M82 37q72 75 72 184v991q0 109 -72 187l10 35h903q204 0 316 -104.5t112 -305.5v-33q0 -132 -60.5 -230.5t-180.5 -144.5v-24q87 -17 129 -73.5t61 -153.5q47 -256 156 -322l-10 -43h-412q-48 35 -78.5 117.5t-44.5 167.5q-14 77 -32.5 126t-52 84.5t-84 50.5t-126.5 15 h-129v-352q0 -44 20 -90.5t52 -81.5l-10 -37h-529zM559 809h320q56 0 98.5 36t42.5 91v102q0 55 -42.5 91t-98.5 36h-320v-356z" />
<glyph unicode="S" horiz-adv-x="1435" d="M70 993v35q0 87 25 161t76.5 135t141.5 95.5t209 34.5h664l78 -416l-37 -10q-31 53 -105.5 89t-199.5 36h-301q-75 0 -111.5 -32t-36.5 -89v-20q0 -50 38.5 -80t86.5 -35l451 -63q135 -17 226 -121t91 -240v-72q0 -88 -22.5 -160.5t-71.5 -132t-136.5 -93t-207.5 -33.5 h-758l-78 415l37 11q30 -53 105.5 -89t199.5 -36h383q146 0 146 112v23q0 40 -32 71t-75 37l-416 58q-160 22 -265 136.5t-105 272.5z" />
<glyph unicode="T" horiz-adv-x="1386" d="M23 1036l77 437l35 10q24 -22 57.5 -33.5t59 -13.5t67.5 -2h746q42 0 68 2t59.5 13.5t56.5 33.5l37 -10l78 -437l-37 -8q-44 53 -107.5 82t-134.5 29h-190v-918q0 -107 74 -184l-11 -37h-530l-10 37q71 74 71 184v918h-188q-148 0 -242 -111z" />
<glyph unicode="U" horiz-adv-x="1634" d="M82 1397l10 37h526l11 -37q-72 -75 -72 -185v-759q0 -73 81.5 -123.5t178.5 -50.5t178.5 50.5t81.5 123.5v759q0 111 -71 185l10 37h526l10 -37q-71 -74 -71 -185v-759q4 -79 39 -117v-25q-52 -78 -109.5 -135.5t-116 -94t-126 -59t-133 -31t-144.5 -9.5h-148 q-205 0 -357 72.5t-271 256.5v25q35 42 39 117v759q0 110 -72 185z" />
<glyph unicode="V" horiz-adv-x="1632" d="M0 1397l8 37h537l8 -37q-20 -36 -19.5 -82t19.5 -103l252 -821h22l254 821q18 54 18 99q0 48 -20 86l11 37h534l8 -37q-100 -74 -143 -185l-365 -991q-22 -53 -21 -98q0 -47 23 -86l-10 -37h-600l-8 37q21 41 21 89q0 51 -19 95l-367 991q-43 111 -143 185z" />
<glyph unicode="W" horiz-adv-x="2195" d="M16 1399l11 35h538l10 -35q-39 -55 -39 -130q0 -27 5 -57l131 -669h24l258 891h287l258 -891h25l131 669q5 28 5 54q0 74 -42 133l10 35h541l10 -35q-87 -78 -108 -187l-193 -991q-4 -28 -4 -53q0 -77 41 -131l-10 -37h-637l-11 37q19 31 24 71q2 13 2 26q0 25 -7 48 q-94 326 -168 529h-23q-94 -278 -167 -529q-5 -20 -5 -44q0 -15 2 -30q5 -41 21 -71l-10 -37h-637l-8 37q39 54 39 128q0 27 -5 56l-190 991q-20 108 -109 187z" />
<glyph unicode="X" horiz-adv-x="1673" d="M10 35q122 80 197 184l373 522l-338 471q-74 107 -195 185l8 37h549l6 -37q-1 -8 -1 -16q0 -72 69 -169l149 -217h21l147 217q69 97 69 169q0 8 -1 16l8 37h549l8 -37q-115 -72 -196 -185l-338 -471l372 -522q75 -104 197 -184l-8 -35h-549l-8 35q1 8 1 17q0 73 -67 167 l-184 270h-21l-186 -270q-67 -94 -67 -167q0 -9 1 -17l-8 -35h-549z" />
<glyph unicode="Y" horiz-adv-x="1658" d="M23 1397l8 37h547l10 -37q-1 -5 -1 -11q0 -58 66 -174l166 -282h21l166 282q68 119 68 175q0 5 -1 10l10 37h545l8 -37q-119 -77 -194 -185l-414 -628l2 -363q3 -105 76 -184l-10 -37h-531l-10 35q72 78 72 184l-4 383l-404 610q-81 113 -196 185z" />
<glyph unicode="Z" horiz-adv-x="1404" d="M18 274l734 832v33h-398q-71 0 -134 -29t-107 -84l-37 10l69 398h1094l41 -277l-709 -831v-31h502q153 0 242 111l35 -11l-76 -436l-37 -8q-34 30 -78 39.5t-106 9.5h-994z" />
<glyph unicode="[" horiz-adv-x="802" d="M82 0v1434h643v-256h-252v-922h252v-256h-643z" />
<glyph unicode="\" horiz-adv-x="1026" d="M0 1434h360l666 -1434h-362z" />
<glyph unicode="]" horiz-adv-x="802" d="M78 0v256h252v922h-252v256h643v-1434h-643z" />
<glyph unicode="^" horiz-adv-x="1269" d="M78 645l383 789h348l383 -789h-342l-203 488h-24l-203 -488h-342z" />
<glyph unicode="_" horiz-adv-x="1163" d="M0 0h1163v-291h-1163v291z" />
<glyph unicode="`" horiz-adv-x="815" d="M98 1606h346l273 -320h-271z" />
<glyph unicode="a" horiz-adv-x="1409" d="M74 313v52q0 69 21 127t63 104.5t113 73t165 26.5h441v33q0 71 -50.5 117.5t-136.5 46.5h-190q-124 0 -199 -38t-106 -93l-52 16l97 391h567q110 0 198.5 -34t144 -93t85 -134t29.5 -160v-527q0 -139 71 -184l-10 -37h-258q-54 0 -97.5 29t-66.5 80h-20 q-32 -64 -94 -95.5t-173 -31.5h-180q-94 0 -165 26.5t-113 73t-63 104.5t-21 127zM436 371q0 -119 129 -119h180q56 0 92.5 37t36.5 82v116h-309q-68 0 -98.5 -29t-30.5 -87z" />
<glyph unicode="b" horiz-adv-x="1570" d="M82 37q74 46 74 184v991q0 112 -70 185l10 37q103 0 202.5 5t147.5 10l48 5h53v-399h28q111 114 373 114q127 0 223.5 -26.5t157.5 -72.5t99.5 -114.5t53.5 -144.5t15 -170v-131q0 -95 -15 -171t-53.5 -144.5t-99.5 -114t-157.5 -72t-223.5 -26.5q-314 0 -413 168h-25 l-45 -150h-373zM543 535q0 -117 57 -182.5t201 -65.5h55q144 0 202 65.5t58 182.5v81q0 117 -58 182.5t-202 65.5h-55q-144 0 -201 -65.5t-57 -182.5v-81z" />
<glyph unicode="c" horiz-adv-x="1265" d="M74 508v135q0 94 15 170t53.5 144t99.5 113.5t157.5 72t223.5 26.5h464l78 -411l-35 -8q-31 52 -106.5 87t-200.5 35h-207q-71 0 -115 -44.5t-44 -100.5v-303q0 -56 44 -100.5t115 -44.5h240q223 0 295 122l37 -8l-68 -411h-497q-127 0 -223.5 26.5t-157.5 72 t-99.5 113.5t-53.5 144t-15 170z" />
<glyph unicode="d" horiz-adv-x="1570" d="M74 510v131q0 94 15 170t53.5 144.5t99.5 114.5t157.5 72.5t223.5 26.5q261 0 372 -114h29v157q0 112 -70 185l11 37q103 0 202 5t147 10l48 5h53v-1233q0 -138 74 -184l-10 -37h-373l-45 150h-25q-99 -168 -413 -168q-127 0 -223.5 26.5t-157.5 72t-99.5 114 t-53.5 144.5t-15 171zM455 535q0 -117 58 -182.5t202 -65.5h55q144 0 201 65.5t57 182.5v81q0 117 -57 182.5t-201 65.5h-55q-144 0 -202 -65.5t-58 -182.5v-81z" />
<glyph unicode="e" horiz-adv-x="1366" d="M74 510v131q0 94 15 170t53.5 144.5t99.5 114.5t157.5 72.5t223.5 26.5h104q160 0 271.5 -33.5t175 -100t91 -153t27.5 -204.5v-199h-831v-73q0 -57 45.5 -106.5t114.5 -49.5h272q134 0 223.5 27.5t116.5 72.5l37 -10l-115 -358h-532q-127 0 -223.5 26.5t-157.5 72 t-99.5 114t-53.5 144.5t-15 171zM461 686h444v41q0 74 -43 115t-119 41h-122q-71 0 -115.5 -45t-44.5 -101v-51z" />
<glyph unicode="f" horiz-adv-x="1073" d="M35 901v248h160q3 112 30 192.5t87.5 143.5t166 94.5t258.5 32.5h258l56 -373l-37 -10q-20 34 -43.5 55.5t-72 36t-120.5 14.5q-196 -6 -196 -186h372v-248h-364v-680q0 -109 72 -184l-11 -37h-516l-10 37q74 77 74 184v680h-164z" />
<glyph unicode="g" horiz-adv-x="1568" d="M74 549v131q0 94 15 170t53.5 144.5t99.5 114.5t157.5 72.5t223.5 26.5q312 0 415 -170h25l45 152h373l10 -37q-74 -46 -74 -184v-936q0 -225 -128.5 -356.5t-366.5 -131.5h-684l-86 381l36 11q28 -52 85.5 -78.5t183.5 -26.5l395 -2q82 0 130 51.5t48 120.5v139h-29 q-111 -121 -378 -121q-127 0 -223.5 26.5t-157.5 72.5t-99.5 114.5t-53.5 144.5t-15 171zM455 573q0 -117 58 -182t202 -65h55q144 0 201 65t57 182v82q0 117 -57 182.5t-201 65.5h-55q-144 0 -202 -65.5t-58 -182.5v-82z" />
<glyph unicode="h" horiz-adv-x="1636" d="M82 37q72 75 72 184v991q0 112 -70 185l10 37q103 0 202.5 5t147.5 10l48 5h53v-403h28q113 118 377 118q280 0 410.5 -126.5t130.5 -401.5v-420q0 -109 72 -184l-11 -37h-516l-10 37q74 77 74 184v395q0 130 -59 189t-191 59h-45q-260 0 -260 -233v-410q0 -108 73 -184 l-10 -37h-516z" />
<glyph unicode="i" horiz-adv-x="700" d="M82 37q72 75 72 184v707q0 109 -72 184l10 37h516l10 -37q-73 -76 -73 -184v-707q0 -108 73 -184l-10 -37h-516zM137 1333v297q19 16 35 35h354l35 -35v-297q-16 -19 -35 -35h-354z" />
<glyph unicode="j" horiz-adv-x="716" d="M-260 -106l37 14q19 -21 28 -30t32.5 -26.5t45.5 -26t59 -16t81 -8.5q68 3 106.5 47t38.5 101l2 979q0 109 -72 184l8 37h519l10 -37q-74 -77 -74 -184v-893q0 -93 -14.5 -165t-51.5 -134.5t-97.5 -103t-154.5 -63.5t-220 -24h-189zM154 1333v297q16 13 34 35h355l35 -35 v-297q-16 -19 -35 -35h-355z" />
<glyph unicode="k" horiz-adv-x="1474" d="M82 35q72 78 72 186v991q0 112 -70 185l10 37q103 0 202.5 5t147.5 10l48 5h53v-756h135l149 230q55 85 55 148q0 19 -5 36l8 37h508l8 -37q-125 -79 -193 -184l-217 -330l232 -377q33 -55 85.5 -105t116.5 -79l-4 -37h-467q-110 165 -270 430h-141v-209q0 -107 73 -186 l-10 -35h-516z" />
<glyph unicode="l" horiz-adv-x="700" d="M82 37q72 75 72 184v991q0 112 -70 185l10 37q103 0 202.5 5t147.5 10l48 5h53v-1233q0 -108 73 -184l-10 -37h-516z" />
<glyph unicode="m" horiz-adv-x="2443" d="M78 37q72 75 72 184v707q0 109 -72 184l10 37q38 0 93.5 2t107 5t96.5 6t73 5t27 2h47l5 -145h28q118 145 363 145q145 0 241 -39.5t177 -146.5h30q82 105 183.5 145.5t246.5 40.5q262 0 377 -132t115 -396v-420q0 -106 72 -184l-9 -37h-518l-8 37q72 78 72 184v395 q0 133 -49 190.5t-181 57.5q-117 0 -187.5 -49t-70.5 -160v-434q0 -106 72 -184l-8 -37h-518l-9 37q72 78 72 184v395q0 133 -48.5 190.5t-180.5 57.5q-114 0 -186 -47.5t-72 -154.5v-441q0 -108 73 -184l-10 -37h-516z" />
<glyph unicode="n" horiz-adv-x="1605" d="M78 37q72 75 72 184v707q0 109 -72 184l10 37q103 0 202 5t147 10l48 5h47l5 -118h28q108 118 371 118q127 0 221.5 -27t151.5 -72t91.5 -114.5t47 -144t12.5 -170.5v-420q0 -109 72 -184l-10 -37h-516l-11 37q74 77 74 184v395q0 57 -10.5 99t-37 77.5t-77.5 53.5 t-125 18h-18q-144 0 -202 -65.5t-58 -182.5v-395q0 -108 73 -184l-10 -37h-516z" />
<glyph unicode="o" horiz-adv-x="1482" d="M74 510v131q0 94 15 170t53.5 144.5t99.5 114.5t157.5 72.5t223.5 26.5h237q127 0 223.5 -26.5t157.5 -72.5t99.5 -114.5t53.5 -144.5t15 -170v-131q0 -95 -15 -171t-53.5 -144.5t-99.5 -114t-157.5 -72t-223.5 -26.5h-237q-127 0 -223.5 26.5t-157.5 72t-99.5 114 t-53.5 144.5t-15 171zM457 424q0 -56 44.5 -100.5t114.5 -44.5h250q70 0 115 44.5t45 100.5v301q0 58 -44.5 102.5t-115.5 44.5h-248q-72 0 -116.5 -45t-44.5 -102v-301z" />
<glyph unicode="p" horiz-adv-x="1566" d="M78 -418q72 75 72 185v1175q-6 101 -72 170l10 37q102 0 192.5 5t130.5 10l40 5h49l4 -168h24q102 168 414 168q280 0 415.5 -126.5t135.5 -401.5v-131q0 -275 -136 -401.5t-415 -126.5q-259 0 -371 114h-30v-329q0 -109 73 -185l-10 -37h-516zM537 535q0 -130 63.5 -189 t196.5 -59h55q132 0 195 59.5t63 188.5v81q0 129 -63 188.5t-195 59.5h-55q-133 0 -196.5 -59t-63.5 -189v-81z" />
<glyph unicode="q" horiz-adv-x="1566" d="M74 510v131q0 275 135.5 401.5t415.5 126.5q311 0 413 -168h23l45 148h373l10 -37q-72 -45 -72 -184v-1161q0 -110 72 -185l-10 -37h-516l-11 37q74 77 74 185v329h-31q-112 -114 -370 -114q-279 0 -415 126.5t-136 401.5zM457 535q0 -129 63 -188.5t195 -59.5h55 q133 0 196.5 59t63.5 189v81q0 130 -63.5 189t-196.5 59h-55q-132 0 -195 -59.5t-63 -188.5v-81z" />
<glyph unicode="r" horiz-adv-x="1212" d="M78 37q72 75 72 184v707q0 109 -72 184l10 37q102 0 200.5 5t146.5 10l48 5h49l5 -116h28q107 116 369 116h158l86 -401l-35 -10q-31 53 -104.5 89t-198.5 36h-43q-128 0 -187 -53t-69 -150v-459q0 -108 73 -184l-10 -37h-516z" />
<glyph unicode="s" horiz-adv-x="1302" d="M72 813q0 69 25.5 132t73.5 113.5t126 80.5t174 30h598l96 -370l-35 -13q-69 116 -290 119h-260q-59 0 -89 -24t-30 -58q0 -39 30.5 -60.5t69.5 -25.5l352 -35q146 -15 231 -110t85 -230v-43q0 -69 -21.5 -128t-65 -107t-117.5 -75t-171 -27h-686l-94 378l37 11 q31 -53 106 -90t199 -37h315q115 0 115 90q0 19 -6.5 33t-15 22t-24.5 13.5t-28.5 7.5t-32.5 4l-354 35q-149 13 -231 112.5t-82 251.5z" />
<glyph unicode="t" horiz-adv-x="1126" d="M41 895v252q9 1 24 3.5t59 22t84.5 50.5t91 97.5t87.5 154.5h199v-326h389l-2 -283l-35 -10q-48 41 -223 45h-129v-477q0 -54 45 -99t114 -46q127 0 185 26.5t88 77.5l35 -8l-52 -375h-258q-126 1 -220 24t-155 63.5t-98 103t-52 135t-15 166.5l-2 403h-160z" />
<glyph unicode="u" horiz-adv-x="1585" d="M74 1112l10 37h516l8 -37q-71 -77 -71 -184v-393q0 -45 6 -80t22.5 -67.5t44 -54t72 -34t104.5 -12.5q144 0 201 65.5t57 182.5v393q0 108 -73 184l10 37h516l10 -37q-71 -74 -71 -184v-707q0 -138 71 -186l-10 -35h-373l-45 154h-24q-41 -74 -136 -123t-243 -49 q-128 0 -222.5 27t-153 72t-94 114.5t-48.5 144t-13 170.5v418q0 110 -71 184z" />
<glyph unicode="v" horiz-adv-x="1497" d="M0 1112l8 37h537l8 -37q-21 -38 -21 -86q0 -45 19 -98l186 -531h23l186 531q19 53 19 98q0 47 -21 86l8 37h537l8 -37q-101 -75 -143 -184l-281 -707q-21 -54 -21 -99.5t21 -84.5l-8 -37h-633l-8 37q21 38 21 84.5t-21 99.5l-281 707q-42 109 -143 184z" />
<glyph unicode="w" horiz-adv-x="2101" d="M8 1112l10 37h535l8 -37q-17 -29 -21 -61.5t-0.5 -57.5t13.5 -65l109 -475h22l211 696h311l209 -696h25l108 475q10 38 13.5 64t-1.5 59t-22 61l10 37h535l10 -37q-45 -33 -82.5 -82.5t-54.5 -101.5l-252 -928h-453l-190 618h-23l-190 -618h-451l-254 928 q-32 102 -135 184z" />
<glyph unicode="x" horiz-adv-x="1423" d="M4 37q110 67 193 184l268 379l-236 328q-86 119 -192 184l10 37h494l10 -37q-6 -20 -6 -42q0 -65 53 -142l102 -144h23l102 144q53 77 53 142q0 22 -6 42l9 37h495l10 -37q-110 -67 -194 -184l-236 -328l269 -379q82 -116 194 -184l-10 -37h-496l-8 37q6 21 6 43 q0 66 -53 141l-135 195h-23l-135 -195q-53 -78 -53 -143q0 -21 6 -41l-10 -37h-494z" />
<glyph unicode="y" horiz-adv-x="1572" d="M0 1112l10 37h510l10 -37q-14 -30 -14 -65q0 -53 31 -119l248 -557h22l215 557q22 54 22 100t-22 84l10 37h519l12 -37h-2q-101 -75 -146 -184l-569 -1383h-455l-10 37q111 55 168 185l100 233h-81l-416 928q-50 105 -162 184z" />
<glyph unicode="z" horiz-adv-x="1318" d="M74 168l598 659v35h-291q-146 0 -244 -119l-35 9l70 397h991l45 -184l-583 -643v-35h344q71 0 133.5 32t107.5 89l35 -11l-69 -397h-1063z" />
<glyph unicode="{" horiz-adv-x="915" d="M45 616v201h41q46 0 72 24.5t26 67.5v281q0 116 66 180t188 64h373l27 -250h-154q-45 0 -74.5 -25t-29.5 -67v-183q0 -103 -105 -182v-20q105 -79 105 -183v-182q0 -42 29.5 -67t74.5 -25h154l-17 -250h-383q-122 0 -188 64t-66 180v280q0 43 -26 67.5t-72 24.5h-41z" />
<glyph unicode="|" horiz-adv-x="518" d="M82 0v1434h354v-1434h-354z" />
<glyph unicode="}" horiz-adv-x="915" d="M78 250h153q45 0 75 25t30 67v182q0 105 104 183v20q-104 78 -104 182v183q0 42 -30 67t-75 25h-153l26 250h373q122 0 188 -64t66 -180v-281q0 -43 26 -67.5t72 -24.5h41v-201h-41q-46 0 -72 -24.5t-26 -67.5v-280q0 -116 -66 -180t-188 -64h-383z" />
<glyph unicode="~" horiz-adv-x="1179" d="M78 676q47 111 125 168t180 57q105 0 205 -51q108 -55 188 -55q49 0 79 25t56 75l191 -143q-99 -220 -305 -220q-106 0 -205 52q-104 55 -191 55q-48 0 -79.5 -24.5t-53.5 -75.5z" />
<glyph unicode="&#xa1;" horiz-adv-x="593" d="M82 0l45 922h340l45 -922h-430zM100 1122v312h394v-312h-394z" />
<glyph unicode="&#xa2;" horiz-adv-x="1265" d="M76 651v131q0 112 23.5 198t78.5 157t155.5 111.5t244.5 45.5v140h200v-138h312l77 -401l-34 -8q-31 50 -107 84.5t-201 34.5h-207q-71 0 -115 -43.5t-44 -98.5v-295q0 -55 44 -98t115 -43h240q222 0 295 119l37 -8l-68 -400h-344v-139h-200v139q-116 5 -204 33t-144 73 t-91 109.5t-49 136.5t-14 160z" />
<glyph unicode="&#xa3;" horiz-adv-x="1343" d="M45 0v295h8q73 0 119.5 46.5t46.5 104.5v222h-174v209h174v53q0 93 16 169.5t54 143.5t98.5 113t153 72t213.5 26h372l95 -412l-37 -8q-29 49 -96 84t-175 39h-125q-73 0 -119 -46t-46 -105v-129h485v-209h-485v-19q0 -229 -95 -354h738v-295h-1221z" />
<glyph unicode="&#xa4;" horiz-adv-x="1146" d="M78 358l155 154q-40 81 -40 199q0 121 47 204l-162 160l133 131l164 -162q82 43 198 43q120 0 201 -40l162 159l133 -131l-160 -157q45 -83 45 -207q0 -115 -41 -199l156 -154l-133 -131l-154 152q-88 -45 -209 -45q-120 0 -208 45l-154 -152zM412 711q0 -77 42.5 -119.5 t118.5 -42.5q78 0 121 42.5t43 119.5q0 76 -43 117.5t-121 41.5q-76 0 -118.5 -41.5t-42.5 -117.5z" />
<glyph unicode="&#xa5;" horiz-adv-x="1658" d="M23 1397l8 37h547l10 -37q-7 -58 65 -185l166 -282h21l166 282q74 130 67 185l10 37h545l8 -37q-119 -77 -194 -185l-410 -622h443v-125h-447v-80h447v-127h-445v-37q3 -105 76 -184l-10 -37h-531l-10 35q72 78 72 184v39h-445v127h443v80h-443v125h441v12l-404 610 q-81 113 -196 185z" />
<glyph unicode="&#xa6;" horiz-adv-x="491" d="M78 0v565h336v-565h-336zM78 870v564h336v-564h-336z" />
<glyph unicode="&#xa7;" horiz-adv-x="1312" d="M78 590v78q0 123 63 209q-63 89 -63 221q0 69 25.5 132t73.5 113.5t126 80.5t174 30h586l108 -371l-34 -12q-69 116 -291 119h-240q-62 0 -90.5 -26t-28.5 -62q0 -45 32 -68.5t79 -23.5h276q92 0 163 -26t113.5 -72t63.5 -104t21 -126v-78q0 -124 -64 -209 q64 -95 64 -221q0 -69 -25.5 -132t-73.5 -113.5t-126 -80.5t-174 -30h-586l-109 370l35 13q69 -116 291 -119h240q62 0 90 26t28 62q0 45 -31.5 68.5t-78.5 23.5h-277q-92 0 -163 26t-113 72t-63 104t-21 126zM467 631q0 -49 34.5 -76t92.5 -27h121q131 0 131 113 q0 49 -34.5 75.5t-92.5 26.5h-121q-64 -2 -97.5 -27.5t-33.5 -84.5z" />
<glyph unicode="&#xa8;" horiz-adv-x="956" d="M98 1286v313h295v-313h-295zM563 1286v313h295v-313h-295z" />
<glyph unicode="&#xa9;" horiz-adv-x="1335" d="M78 717q0 291 142 440.5t448 149.5t447.5 -149.5t141.5 -440.5q0 -590 -589 -590q-590 0 -590 590zM217 717q0 -451 451 -451q450 0 450 451q0 223 -108 336.5t-342 113.5t-342.5 -114t-108.5 -336zM340 631v172q0 233 246 233h186q68 0 114 -19.5t68 -55.5t30.5 -73 t8.5 -85v-10h-141v43q0 29 -22 49t-62 20h-193q-41 0 -62 -21.5t-21 -56.5v-221q0 -35 21 -56.5t62 -21.5h193q41 0 62.5 20t21.5 50v41l141 2v-10q0 -49 -8.5 -86.5t-30.5 -72.5t-68 -54t-114 -19h-186q-130 0 -188 64t-58 168z" />
<glyph unicode="&#xaa;" horiz-adv-x="1060" d="M78 840v37q0 104 64 170.5t196 66.5h315v23q0 52 -35.5 85t-97.5 33h-133q-90 0 -144.5 -26t-76.5 -64l-25 9l68 280h395q155 0 241.5 -87.5t86.5 -215.5v-379q0 -101 51 -131l-8 -27h-184q-38 0 -70 20.5t-49 57.5h-15q-23 -46 -66.5 -68t-123.5 -22h-129 q-132 0 -196 66.5t-64 171.5zM338 881q0 -86 92 -86h129q39 0 65.5 26.5t26.5 59.5v84h-221q-49 0 -70.5 -21t-21.5 -63z" />
<glyph unicode="&#xab;" horiz-adv-x="1376" d="M78 717l420 551h309l-420 -551l420 -551h-309zM569 717l420 551h309l-419 -551l419 -551h-309z" />
<glyph unicode="&#xac;" horiz-adv-x="917" d="M78 717v219h762v-438h-273v219h-489z" />
<glyph unicode="&#xad;" horiz-adv-x="1062" d="M78 571v291h907v-291h-907z" />
<glyph unicode="&#xae;" horiz-adv-x="827" d="M78 1137q0 156 81 236.5t255 80.5t255 -80.5t81 -236.5q0 -320 -336 -320q-170 0 -253 82.5t-83 237.5zM156 1137q0 -248 258 -248t258 248q0 122 -61.5 184.5t-196.5 62.5q-258 0 -258 -247zM279 952v369h200q45 0 69.5 -22.5t24.5 -55.5v-43q0 -51 -43 -65v-7 q43 -21 43 -59v-84q0 -11 1.5 -19.5t3.5 -11.5l2 -2h-86q-9 10 -9 33v78q0 11 -7.5 20t-18.5 9h-94v-140h-86zM365 1159h86q34 0 34 31v33q0 28 -34 28h-86v-92z" />
<glyph unicode="&#xaf;" horiz-adv-x="1017" d="M98 1286v213h822v-213h-822z" />
<glyph unicode="&#xb0;" horiz-adv-x="608" d="M78 1249q0 106 56.5 167t168.5 61q113 0 170 -61t57 -167q0 -105 -57.5 -164t-169.5 -59q-110 0 -167.5 59t-57.5 164zM203 1249q0 -47 26 -75.5t74 -28.5q50 0 76.5 28.5t26.5 75.5q0 48 -26.5 78.5t-76.5 30.5q-49 0 -74.5 -30.5t-25.5 -78.5z" />
<glyph unicode="&#xb1;" horiz-adv-x="1163" d="M78 0v260h1007v-260h-1007zM78 684v244h358v295h291v-295h358v-244h-358v-295h-291v295h-358z" />
<glyph unicode="&#xb2;" horiz-adv-x="915" d="M78 614v226q0 75 52.5 134t131.5 83q57 17 260 71q29 6 50.5 22.5t21.5 45.5v14q0 70 -84 70h-186q-136 0 -177 -72l-22 6l45 240h395q134 0 198 -70t64 -176v-24q0 -88 -60 -149.5t-155 -86.5q-116 -31 -239 -69q-24 -6 -43 -26t-19 -42v-23h330q135 0 176 72l21 -6 l-45 -240h-715z" />
<glyph unicode="&#xb3;" horiz-adv-x="862" d="M78 834l20 4q18 -33 57 -60t99 -30h203q40 0 64 21t24 56v72q0 34 -24 55t-64 21h-144q-56 0 -88 -39l-20 6l45 207l20 6q31 -29 131 -29h58q30 1 48.5 19.5t18.5 46.5v53q0 30 -20 48t-53 18h-181q-113 -5 -155 -82l-23 6l45 221h432q96 0 145.5 -50t49.5 -126v-84 q0 -49 -31 -85.5t-86 -55.5v-15q64 -17 99.5 -56t35.5 -93v-111q0 -76 -52 -126t-150 -50h-471z" />
<glyph unicode="&#xb4;" horiz-adv-x="815" d="M98 1286l273 320h346l-348 -320h-271z" />
<glyph unicode="&#xb5;" horiz-adv-x="1589" d="M78 -418q72 75 72 185v1161q0 109 -72 184l10 37h516l8 -37q-71 -77 -71 -184v-393q0 -57 10.5 -99t37 -77.5t77.5 -53.5t125 -18q144 0 201 65.5t57 182.5v393q0 107 -74 184l10 37h516l10 -37q-71 -74 -71 -184v-707q0 -138 71 -186l-10 -35h-373l-45 154h-24 q-41 -74 -136 -123t-243 -49h-139v-215q0 -108 71 -185l-8 -37h-516z" />
<glyph unicode="&#xb6;" horiz-adv-x="1722" d="M78 891v127q0 204 113.5 310t320.5 106h1118l10 -35q-71 -77 -71 -187v-991q0 -110 71 -184l-10 -37h-438l-10 37q63 69 63 172v952h-184v-940q0 -118 63 -184l-10 -37h-438l-10 37q32 35 51.5 81t19.5 91v266h-225q-207 0 -320.5 106t-113.5 310z" />
<glyph unicode="&#xb7;" horiz-adv-x="464" d="M78 561v313h309v-313h-309z" />
<glyph unicode="&#xb8;" horiz-adv-x="628" d="M98 -283l201 398l231 -115l-247 -375z" />
<glyph unicode="&#xb9;" horiz-adv-x="520" d="M78 1194v158q35 0 64 8.5t45.5 20.5t28.5 24t16 21l4 8h190l6 -21q-31 -36 -31 -106v-566q0 -62 41 -106l-6 -21h-301l-6 21q41 44 41 106v453h-92z" />
<glyph unicode="&#xba;" horiz-adv-x="1112" d="M78 981v92q0 68 11 122.5t38 104t71 82.5t113 52.5t160 19.5h170q91 0 160 -19.5t113 -52.5t71 -82.5t38 -104t11 -122.5v-92q0 -86 -18 -151.5t-61 -118.5t-122 -81t-192 -28h-170q-113 0 -192 28t-122 81t-61 118.5t-18 151.5zM352 918q0 -40 32 -71.5t83 -31.5h178 q50 0 82.5 32t32.5 71v217q0 41 -32 73.5t-83 32.5h-178q-51 0 -83 -32.5t-32 -73.5v-217z" />
<glyph unicode="&#xbb;" horiz-adv-x="1376" d="M78 166l420 551l-420 551h309l420 -551l-420 -551h-309zM569 166l420 551l-420 551h310l419 -551l-419 -551h-310z" />
<glyph unicode="&#xbc;" horiz-adv-x="1796" d="M78 1194v158q56 0 108 20.5t76 41.5l25 20h131l6 -21q-35 -38 -35 -106v-566q0 -60 43 -106l-6 -21h-303l-4 21q39 42 39 106v453h-80zM317 0l666 1434h262l-663 -1434h-265zM934 332l416 487h280l6 -20q-43 -46 -43 -107v-360q57 0 105 41l20 -6l-35 -187h-90v-53 q0 -61 43 -107l-6 -20h-303l-6 20q41 44 41 107v53h-367zM1128 332h234v272z" />
<glyph unicode="&#xbd;" horiz-adv-x="1902" d="M78 1194v158q56 0 108 20.5t76 41.5l25 20h131l6 -21q-35 -38 -35 -106v-566q0 -60 43 -106l-6 -21h-303l-4 21q39 42 39 106v453h-80zM317 0l666 1434h262l-663 -1434h-265zM1071 0v223q0 75 51.5 133t130.5 82q97 29 258 72q72 14 72 65v17q0 70 -84 70h-184 q-135 0 -176 -72l-21 6l45 238h391q133 0 197 -69.5t64 -174.5v-25q0 -87 -60 -147.5t-153 -85.5q-116 -31 -238 -70q-26 -6 -43.5 -24.5t-17.5 -42.5v-23h325q135 0 176 72l21 -6l-45 -238h-709z" />
<glyph unicode="&#xbe;" horiz-adv-x="2062" d="M78 834l20 4q18 -33 57 -60t99 -30h203q40 0 64 21t24 56v72q0 34 -24 55t-64 21h-144q-56 0 -88 -39l-20 6l45 207l20 6q31 -29 131 -29h58q30 1 48.5 19.5t18.5 46.5v53q0 30 -20 48t-53 18h-181q-113 -5 -155 -82l-23 6l45 221h432q96 0 145.5 -50t49.5 -126v-84 q0 -49 -31 -85.5t-86 -55.5v-15q64 -17 99.5 -56t35.5 -93v-111q0 -76 -52 -126t-150 -50h-471zM584 0l665 1434h262l-663 -1434h-264zM1200 332l416 487h280l7 -20q-43 -46 -43 -107v-360q56 0 104 41l21 -6l-35 -187h-90v-53q0 -61 43 -107l-7 -20h-303l-6 20 q41 44 41 107v53h-366zM1395 332h233v272z" />
<glyph unicode="&#xbf;" horiz-adv-x="1349" d="M78 426v8q0 159 100.5 273.5t259.5 136.5l66 6q43 6 74.5 37t31.5 71v43h404v-71q0 -74 -9.5 -126.5t-35 -99t-74.5 -76.5t-123 -44l-176 -27q-46 -5 -80.5 -35t-34.5 -80v-20q0 -57 36.5 -89t111.5 -32h301q125 0 199.5 36t105.5 89l37 -10l-78 -416h-664 q-119 0 -209 34.5t-141.5 95.5t-76.5 135t-25 161zM621 1143v311h391v-311h-391z" />
<glyph unicode="&#xc0;" d="M0 37q99 80 129 184l307 991q35 108 -16 187l10 35h770l10 -35q-48 -74 -16 -187l307 -991q36 -109 129 -184l-8 -37h-526l-11 37q52 77 17 184l-29 94h-516l-29 -94q-32 -111 17 -184l-10 -37h-525zM328 1890h346l272 -319h-270zM625 588h381l-179 542h-24z" />
<glyph unicode="&#xc1;" d="M0 37q99 80 129 184l307 991q35 108 -16 187l10 35h770l10 -35q-48 -74 -16 -187l307 -991q36 -109 129 -184l-8 -37h-526l-11 37q52 77 17 184l-29 94h-516l-29 -94q-32 -111 17 -184l-10 -37h-525zM625 588h381l-179 542h-24zM674 1571l272 319h346l-348 -319h-270z " />
<glyph unicode="&#xc2;" d="M0 37q99 80 129 184l307 991q35 108 -16 187l10 35h770l10 -35q-48 -74 -16 -187l307 -991q36 -109 129 -184l-8 -37h-526l-11 37q52 77 17 184l-29 94h-516l-29 -94q-32 -111 17 -184l-10 -37h-525zM352 1571l332 330h260l334 -330h-330l-119 153h-30l-117 -153h-330z M625 588h381l-179 542h-24z" />
<glyph unicode="&#xc3;" d="M0 37q99 80 129 184l307 991q35 108 -16 187l10 35h770l10 -35q-48 -74 -16 -187l307 -991q36 -109 129 -184l-8 -37h-526l-11 37q52 77 17 184l-29 94h-516l-29 -94q-32 -111 17 -184l-10 -37h-525zM342 1655q58 111 134.5 169t152.5 58q68 0 202 -61q147 -66 181 -66 q63 0 125 121l151 -92q-57 -111 -131.5 -170.5t-148.5 -59.5q-72 0 -207 66q-123 63 -178 63q-68 0 -129 -122zM625 588h381l-179 542h-24z" />
<glyph unicode="&#xc4;" d="M0 37q99 80 129 184l307 991q35 108 -16 187l10 35h770l10 -35q-48 -74 -16 -187l307 -991q36 -109 129 -184l-8 -37h-526l-11 37q52 77 17 184l-29 94h-516l-29 -94q-32 -111 17 -184l-10 -37h-525zM434 1571v313h295v-313h-295zM625 588h381l-179 542h-24zM899 1571 v313h295v-313h-295z" />
<glyph unicode="&#xc5;" d="M0 37q99 80 129 184l307 991q35 108 -16 187l10 35h770l10 -35q-48 -74 -16 -187l307 -991q36 -109 129 -184l-8 -37h-526l-11 37q52 77 17 184l-29 94h-516l-29 -94q-32 -111 17 -184l-10 -37h-525zM477 1837q0 135 85.5 204.5t252.5 69.5q166 0 251 -69.5t85 -204.5 q0 -274 -336 -274q-338 0 -338 274zM625 588h381l-179 542h-24zM686 1837q0 -125 129 -125t129 125q0 62 -34 93.5t-95 31.5q-129 0 -129 -125z" />
<glyph unicode="&#xc6;" horiz-adv-x="2418" d="M16 37q120 82 174 184l547 991q60 108 29 187l8 35h1256q42 0 67.5 2t59 13.5t57.5 33.5l35 -10l78 -439l-37 -10q-44 55 -107 84t-135 29h-532v-299h376q106 0 185 73l34 -10v-371l-34 -10q-81 74 -185 74h-376v-315q113 25 227 26.5t191 -7.5t151.5 -10.5t140.5 25.5 t127 93l31 -15l-109 -414q-115 -19 -198 -19.5t-141 10t-203 21.5t-340 11h-344l-11 35q72 78 72 184v96h-473l-51 -94q-61 -116 -29 -184l-10 -37h-520zM770 588h340v542h-25z" />
<glyph unicode="&#xc7;" horiz-adv-x="1320" d="M78 508v422q0 94 14.5 168.5t51 140.5t95 111t149.5 72.5t212 31.5h551l78 -412l-37 -8q-29 49 -95.5 84t-174.5 39h-275q-73 0 -119.5 -46t-46.5 -105v-578q0 -58 46.5 -105t119.5 -47h314q109 6 175 41t95 84l37 -10l-109 -409h-295l-235 -357l-185 92l134 267 q-116 6 -203.5 34.5t-143.5 73.5t-90.5 110.5t-48.5 139t-14 166.5z" />
<glyph unicode="&#xc8;" horiz-adv-x="1462" d="M82 35q72 78 72 184v993q0 107 -72 185l10 37h981q42 0 67.5 2t59 13.5t57.5 33.5l35 -10l78 -439l-37 -10q-44 55 -107 84t-134 29h-533v-299h377q105 0 184 73l35 -10v-371l-35 -10q-81 74 -184 74h-377v-315q113 25 227 26.5t191 -7.5t152 -10.5t141 25.5t127 93 l30 -15l-108 -414q-115 -19 -198 -19.5t-141.5 10t-203.5 21.5t-340 11h-344zM266 1890h346l273 -319h-271z" />
<glyph unicode="&#xc9;" horiz-adv-x="1462" d="M82 35q72 78 72 184v993q0 107 -72 185l10 37h981q42 0 67.5 2t59 13.5t57.5 33.5l35 -10l78 -439l-37 -10q-44 55 -107 84t-134 29h-533v-299h377q105 0 184 73l35 -10v-371l-35 -10q-81 74 -184 74h-377v-315q113 25 227 26.5t191 -7.5t152 -10.5t141 25.5t127 93 l30 -15l-108 -414q-115 -19 -198 -19.5t-141.5 10t-203.5 21.5t-340 11h-344zM588 1571l272 319h346l-348 -319h-270z" />
<glyph unicode="&#xca;" horiz-adv-x="1462" d="M82 35q72 78 72 184v993q0 107 -72 185l10 37h981q42 0 67.5 2t59 13.5t57.5 33.5l35 -10l78 -439l-37 -10q-44 55 -107 84t-134 29h-533v-299h377q105 0 184 73l35 -10v-371l-35 -10q-81 74 -184 74h-377v-315q113 25 227 26.5t191 -7.5t152 -10.5t141 25.5t127 93 l30 -15l-108 -414q-115 -19 -198 -19.5t-141.5 10t-203.5 21.5t-340 11h-344zM268 1571l332 330h260l334 -330h-330l-119 153h-30l-117 -153h-330z" />
<glyph unicode="&#xcb;" horiz-adv-x="1462" d="M82 35q72 78 72 184v993q0 107 -72 185l10 37h981q42 0 67.5 2t59 13.5t57.5 33.5l35 -10l78 -439l-37 -10q-44 55 -107 84t-134 29h-533v-299h377q105 0 184 73l35 -10v-371l-35 -10q-81 74 -184 74h-377v-315q113 25 227 26.5t191 -7.5t152 -10.5t141 25.5t127 93 l30 -15l-108 -414q-115 -19 -198 -19.5t-141.5 10t-203.5 21.5t-340 11h-344zM350 1571v313h295v-313h-295zM815 1571v313h295v-313h-295z" />
<glyph unicode="&#xcc;" horiz-adv-x="714" d="M-135 1890h346l272 -319h-270zM82 37q72 75 72 184v991q0 109 -72 187l10 35h531l10 -35q-74 -80 -74 -187v-991q0 -107 74 -184l-10 -37h-531z" />
<glyph unicode="&#xcd;" horiz-adv-x="714" d="M82 37q72 75 72 184v991q0 109 -72 187l10 35h531l10 -35q-74 -80 -74 -187v-991q0 -107 74 -184l-10 -37h-531zM207 1571l272 319h346l-348 -319h-270z" />
<glyph unicode="&#xce;" horiz-adv-x="714" d="M-104 1571l331 330h260l334 -330h-329l-119 153h-31l-117 -153h-329zM82 37q72 75 72 184v991q0 109 -72 187l10 35h531l10 -35q-74 -80 -74 -187v-991q0 -107 74 -184l-10 -37h-531z" />
<glyph unicode="&#xcf;" horiz-adv-x="714" d="M-23 1571v313h295v-313h-295zM82 37q72 75 72 184v991q0 109 -72 187l10 35h531l10 -35q-74 -80 -74 -187v-991q0 -107 74 -184l-10 -37h-531zM442 1571v313h295v-313h-295z" />
<glyph unicode="&#xd0;" horiz-adv-x="1667" d="M4 618v197h264v397q0 110 -71 187l10 35h913q224 0 346.5 -114t122.5 -335v-534q0 -222 -122 -336.5t-347 -114.5h-913l-10 37q71 74 71 184v397h-264zM672 297h360q61 0 107.5 39.5t46.5 99.5v561q0 61 -46 101.5t-108 40.5h-360v-324h295v-197h-295v-321z" />
<glyph unicode="&#xd1;" horiz-adv-x="1658" d="M82 37q74 77 74 184v993q0 108 -74 185l10 35h428q22 -85 69 -166t113.5 -155t129 -134t145.5 -136.5t133 -129.5h31v501q0 107 -72 185l10 35h490l10 -35q-74 -81 -74 -185v-1214h-360q0 51 -27.5 110.5t-67 112t-105.5 120.5t-121.5 118.5t-138 126t-132.5 123.5h-31 v-490q0 -109 72 -184l-8 -37h-494zM356 1655q58 111 134.5 169t152.5 58q69 0 203 -61q147 -66 180 -66q63 0 125 121l152 -92q-57 -111 -132 -170.5t-149 -59.5q-72 0 -207 66q-123 63 -178 63q-68 0 -129 -122z" />
<glyph unicode="&#xd2;" horiz-adv-x="1613" d="M78 508v418q0 98 15.5 175t55 145t103 112.5t163.5 70t232 25.5h320q132 0 232 -25.5t163.5 -70t103 -112.5t55 -145t15.5 -175v-418q0 -97 -15.5 -173.5t-55 -144.5t-103 -112.5t-163.5 -70t-232 -25.5h-320q-132 0 -232 25.5t-163.5 70t-103 112.5t-55 144.5 t-15.5 173.5zM326 1890h346l272 -319h-270zM481 428q0 -58 46.5 -105t119.5 -47h320q73 0 119.5 47t46.5 105v578q0 59 -46.5 105t-119.5 46h-320q-73 0 -119.5 -46t-46.5 -105v-578z" />
<glyph unicode="&#xd3;" horiz-adv-x="1613" d="M78 508v418q0 98 15.5 175t55 145t103 112.5t163.5 70t232 25.5h320q132 0 232 -25.5t163.5 -70t103 -112.5t55 -145t15.5 -175v-418q0 -97 -15.5 -173.5t-55 -144.5t-103 -112.5t-163.5 -70t-232 -25.5h-320q-132 0 -232 25.5t-163.5 70t-103 112.5t-55 144.5 t-15.5 173.5zM481 428q0 -58 46.5 -105t119.5 -47h320q73 0 119.5 47t46.5 105v578q0 59 -46.5 105t-119.5 46h-320q-73 0 -119.5 -46t-46.5 -105v-578zM651 1571l273 319h346l-348 -319h-271z" />
<glyph unicode="&#xd4;" horiz-adv-x="1613" d="M78 508v418q0 98 15.5 175t55 145t103 112.5t163.5 70t232 25.5h320q132 0 232 -25.5t163.5 -70t103 -112.5t55 -145t15.5 -175v-418q0 -97 -15.5 -173.5t-55 -144.5t-103 -112.5t-163.5 -70t-232 -25.5h-320q-132 0 -232 25.5t-163.5 70t-103 112.5t-55 144.5 t-15.5 173.5zM344 1571l332 330h260l334 -330h-330l-119 153h-30l-117 -153h-330zM481 428q0 -58 46.5 -105t119.5 -47h320q73 0 119.5 47t46.5 105v578q0 59 -46.5 105t-119.5 46h-320q-73 0 -119.5 -46t-46.5 -105v-578z" />
<glyph unicode="&#xd5;" horiz-adv-x="1613" d="M78 508v418q0 98 15.5 175t55 145t103 112.5t163.5 70t232 25.5h320q132 0 232 -25.5t163.5 -70t103 -112.5t55 -145t15.5 -175v-418q0 -97 -15.5 -173.5t-55 -144.5t-103 -112.5t-163.5 -70t-232 -25.5h-320q-132 0 -232 25.5t-163.5 70t-103 112.5t-55 144.5 t-15.5 173.5zM334 1655q58 111 134.5 169t152.5 58q68 0 202 -61q147 -66 181 -66q62 0 124 121l152 -92q-57 -111 -132 -170.5t-149 -59.5q-71 0 -206 66q-123 63 -179 63q-68 0 -129 -122zM481 428q0 -58 46.5 -105t119.5 -47h320q73 0 119.5 47t46.5 105v578 q0 59 -46.5 105t-119.5 46h-320q-73 0 -119.5 -46t-46.5 -105v-578z" />
<glyph unicode="&#xd6;" horiz-adv-x="1613" d="M78 508v418q0 98 15.5 175t55 145t103 112.5t163.5 70t232 25.5h320q132 0 232 -25.5t163.5 -70t103 -112.5t55 -145t15.5 -175v-418q0 -97 -15.5 -173.5t-55 -144.5t-103 -112.5t-163.5 -70t-232 -25.5h-320q-132 0 -232 25.5t-163.5 70t-103 112.5t-55 144.5 t-15.5 173.5zM426 1571v313h295v-313h-295zM481 428q0 -58 46.5 -105t119.5 -47h320q73 0 119.5 47t46.5 105v578q0 59 -46.5 105t-119.5 46h-320q-73 0 -119.5 -46t-46.5 -105v-578zM891 1571v313h295v-313h-295z" />
<glyph unicode="&#xd7;" horiz-adv-x="1087" d="M78 989l192 191l275 -275l274 281l191 -191l-273 -282l273 -275l-191 -190l-274 272l-275 -272l-190 190l272 275z" />
<glyph unicode="&#xd8;" horiz-adv-x="1613" d="M78 508v418q0 98 15.5 175t55 145t103 112.5t163.5 70t232 25.5h320q108 0 182 -14l127 213h186l-155 -262q124 -61 176.5 -178t52.5 -287v-418q0 -97 -15.5 -173.5t-55 -144.5t-103 -112.5t-163.5 -70t-232 -25.5h-320q-97 0 -174 12l-137 -230h-186l163 277 q-128 61 -181.5 178t-53.5 289zM481 428q0 -38 21 -72l479 801h-334q-73 0 -119.5 -46t-46.5 -105v-578zM641 276h326q73 0 119.5 47t46.5 105v578q0 31 -17 65z" />
<glyph unicode="&#xd9;" horiz-adv-x="1634" d="M82 1397l10 37h526l11 -37q-72 -75 -72 -185v-759q0 -73 81.5 -123.5t178.5 -50.5t178.5 50.5t81.5 123.5v759q0 111 -71 185l10 37h526l10 -37q-71 -74 -71 -185v-759q4 -79 39 -117v-25q-52 -78 -109.5 -135.5t-116 -94t-126 -59t-133 -31t-144.5 -9.5h-148 q-205 0 -357 72.5t-271 256.5v25q35 42 39 117v759q0 110 -72 185zM324 1890h346l272 -319h-270z" />
<glyph unicode="&#xda;" horiz-adv-x="1634" d="M82 1397l10 37h526l11 -37q-72 -75 -72 -185v-759q0 -73 81.5 -123.5t178.5 -50.5t178.5 50.5t81.5 123.5v759q0 111 -71 185l10 37h526l10 -37q-71 -74 -71 -185v-759q4 -79 39 -117v-25q-52 -78 -109.5 -135.5t-116 -94t-126 -59t-133 -31t-144.5 -9.5h-148 q-205 0 -357 72.5t-271 256.5v25q35 42 39 117v759q0 110 -72 185zM666 1571l272 319h346l-348 -319h-270z" />
<glyph unicode="&#xdb;" horiz-adv-x="1634" d="M82 1397l10 37h526l11 -37q-72 -75 -72 -185v-759q0 -73 81.5 -123.5t178.5 -50.5t178.5 50.5t81.5 123.5v759q0 111 -71 185l10 37h526l10 -37q-71 -74 -71 -185v-759q4 -79 39 -117v-25q-52 -78 -109.5 -135.5t-116 -94t-126 -59t-133 -31t-144.5 -9.5h-148 q-205 0 -357 72.5t-271 256.5v25q35 42 39 117v759q0 110 -72 185zM354 1571l332 330h260l334 -330h-330l-119 153h-30l-117 -153h-330z" />
<glyph unicode="&#xdc;" horiz-adv-x="1634" d="M82 1397l10 37h526l11 -37q-72 -75 -72 -185v-759q0 -73 81.5 -123.5t178.5 -50.5t178.5 50.5t81.5 123.5v759q0 111 -71 185l10 37h526l10 -37q-71 -74 -71 -185v-759q4 -79 39 -117v-25q-52 -78 -109.5 -135.5t-116 -94t-126 -59t-133 -31t-144.5 -9.5h-148 q-205 0 -357 72.5t-271 256.5v25q35 42 39 117v759q0 110 -72 185zM436 1571v313h295v-313h-295zM901 1571v313h295v-313h-295z" />
<glyph unicode="&#xdd;" horiz-adv-x="1658" d="M23 1397l8 37h547l10 -37q-7 -58 65 -185l166 -282h21l166 282q74 130 67 185l10 37h545l8 -37q-119 -77 -194 -185l-414 -628l2 -363q3 -105 76 -184l-10 -37h-531l-10 35q72 78 72 184l-4 383l-404 610q-81 113 -196 185zM686 1571l272 319h347l-349 -319h-270z" />
<glyph unicode="&#xde;" horiz-adv-x="1456" d="M82 37q72 75 72 184v991q0 110 -72 185l10 37h529l10 -37q-32 -35 -52 -81.5t-20 -90.5v-49h410q207 0 320.5 -106t113.5 -310v-86q0 -204 -113.5 -310t-320.5 -106h-410v-49q0 -44 20 -90.5t52 -81.5l-10 -37h-529zM559 530h297q56 0 99.5 37t43.5 92l-2 115 q-1 56 -42.5 92.5t-98.5 36.5h-297v-373z" />
<glyph unicode="&#xdf;" horiz-adv-x="1533" d="M78 37q72 75 72 184v928q0 133 84 219t249 86h617q165 0 249.5 -86t84.5 -219v-127q0 -83 -53.5 -147.5t-147.5 -98.5v-22q108 -31 169.5 -99.5t61.5 -160.5v-189q0 -133 -89 -219t-259 -86h-407l-70 354l31 11q34 -52 86 -82.5t110 -30.5h54q60 0 95.5 31t35.5 84v161 q0 51 -35.5 82t-95.5 31h-357v-313q0 -60 -8 -115.5t-19 -92.5t-22 -65.5t-19 -41.5l-8 -13h-399zM563 901h350q49 0 78 25.5t29 68.5v115q0 43 -29 68.5t-78 25.5h-243q-49 0 -78 -25.5t-29 -68.5v-209z" />
<glyph unicode="&#xe0;" horiz-adv-x="1409" d="M74 313v52q0 69 21 127t63 104.5t113 73t165 26.5h441v33q0 71 -50.5 117.5t-136.5 46.5h-190q-124 0 -199 -38t-106 -93l-52 16l97 391h567q110 0 198.5 -34t144 -93t85 -134t29.5 -160v-527q0 -139 71 -184l-10 -37h-258q-54 0 -97.5 29t-66.5 80h-20 q-32 -64 -94 -95.5t-173 -31.5h-180q-94 0 -165 26.5t-113 73t-63 104.5t-21 127zM209 1606h346l272 -320h-270zM436 371q0 -119 129 -119h180q56 0 92.5 37t36.5 82v116h-309q-68 0 -98.5 -29t-30.5 -87z" />
<glyph unicode="&#xe1;" horiz-adv-x="1409" d="M74 313v52q0 69 21 127t63 104.5t113 73t165 26.5h441v33q0 71 -50.5 117.5t-136.5 46.5h-190q-124 0 -199 -38t-106 -93l-52 16l97 391h567q110 0 198.5 -34t144 -93t85 -134t29.5 -160v-527q0 -139 71 -184l-10 -37h-258q-54 0 -97.5 29t-66.5 80h-20 q-32 -64 -94 -95.5t-173 -31.5h-180q-94 0 -165 26.5t-113 73t-63 104.5t-21 127zM436 371q0 -119 129 -119h180q56 0 92.5 37t36.5 82v116h-309q-68 0 -98.5 -29t-30.5 -87zM551 1286l272 320h346l-348 -320h-270z" />
<glyph unicode="&#xe2;" horiz-adv-x="1409" d="M74 313v52q0 69 21 127t63 104.5t113 73t165 26.5h441v33q0 71 -50.5 117.5t-136.5 46.5h-190q-124 0 -199 -38t-106 -93l-52 16l97 391h567q110 0 198.5 -34t144 -93t85 -134t29.5 -160v-527q0 -139 71 -184l-10 -37h-258q-54 0 -97.5 29t-66.5 80h-20 q-32 -64 -94 -95.5t-173 -31.5h-180q-94 0 -165 26.5t-113 73t-63 104.5t-21 127zM242 1286l331 330h261l333 -330h-329l-119 154h-31l-117 -154h-329zM436 371q0 -119 129 -119h180q56 0 92.5 37t36.5 82v116h-309q-68 0 -98.5 -29t-30.5 -87z" />
<glyph unicode="&#xe3;" horiz-adv-x="1409" d="M74 313v52q0 69 21 127t63 104.5t113 73t165 26.5h441v33q0 71 -50.5 117.5t-136.5 46.5h-190q-124 0 -199 -38t-106 -93l-52 16l97 391h567q110 0 198.5 -34t144 -93t85 -134t29.5 -160v-527q0 -139 71 -184l-10 -37h-258q-54 0 -97.5 29t-66.5 80h-20 q-32 -64 -94 -95.5t-173 -31.5h-180q-94 0 -165 26.5t-113 73t-63 104.5t-21 127zM231 1370q58 111 134.5 169t152.5 58q69 0 203 -61q147 -66 180 -66q63 0 125 121l152 -92q-57 -111 -132 -170t-149 -59t-207 65q-125 64 -178 64q-68 0 -129 -123zM436 371 q0 -119 129 -119h180q56 0 92.5 37t36.5 82v116h-309q-68 0 -98.5 -29t-30.5 -87z" />
<glyph unicode="&#xe4;" horiz-adv-x="1409" d="M74 313v52q0 69 21 127t63 104.5t113 73t165 26.5h441v33q0 71 -50.5 117.5t-136.5 46.5h-190q-124 0 -199 -38t-106 -93l-52 16l97 391h567q110 0 198.5 -34t144 -93t85 -134t29.5 -160v-527q0 -139 71 -184l-10 -37h-258q-54 0 -97.5 29t-66.5 80h-20 q-32 -64 -94 -95.5t-173 -31.5h-180q-94 0 -165 26.5t-113 73t-63 104.5t-21 127zM324 1286v313h294v-313h-294zM436 371q0 -119 129 -119h180q56 0 92.5 37t36.5 82v116h-309q-68 0 -98.5 -29t-30.5 -87zM788 1286v313h295v-313h-295z" />
<glyph unicode="&#xe5;" horiz-adv-x="1409" d="M74 313v52q0 69 21 127t63 104.5t113 73t165 26.5h441v33q0 71 -50.5 117.5t-136.5 46.5h-190q-124 0 -199 -38t-106 -93l-52 16l97 391h567q110 0 198.5 -34t144 -93t85 -134t29.5 -160v-527q0 -139 71 -184l-10 -37h-258q-54 0 -97.5 29t-66.5 80h-20 q-32 -64 -94 -95.5t-173 -31.5h-180q-94 0 -165 26.5t-113 73t-63 104.5t-21 127zM367 1552q0 135 85.5 205t252.5 70q165 0 250 -70t85 -205q0 -274 -335 -274q-338 0 -338 274zM436 371q0 -119 129 -119h180q56 0 92.5 37t36.5 82v116h-309q-68 0 -98.5 -29t-30.5 -87z M575 1552q0 -125 130 -125q129 0 129 125q0 62 -34 93.5t-95 31.5q-63 0 -96.5 -31.5t-33.5 -93.5z" />
<glyph unicode="&#xe6;" horiz-adv-x="2172" d="M74 313v52q0 69 21 127t63 104.5t113 73t165 26.5h441v33q0 71 -50.5 117.5t-136.5 46.5h-184q-126 0 -202.5 -36t-106.5 -89l-35 10l96 391h508q202 0 319 -114h17q133 114 368 114h64q160 0 271.5 -33.5t175 -100t91 -153t27.5 -204.5v-199h-831v-73q0 -57 45 -106.5 t114 -49.5h273q134 0 223.5 27.5t116.5 72.5l37 -10l-115 -358h-504q-250 0 -383 127h-16q-32 -64 -93.5 -95.5t-172.5 -31.5h-357q-94 0 -165 26.5t-113 73t-63 104.5t-21 127zM436 371q0 -119 129 -119h180q56 0 92.5 37t36.5 82v116h-309q-68 0 -98.5 -29t-30.5 -87z M1268 686h444v41q0 74 -43 115t-119 41h-123q-71 0 -115 -45t-44 -101v-51z" />
<glyph unicode="&#xe7;" horiz-adv-x="1265" d="M74 508v135q0 94 15 170t53.5 144t99.5 113.5t157.5 72t223.5 26.5h464l78 -411l-35 -8q-31 52 -106.5 87t-200.5 35h-207q-71 0 -115 -44.5t-44 -100.5v-303q0 -56 44 -100.5t115 -44.5h240q223 0 295 122l37 -8l-68 -411h-284l-236 -357l-184 92l135 269 q-110 7 -193.5 36.5t-136.5 75t-86.5 111.5t-47 138t-13.5 161z" />
<glyph unicode="&#xe8;" horiz-adv-x="1366" d="M74 510v131q0 94 15 170t53.5 144.5t99.5 114.5t157.5 72.5t223.5 26.5h104q160 0 271.5 -33.5t175 -100t91 -153t27.5 -204.5v-199h-831v-73q0 -57 45.5 -106.5t114.5 -49.5h272q134 0 223.5 27.5t116.5 72.5l37 -10l-115 -358h-532q-127 0 -223.5 26.5t-157.5 72 t-99.5 114t-53.5 144.5t-15 171zM190 1606h347l272 -320h-270zM461 686h444v41q0 74 -43 115t-119 41h-122q-71 0 -115.5 -45t-44.5 -101v-51z" />
<glyph unicode="&#xe9;" horiz-adv-x="1366" d="M74 510v131q0 94 15 170t53.5 144.5t99.5 114.5t157.5 72.5t223.5 26.5h104q160 0 271.5 -33.5t175 -100t91 -153t27.5 -204.5v-199h-831v-73q0 -57 45.5 -106.5t114.5 -49.5h272q134 0 223.5 27.5t116.5 72.5l37 -10l-115 -358h-532q-127 0 -223.5 26.5t-157.5 72 t-99.5 114t-53.5 144.5t-15 171zM461 686h444v41q0 74 -43 115t-119 41h-122q-71 0 -115.5 -45t-44.5 -101v-51zM522 1286l273 320h346l-348 -320h-271z" />
<glyph unicode="&#xea;" horiz-adv-x="1366" d="M74 510v131q0 94 15 170t53.5 144.5t99.5 114.5t157.5 72.5t223.5 26.5h104q160 0 271.5 -33.5t175 -100t91 -153t27.5 -204.5v-199h-831v-73q0 -57 45.5 -106.5t114.5 -49.5h272q134 0 223.5 27.5t116.5 72.5l37 -10l-115 -358h-532q-127 0 -223.5 26.5t-157.5 72 t-99.5 114t-53.5 144.5t-15 171zM219 1286l332 330h260l334 -330h-330l-119 154h-30l-117 -154h-330zM461 686h444v41q0 74 -43 115t-119 41h-122q-71 0 -115.5 -45t-44.5 -101v-51z" />
<glyph unicode="&#xeb;" horiz-adv-x="1366" d="M74 510v131q0 94 15 170t53.5 144.5t99.5 114.5t157.5 72.5t223.5 26.5h104q160 0 271.5 -33.5t175 -100t91 -153t27.5 -204.5v-199h-831v-73q0 -57 45.5 -106.5t114.5 -49.5h272q134 0 223.5 27.5t116.5 72.5l37 -10l-115 -358h-532q-127 0 -223.5 26.5t-157.5 72 t-99.5 114t-53.5 144.5t-15 171zM303 1286v313h295v-313h-295zM461 686h444v41q0 74 -43 115t-119 41h-122q-71 0 -115.5 -45t-44.5 -101v-51zM768 1286v313h295v-313h-295z" />
<glyph unicode="&#xec;" horiz-adv-x="700" d="M-127 1606h346l273 -320h-271zM82 37q72 75 72 184v707q0 109 -72 184l10 37h516l10 -37q-73 -76 -73 -184v-707q0 -108 73 -184l-10 -37h-516z" />
<glyph unicode="&#xed;" horiz-adv-x="700" d="M82 37q72 75 72 184v707q0 109 -72 184l10 37h516l10 -37q-73 -76 -73 -184v-707q0 -108 73 -184l-10 -37h-516zM182 1286l273 320h346l-348 -320h-271z" />
<glyph unicode="&#xee;" horiz-adv-x="700" d="M-113 1286l332 330h260l334 -330h-330l-118 154h-31l-117 -154h-330zM82 37q72 75 72 184v707q0 109 -72 184l10 37h516l10 -37q-73 -76 -73 -184v-707q0 -108 73 -184l-10 -37h-516z" />
<glyph unicode="&#xef;" horiz-adv-x="700" d="M-29 1286v313h295v-313h-295zM82 37q72 75 72 184v707q0 109 -72 184l10 37h516l10 -37q-73 -76 -73 -184v-707q0 -108 73 -184l-10 -37h-516zM436 1286v313h295v-313h-295z" />
<glyph unicode="&#xf0;" horiz-adv-x="1546" d="M74 508v6q0 97 15 173t53.5 143.5t100 112t158 71t224.5 28.5q242 -3 376 -94h31q-36 94 -104 199l-271 -55l-24 114l219 45q-37 47 -77.5 93t-62.5 68l-22 22h393q56 -57 103 -115l207 43l22 -115l-155 -30q62 -99 106.5 -208.5t63 -195t28 -157t8.5 -110.5v-38 q0 -97 -15.5 -173.5t-55 -144.5t-103 -112.5t-163.5 -70t-232 -25.5h-254q-132 0 -232 25.5t-163.5 70t-103 112.5t-55 144.5t-15.5 173.5zM477 428q0 -58 46.5 -105t119.5 -47h254q73 0 119.5 47t46.5 105v166q0 59 -46.5 105t-119.5 46h-254q-73 0 -119.5 -46t-46.5 -105 v-166z" />
<glyph unicode="&#xf1;" horiz-adv-x="1605" d="M78 37q72 75 72 184v707q0 109 -72 184l10 37q103 0 202 5t147 10l48 5h47l5 -118h28q108 118 371 118q127 0 221.5 -27t151.5 -72t91.5 -114.5t47 -144t12.5 -170.5v-420q0 -109 72 -184l-10 -37h-516l-11 37q74 77 74 184v395q0 57 -10.5 99t-37 77.5t-77.5 53.5 t-125 18h-18q-144 0 -202 -65.5t-58 -182.5v-395q0 -108 73 -184l-10 -37h-516zM330 1370q58 111 134 169t152 58q69 0 203 -61q147 -66 180 -66q63 0 125 121l152 -92q-57 -111 -132 -170t-149 -59t-207 65q-125 64 -178 64q-68 0 -129 -123z" />
<glyph unicode="&#xf2;" horiz-adv-x="1482" d="M74 510v131q0 94 15 170t53.5 144.5t99.5 114.5t157.5 72.5t223.5 26.5h237q127 0 223.5 -26.5t157.5 -72.5t99.5 -114.5t53.5 -144.5t15 -170v-131q0 -95 -15 -171t-53.5 -144.5t-99.5 -114t-157.5 -72t-223.5 -26.5h-237q-127 0 -223.5 26.5t-157.5 72t-99.5 114 t-53.5 144.5t-15 171zM254 1606h346l272 -320h-270zM457 424q0 -56 44.5 -100.5t114.5 -44.5h250q70 0 115 44.5t45 100.5v301q0 58 -44.5 102.5t-115.5 44.5h-248q-72 0 -116.5 -45t-44.5 -102v-301z" />
<glyph unicode="&#xf3;" horiz-adv-x="1482" d="M74 510v131q0 94 15 170t53.5 144.5t99.5 114.5t157.5 72.5t223.5 26.5h237q127 0 223.5 -26.5t157.5 -72.5t99.5 -114.5t53.5 -144.5t15 -170v-131q0 -95 -15 -171t-53.5 -144.5t-99.5 -114t-157.5 -72t-223.5 -26.5h-237q-127 0 -223.5 26.5t-157.5 72t-99.5 114 t-53.5 144.5t-15 171zM457 424q0 -56 44.5 -100.5t114.5 -44.5h250q70 0 115 44.5t45 100.5v301q0 58 -44.5 102.5t-115.5 44.5h-248q-72 0 -116.5 -45t-44.5 -102v-301zM588 1286l272 320h346l-348 -320h-270z" />
<glyph unicode="&#xf4;" horiz-adv-x="1482" d="M74 510v131q0 94 15 170t53.5 144.5t99.5 114.5t157.5 72.5t223.5 26.5h237q127 0 223.5 -26.5t157.5 -72.5t99.5 -114.5t53.5 -144.5t15 -170v-131q0 -95 -15 -171t-53.5 -144.5t-99.5 -114t-157.5 -72t-223.5 -26.5h-237q-127 0 -223.5 26.5t-157.5 72t-99.5 114 t-53.5 144.5t-15 171zM279 1286l331 330h260l334 -330h-330l-118 154h-31l-117 -154h-329zM457 424q0 -56 44.5 -100.5t114.5 -44.5h250q70 0 115 44.5t45 100.5v301q0 58 -44.5 102.5t-115.5 44.5h-248q-72 0 -116.5 -45t-44.5 -102v-301z" />
<glyph unicode="&#xf5;" horiz-adv-x="1482" d="M74 510v131q0 94 15 170t53.5 144.5t99.5 114.5t157.5 72.5t223.5 26.5h237q127 0 223.5 -26.5t157.5 -72.5t99.5 -114.5t53.5 -144.5t15 -170v-131q0 -95 -15 -171t-53.5 -144.5t-99.5 -114t-157.5 -72t-223.5 -26.5h-237q-127 0 -223.5 26.5t-157.5 72t-99.5 114 t-53.5 144.5t-15 171zM268 1370q58 111 134.5 169t152.5 58q69 0 203 -61q147 -66 180 -66q63 0 125 121l151 -92q-57 -111 -131.5 -170t-148.5 -59t-207 65q-125 64 -178 64q-67 0 -129 -123zM457 424q0 -56 44.5 -100.5t114.5 -44.5h250q70 0 115 44.5t45 100.5v301 q0 58 -44.5 102.5t-115.5 44.5h-248q-72 0 -116.5 -45t-44.5 -102v-301z" />
<glyph unicode="&#xf6;" horiz-adv-x="1482" d="M74 510v131q0 94 15 170t53.5 144.5t99.5 114.5t157.5 72.5t223.5 26.5h237q127 0 223.5 -26.5t157.5 -72.5t99.5 -114.5t53.5 -144.5t15 -170v-131q0 -95 -15 -171t-53.5 -144.5t-99.5 -114t-157.5 -72t-223.5 -26.5h-237q-127 0 -223.5 26.5t-157.5 72t-99.5 114 t-53.5 144.5t-15 171zM360 1286v313h295v-313h-295zM457 424q0 -56 44.5 -100.5t114.5 -44.5h250q70 0 115 44.5t45 100.5v301q0 58 -44.5 102.5t-115.5 44.5h-248q-72 0 -116.5 -45t-44.5 -102v-301zM825 1286v313h295v-313h-295z" />
<glyph unicode="&#xf7;" horiz-adv-x="1198" d="M78 588v260h1042v-260h-1042zM438 80v311h310v-311h-310zM438 1042v314h310v-314h-310z" />
<glyph unicode="&#xf8;" horiz-adv-x="1482" d="M74 510v131q0 94 15 170t53.5 144.5t99.5 114.5t157.5 72.5t223.5 26.5h237q74 0 146 -10l135 227h166l-158 -266q73 -30 124.5 -78t80.5 -111.5t42 -134t13 -155.5v-131q0 -95 -15 -171t-53.5 -144.5t-99.5 -114t-157.5 -72t-223.5 -26.5h-237q-73 0 -148 10l-135 -228 h-166l158 267q-96 39 -155 113t-81 162.5t-22 203.5zM457 424q0 -61 47 -105l332 553h-218q-72 0 -116.5 -45t-44.5 -102v-301zM647 279h219q70 0 115 44.5t45 100.5v301q0 60 -49 106z" />
<glyph unicode="&#xf9;" horiz-adv-x="1585" d="M74 1112l10 37h516l8 -37q-71 -77 -71 -184v-393q0 -45 6 -80t22.5 -67.5t44 -54t72 -34t104.5 -12.5q144 0 201 65.5t57 182.5v393q0 108 -73 184l10 37h516l10 -37q-71 -74 -71 -184v-707q0 -138 71 -186l-10 -35h-373l-45 154h-24q-41 -74 -136 -123t-243 -49 q-128 0 -222.5 27t-153 72t-94 114.5t-48.5 144t-13 170.5v418q0 110 -71 184zM315 1606h347l272 -320h-270z" />
<glyph unicode="&#xfa;" horiz-adv-x="1585" d="M74 1112l10 37h516l8 -37q-71 -77 -71 -184v-393q0 -45 6 -80t22.5 -67.5t44 -54t72 -34t104.5 -12.5q144 0 201 65.5t57 182.5v393q0 108 -73 184l10 37h516l10 -37q-71 -74 -71 -184v-707q0 -138 71 -186l-10 -35h-373l-45 154h-24q-41 -74 -136 -123t-243 -49 q-128 0 -222.5 27t-153 72t-94 114.5t-48.5 144t-13 170.5v418q0 110 -71 184zM641 1286l272 320h347l-349 -320h-270z" />
<glyph unicode="&#xfb;" horiz-adv-x="1585" d="M74 1112l10 37h516l8 -37q-71 -77 -71 -184v-393q0 -45 6 -80t22.5 -67.5t44 -54t72 -34t104.5 -12.5q144 0 201 65.5t57 182.5v393q0 108 -73 184l10 37h516l10 -37q-71 -74 -71 -184v-707q0 -138 71 -186l-10 -35h-373l-45 154h-24q-41 -74 -136 -123t-243 -49 q-128 0 -222.5 27t-153 72t-94 114.5t-48.5 144t-13 170.5v418q0 110 -71 184zM330 1286l332 330h260l333 -330h-329l-119 154h-31l-117 -154h-329z" />
<glyph unicode="&#xfc;" horiz-adv-x="1585" d="M74 1112l10 37h516l8 -37q-71 -77 -71 -184v-393q0 -45 6 -80t22.5 -67.5t44 -54t72 -34t104.5 -12.5q144 0 201 65.5t57 182.5v393q0 108 -73 184l10 37h516l10 -37q-71 -74 -71 -184v-707q0 -138 71 -186l-10 -35h-373l-45 154h-24q-41 -74 -136 -123t-243 -49 q-128 0 -222.5 27t-153 72t-94 114.5t-48.5 144t-13 170.5v418q0 110 -71 184zM412 1286v313h295v-313h-295zM877 1286v313h294v-313h-294z" />
<glyph unicode="&#xfd;" horiz-adv-x="1572" d="M0 1112l10 37h510l10 -37q-35 -74 17 -184l248 -557h22l215 557q45 108 0 184l10 37h519l12 -37h-2q-101 -75 -146 -184l-569 -1383h-455l-10 37q111 55 168 185l100 233h-81l-416 928q-50 105 -162 184zM645 1286l273 320h346l-349 -320h-270z" />
<glyph unicode="&#xfe;" horiz-adv-x="1566" d="M78 -418q72 75 72 185v1486q0 110 -72 185l10 37h516l10 -37q-73 -76 -73 -185v-198h30q112 114 371 114q279 0 415 -126.5t136 -401.5v-131q0 -275 -136 -401.5t-415 -126.5q-259 0 -371 114h-30v-329q0 -109 73 -185l-10 -37h-516zM537 535q0 -130 63.5 -189t196.5 -59 h55q132 0 195 59.5t63 188.5v81q0 129 -63 188.5t-195 59.5h-55q-133 0 -196.5 -59t-63.5 -189v-81z" />
<glyph unicode="&#xff;" horiz-adv-x="1572" d="M0 1112l10 37h510l10 -37q-35 -74 17 -184l248 -557h22l215 557q45 108 0 184l10 37h519l12 -37h-2q-101 -75 -146 -184l-569 -1383h-455l-10 37q111 55 168 185l100 233h-81l-416 928q-50 105 -162 184zM406 1286v313h294v-313h-294zM870 1286v313h295v-313h-295z" />
<glyph unicode="&#x152;" horiz-adv-x="2443" d="M78 508v418q0 98 15.5 175t55 145t103 112.5t163.5 70t232 25.5h320q113 0 211 -20h876q42 0 67.5 2t59 13.5t57.5 33.5l35 -10l78 -439l-37 -10q-44 55 -107 84t-134 29h-533v-299h377q105 0 184 73l35 -10v-371l-35 -10q-81 74 -184 74h-377v-315q113 25 227 26.5 t191 -7.5t152 -10.5t141 25.5t127 93l30 -15l-108 -414q-115 -19 -198 -19.5t-141.5 10t-203.5 21.5t-340 11h-250q-85 -18 -200 -18h-320q-132 0 -232 25.5t-163.5 70t-103 112.5t-55 144.5t-15.5 173.5zM481 428q0 -58 46.5 -105t119.5 -47h320q73 0 119.5 47t46.5 105 v578q0 59 -46.5 105t-119.5 46h-320q-73 0 -119.5 -46t-46.5 -105v-578z" />
<glyph unicode="&#x153;" horiz-adv-x="2334" d="M74 510v131q0 94 15 170t53.5 144.5t99.5 114.5t157.5 72.5t223.5 26.5h196q260 0 395 -145h19q135 145 399 145h64q160 0 271.5 -33.5t175 -100t91 -153t27.5 -204.5v-199h-831v-73q0 -57 45 -106.5t114 -49.5h273q134 0 223.5 27.5t116.5 72.5l36 -10l-114 -358h-492 q-267 0 -399 145h-19q-132 -145 -395 -145h-196q-127 0 -223.5 26.5t-157.5 72t-99.5 114t-53.5 144.5t-15 171zM457 424q0 -56 44.5 -100.5t114.5 -44.5h250q70 0 115 44.5t45 100.5v301q0 58 -44.5 102.5t-115.5 44.5h-248q-72 0 -116.5 -45t-44.5 -102v-301zM1430 686 h444v41q0 74 -43 115t-119 41h-123q-71 0 -115 -45t-44 -101v-51z" />
<glyph unicode="&#x178;" horiz-adv-x="1658" d="M23 1397l8 37h547l10 -37q-7 -58 65 -185l166 -282h21l166 282q74 130 67 185l10 37h545l8 -37q-119 -77 -194 -185l-414 -628l2 -363q3 -105 76 -184l-10 -37h-531l-10 35q72 78 72 184l-4 383l-404 610q-81 113 -196 185zM449 1571v313h294v-313h-294zM913 1571v313 h295v-313h-295z" />
<glyph unicode="&#x2c6;" horiz-adv-x="1122" d="M98 1286l332 330h260l334 -330h-330l-119 154h-30l-117 -154h-330z" />
<glyph unicode="&#x2dc;" horiz-adv-x="1142" d="M98 1370q58 111 134.5 169t152.5 58q69 0 203 -61q147 -66 180 -66q63 0 125 121l151 -92q-57 -111 -131.5 -170t-148.5 -59t-207 65q-125 64 -178 64q-67 0 -129 -123z" />
<glyph unicode="&#x2000;" horiz-adv-x="1055" />
<glyph unicode="&#x2001;" horiz-adv-x="2111" />
<glyph unicode="&#x2002;" horiz-adv-x="1055" />
<glyph unicode="&#x2003;" horiz-adv-x="2111" />
<glyph unicode="&#x2004;" horiz-adv-x="703" />
<glyph unicode="&#x2005;" horiz-adv-x="527" />
<glyph unicode="&#x2006;" horiz-adv-x="351" />
<glyph unicode="&#x2007;" horiz-adv-x="351" />
<glyph unicode="&#x2008;" horiz-adv-x="263" />
<glyph unicode="&#x2009;" horiz-adv-x="422" />
<glyph unicode="&#x200a;" horiz-adv-x="117" />
<glyph unicode="&#x2010;" horiz-adv-x="1062" d="M78 571v291h907v-291h-907z" />
<glyph unicode="&#x2011;" horiz-adv-x="1062" d="M78 571v291h907v-291h-907z" />
<glyph unicode="&#x2012;" horiz-adv-x="1062" d="M78 571v291h907v-291h-907z" />
<glyph unicode="&#x2013;" horiz-adv-x="1103" d="M78 571v291h948v-291h-948z" />
<glyph unicode="&#x2014;" horiz-adv-x="1144" d="M78 571v291h989v-291h-989z" />
<glyph unicode="&#x2018;" horiz-adv-x="464" d="M78 889v311q0 105 74.5 179.5t179.5 74.5v-164q-37 0 -62.5 -26.5t-25.5 -63.5h143v-311h-309z" />
<glyph unicode="&#x2019;" horiz-adv-x="464" d="M78 1122v312h309v-312q0 -106 -75 -180t-181 -74v164q38 0 64 26.5t26 63.5h-143z" />
<glyph unicode="&#x201a;" horiz-adv-x="464" d="M78 0v311h309v-311q0 -106 -75 -180t-181 -74v164q38 0 64 26.5t26 63.5h-143z" />
<glyph unicode="&#x201c;" horiz-adv-x="866" d="M78 889v311q0 105 74.5 179.5t179.5 74.5v-164q-37 0 -62.5 -26.5t-25.5 -63.5h143v-311h-309zM479 889v311q0 106 75 180t181 74v-164q-38 0 -64 -26.5t-26 -63.5h143v-311h-309z" />
<glyph unicode="&#x201d;" horiz-adv-x="866" d="M78 1122v312h309v-312q0 -106 -75 -180t-181 -74v164q38 0 64 26.5t26 63.5h-143zM479 1122v312h309v-312q0 -106 -74 -180t-179 -74v164q37 0 62.5 26.5t25.5 63.5h-144z" />
<glyph unicode="&#x201e;" horiz-adv-x="866" d="M78 0v311h309v-311q0 -106 -75 -180t-181 -74v164q38 0 64 26.5t26 63.5h-143zM479 0v311h309v-311q0 -106 -74 -180t-179 -74v164q37 0 62.5 26.5t25.5 63.5h-144z" />
<glyph unicode="&#x2022;" horiz-adv-x="569" d="M78 717q0 86 60.5 146.5t146.5 60.5t146.5 -60.5t60.5 -146.5t-60.5 -146.5t-146.5 -60.5t-146.5 60.5t-60.5 146.5z" />
<glyph unicode="&#x2026;" horiz-adv-x="1394" d="M78 0v313h309v-313h-309zM543 0v313h309v-313h-309zM1008 0v313h309v-313h-309z" />
<glyph unicode="&#x202f;" horiz-adv-x="422" />
<glyph unicode="&#x2039;" horiz-adv-x="884" d="M78 717l420 551h309l-420 -551l420 -551h-309z" />
<glyph unicode="&#x203a;" horiz-adv-x="884" d="M78 166l420 551l-420 551h309l420 -551l-420 -551h-309z" />
<glyph unicode="&#x205f;" horiz-adv-x="527" />
<glyph unicode="&#x20ac;" horiz-adv-x="1456" d="M4 553v119h184v96h-184v117h184v45q0 118 24.5 207t82 161t162 111.5t254.5 44.5h551l77 -412l-36 -8q-29 49 -96 84t-175 39h-274q-73 0 -119.5 -46t-46.5 -105v-121h450v-117h-450v-96h450v-119h-450v-125q0 -58 46.5 -105t119.5 -47h313q109 6 175 41t95 84l37 -10 l-108 -409h-520q-130 1 -228.5 26.5t-161.5 70t-102 112t-54.5 144t-15.5 173.5v45h-184z" />
<glyph unicode="&#x2122;" horiz-adv-x="1591" d="M78 1315v121h577l2 -121h-188v-459h-203v459h-188zM739 856v580h236l147 -361h11l145 361h235v-580h-190v338h-12l-137 -338h-91l-141 340h-12v-340h-191z" />
<glyph unicode="&#x25fc;" horiz-adv-x="1146" d="M0 0v1147h1147v-1147h-1147z" />
<glyph unicode="&#xfb01;" horiz-adv-x="1779" d="M41 901v248h160q3 112 30 192.5t87.5 143.5t166 94.5t258.5 32.5h258l56 -373l-37 -10q-20 34 -43.5 55.5t-72 36t-120.5 14.5q-196 -6 -196 -186h373v-248h-365v-680q0 -109 72 -184l-11 -37h-516l-10 37q74 77 74 184v680h-164zM1161 37q72 75 72 184v707 q0 109 -72 184l10 37h517l10 -37q-74 -77 -74 -184v-707q0 -107 74 -184l-10 -37h-517zM1217 1333v297q16 13 34 35h355l34 -35v-297q-18 -22 -34 -35h-355z" />
<glyph unicode="&#xfb02;" horiz-adv-x="1779" d="M41 901v248h160q3 112 30 192.5t87.5 143.5t166 94.5t258.5 32.5h258l56 -373l-37 -10q-20 34 -43.5 55.5t-72 36t-120.5 14.5q-196 -6 -196 -186h373v-248h-365v-680q0 -109 72 -184l-11 -37h-516l-10 37q74 77 74 184v680h-164zM1161 37q72 75 72 184v991 q0 112 -70 185l11 37q103 0 202 5t147 10l48 5h53v-1233q0 -107 74 -184l-10 -37h-517z" />
<glyph unicode="&#xfb03;" horiz-adv-x="2689" d="M41 901v248h160q3 112 30 192.5t87.5 143.5t166 94.5t258.5 32.5h258l56 -373l-37 -10q-20 34 -43.5 55.5t-72 36t-120.5 14.5q-196 -6 -196 -186h522q3 89 19.5 157.5t55 127t99.5 96.5t153.5 59.5t215.5 22.5h258l55 -373l-37 -10q-20 34 -43.5 55.5t-71.5 36 t-120 14.5q-101 -3 -149 -52t-48 -134h373v-248h-365v-680q0 -109 72 -184l-10 -37h-516l-11 37q74 77 74 184v680h-518v-680q0 -109 72 -184l-11 -37h-516l-10 37q74 77 74 184v680h-164zM2071 37q71 74 71 184v707q0 110 -71 184l10 37h516l10 -37q-74 -77 -74 -184v-707 q0 -107 74 -184l-10 -37h-516zM2126 1333v297q19 16 35 35h354l35 -35v-297q-16 -19 -35 -35h-354z" />
<glyph unicode="&#xfb04;" horiz-adv-x="2689" d="M41 901v248h160q3 112 30 192.5t87.5 143.5t166 94.5t258.5 32.5h258l56 -373l-37 -10q-20 34 -43.5 55.5t-72 36t-120.5 14.5q-196 -6 -196 -186h522q3 89 19.5 157.5t55 127t99.5 96.5t153.5 59.5t215.5 22.5h258l55 -373l-37 -10q-20 34 -43.5 55.5t-71.5 36 t-120 14.5q-101 -3 -149 -52t-48 -134h373v-248h-365v-680q0 -109 72 -184l-10 -37h-516l-11 37q74 77 74 184v680h-518v-680q0 -109 72 -184l-11 -37h-516l-10 37q74 77 74 184v680h-164zM2071 37q71 74 71 184v991q0 113 -69 185l10 37q103 0 202 5t147 10l48 5h53v-1233 q0 -107 74 -184l-10 -37h-516z" />
</font>
</defs>
</svg>
