<svg width="157" height="91" viewBox="0 0 157 91" fill="none" xmlns="http://www.w3.org/2000/svg">
<path d="M145.857 52.334C145.391 52.2254 144.887 52.1649 144.334 52.1649C143.775 52.1649 143.236 52.2254 142.715 52.334H145.857Z" fill="#A17A00"/>
<path d="M47.8113 37.1687C47.8113 38.7079 48.0832 39.7677 48.6271 40.3491C49.1709 40.9313 50.1 41.2215 51.4135 41.2215V42.4033C47.6605 42.2534 45.1661 42.1785 43.9276 42.1785C42.764 42.1785 40.1563 42.2534 36.1035 42.4033V41.2215C37.4545 41.2215 38.3922 40.9313 38.9188 40.3491C39.4434 39.7677 39.7057 38.7079 39.7057 37.1687V19.4384C39.7057 17.7137 39.4434 16.4559 38.9188 15.668C38.3922 14.8792 37.4545 14.4852 36.1035 14.4852V13.3034C37.3046 13.4158 38.4681 13.4725 39.5933 13.4725C42.9322 13.4725 45.6725 13.2102 47.8113 12.6846V37.1687Z" fill="#712325"/>
<path d="M65.2117 37.1687C65.2117 38.7079 65.474 39.7677 65.9996 40.3491C66.5252 40.9313 67.463 41.2215 68.8139 41.2215V42.4033C64.911 42.2534 62.3974 42.1785 61.2723 42.1785C59.9953 42.1785 57.4068 42.2534 53.5049 42.4033V41.2215C54.8174 41.2215 55.7465 40.9313 56.2903 40.3491C56.8342 39.7677 57.1071 38.7079 57.1071 37.1687V7.31836C57.1071 5.59269 56.8342 4.33496 56.2903 3.54707C55.7465 2.75918 54.8174 2.36525 53.5049 2.36525V1.18341C54.705 1.29583 55.8685 1.35156 56.9937 1.35156C60.2586 1.35156 62.998 1.08925 65.2117 0.563675V37.1687Z" fill="#712325"/>
<path d="M107.125 16.2025C106.243 17.8724 105.69 20.4522 105.465 23.942H114.302C114.376 20.9778 114.085 18.5296 113.429 16.5964C112.772 14.6642 111.787 13.6976 110.475 13.6976C109.123 13.6976 108.006 14.5335 107.125 16.2025ZM120.268 34.0731L121.28 34.4103C120.53 36.8508 119.188 38.9234 117.256 40.6308C115.323 42.3382 112.912 43.1914 110.023 43.1914C106.046 43.1914 102.884 41.925 100.54 39.3923C98.1942 36.8595 97.022 33.1161 97.022 28.163C97.022 23.0974 98.2787 19.2233 100.793 16.5407C103.307 13.858 106.647 12.5157 110.812 12.5157C117.865 12.5157 121.393 16.681 121.393 25.0114H105.577C105.54 25.5745 105.522 26.4555 105.522 27.6566C105.522 30.1327 105.867 32.1965 106.562 33.8482C107.256 35.4999 108.156 36.7 109.264 37.4504C110.37 38.2008 111.561 38.5755 112.837 38.5755C115.914 38.5755 118.391 37.0757 120.268 34.0731Z" fill="#712325"/>
<path d="M139.886 52.95C137.944 54.0405 136.759 56.0121 136.05 57.7474V57.5697V52.335C133.911 52.8606 131.171 53.1229 127.832 53.1229C126.706 53.1229 125.543 53.0662 124.342 52.9538V54.1356C125.693 54.1356 126.631 54.5296 127.156 55.3184C127.682 56.1063 127.944 57.364 127.944 59.0887V76.8191C127.944 78.3583 127.682 79.4181 127.156 79.9994C126.631 80.5817 125.693 80.8719 124.342 80.8719V82.0537C124.792 82.0537 125.167 82.0355 125.468 81.997C129.07 81.8846 131.378 81.8289 132.391 81.8289C133.666 81.8289 136.218 81.8846 140.046 81.997C140.384 82.0355 140.814 82.0537 141.34 82.0537V80.8719C139.501 80.8719 138.161 80.5337 137.316 79.8582C136.471 79.1827 136.05 77.9826 136.05 76.256V73.1141V62.6823L136.069 62.7121C136.069 62.7121 135.881 56.9922 139.668 55.4039C142.574 54.1856 146.15 57.1815 147.249 60.1486L148.176 60.2033V52.1323C148.176 52.1323 143.867 50.7141 139.886 52.95Z" fill="#712325"/>
<path d="M90.9118 29.7958C89.8232 28.4449 88.135 26.9066 85.8463 25.18L84.2139 23.9981C82.3748 22.6856 81.0239 21.5692 80.161 20.6496C79.2973 19.7301 78.8668 18.6328 78.8668 17.3568C78.8668 16.2307 79.2329 15.3497 79.9641 14.7117C80.6837 14.0842 81.5956 13.7691 82.6967 13.7585C84.5108 13.7768 85.9837 14.7799 87.3731 16.4066C88.5626 17.7998 89.5686 19.6763 90.1682 21.9208H91.1204C91.1204 18.0246 91.1453 16.4431 91.1953 15.0489H91.178C91.178 15.0489 86.3133 12.4326 81.2766 12.5113L81.2862 12.5219C81.2295 12.521 81.1757 12.5161 81.118 12.5161C78.4162 12.5161 76.1275 13.2108 74.2519 14.5983C72.3744 15.9877 71.4366 17.8824 71.4366 20.2836C71.4366 21.672 71.747 22.9287 72.3658 24.0548C72.9855 25.18 73.735 26.1562 74.618 26.9815C75.4991 27.8069 76.7847 28.8955 78.4729 30.2455C79.8987 31.3716 80.9681 32.2537 81.6811 32.8917C82.3931 33.5297 82.984 34.2618 83.4538 35.0862C83.9227 35.9125 84.1581 36.8503 84.1581 37.9005C84.1581 39.2514 83.7728 40.2555 83.0042 40.9118C82.2345 41.569 81.3054 41.8966 80.2177 41.8966C76.5838 41.8966 73.8551 39.0304 72.4369 34.0668H71.4203C71.4203 37.963 71.3934 39.9077 71.3396 41.3019L71.3588 41.2951C71.3588 41.2951 75.5855 43.434 81.9069 43.1918L81.9002 43.187C83.7815 43.163 85.6993 42.8286 87.2539 42.1781C88.8662 41.5036 90.1518 40.5274 91.1088 39.2514C92.0658 37.9764 92.5443 36.513 92.5443 34.8614C92.5443 32.835 91.9995 31.1468 90.9118 29.7958Z" fill="#712325"/>
<path d="M48.603 4.22243C48.603 6.55439 46.2692 8.44531 43.3895 8.44531C40.5109 8.44531 38.177 6.55439 38.177 4.22243C38.177 1.89048 40.5109 -0.000443459 43.3895 -0.000443459C46.2692 -0.000443459 48.603 1.89048 48.603 4.22243Z" fill="#712325"/>
<path d="M28.9865 3.69792C26.3221 1.69073 22.4567 0.686657 17.3911 0.686657C16.4159 0.686657 15.5521 0.705872 14.8027 0.743343L8.55529 0.799076C4.76479 0.799076 1.91303 0.743343 0 0.629967V1.75607C1.23756 1.83197 2.14747 1.98091 2.72974 2.2067C3.31008 2.43154 3.70499 2.86295 3.91157 3.50095C4.11719 4.13894 4.22096 5.17088 4.22096 6.59676V36.4365C4.22096 37.8634 4.11719 38.8953 3.91157 39.5323C3.70499 40.1713 3.31008 40.6017 2.72974 40.8266C2.14747 41.0524 1.23756 41.2023 0 41.2772V42.4033L1.80061 42.3466C4.65237 42.2726 7.01603 42.2342 8.89255 42.2342C11.1438 42.2342 14.5778 42.2909 19.1927 42.4033V41.1648C17.4286 41.1283 16.144 40.9957 15.3369 40.7709C14.5298 40.546 13.9667 40.0867 13.6487 39.3921C13.3297 38.6983 13.1702 37.6001 13.1702 36.0993V6.59676C13.1702 5.24583 13.2634 4.23215 13.4517 3.55764C13.6391 2.88217 13.9667 2.41328 14.4366 2.15001C14.9055 1.8877 15.6463 1.75607 16.66 1.75607C19.1735 1.75607 20.9664 2.61986 22.0349 4.34552C23.1043 6.07119 23.6395 8.7548 23.6395 12.3945C23.6395 15.7343 23.0572 18.3795 21.8946 20.33C20.7781 22.2027 18.7892 23.1664 15.9461 23.2423L15.9585 23.2615L15.9518 24.3828H16.1536C20.2804 24.3828 23.5924 23.7448 26.0877 22.4688C28.583 21.1938 30.3557 19.6084 31.4069 17.7127C32.4571 15.8189 32.9827 13.8386 32.9827 11.7747C32.9827 8.39737 31.65 5.70607 28.9865 3.69792Z" fill="#712325"/>
<path d="M154.796 42.4073V41.1774C154.033 41.1399 153.764 40.0388 153.764 40.0388L153.763 40.0417C153.289 38.4669 153.251 37.1765 153.221 36.4501C153.202 36.1349 153.195 35.8332 153.195 35.3865V22.0279C153.195 20.1149 153.062 18.5949 152.801 17.4688C152.537 16.3436 152.087 15.4241 151.45 14.7112C150.174 13.2478 148.109 12.5166 145.258 12.5166C140.792 12.5166 137.717 14.2605 136.027 17.7503V12.6848C133.889 13.2113 131.149 13.4726 127.81 13.4726C126.684 13.4726 125.521 13.4169 124.321 13.3045V14.4863C125.671 14.4863 126.608 14.8803 127.134 15.6682C127.659 16.456 127.923 17.7138 127.923 19.4394V37.1688C127.923 38.7081 127.659 39.7679 127.134 40.3492C126.608 40.9314 125.671 41.2216 124.321 41.2216V42.4034C128.372 42.2536 130.962 42.1786 132.087 42.1786C133.288 42.1786 135.614 42.2536 139.067 42.4034V41.2216C137.941 41.2216 137.153 40.9314 136.703 40.3492C136.253 39.7679 136.027 38.7081 136.027 37.1688V21.5216C136.027 19.6835 136.571 18.1356 137.66 16.8779C138.748 15.6211 140.061 14.9927 141.6 14.9927C142.913 14.9927 143.824 15.3866 144.33 16.1745C144.836 16.9624 145.089 18.126 145.089 19.6643V35.79C145.138 37.066 145.304 38.5534 145.89 39.7804C146.973 42.0422 149.073 42.4034 150.512 42.4034C150.532 42.4034 150.539 42.4092 150.553 42.4111L154.796 42.4073Z" fill="#712325"/>
<path d="M120.498 82.2749V81.045C119.735 81.0076 119.466 79.9064 119.466 79.9064L119.465 79.9093C119.076 78.4921 118.953 77.0441 118.922 76.3177C118.904 76.0026 118.896 75.7009 118.896 75.2541V68.7502H118.894V52.3352C116.679 52.8618 113.941 53.1231 110.676 53.1231C109.55 53.1231 108.387 53.0674 107.186 52.954V54.1368C108.5 54.1368 109.428 54.5307 109.973 55.3186C110.515 56.1065 110.788 57.3642 110.788 59.0899V73.8359C110.788 75.6749 110.254 77.2228 109.184 78.4796C108.115 79.7373 106.83 80.3648 105.329 80.3648C104.014 80.3648 103.124 79.9718 102.655 79.1829C102.186 78.395 101.951 77.2132 101.951 75.6374V52.3352C99.7377 52.8618 96.9984 53.1231 93.7344 53.1231C92.5708 53.1231 91.4072 53.0674 90.2446 52.954V54.1368C91.5571 54.1368 92.4863 54.5307 93.0311 55.3186C93.5739 56.1065 93.8468 57.3642 93.8468 59.0899V73.3295C93.8468 75.206 93.9871 76.7165 94.2686 77.8608C94.5501 79.0052 94.9912 79.9343 95.5917 80.6472C96.8667 82.1096 98.9123 82.8418 101.727 82.8418C106.041 82.8418 109.062 81.0969 110.788 77.6072C110.788 77.6072 110.842 77.4919 110.938 77.3381C111.054 78.1347 111.251 78.935 111.592 79.648C112.674 81.9098 114.774 82.2711 116.213 82.2711C116.233 82.2711 116.24 82.2768 116.254 82.2787L120.498 82.2749Z" fill="#712325"/>
<path d="M35.1592 11.2357C35.0218 8.11396 33.7083 5.59561 31.19 3.69795C30.3243 3.04555 29.3173 2.51036 28.197 2.0703C28.6745 2.34029 29.1338 2.62662 29.5546 2.9437C32.4554 5.13056 33.9274 8.10243 33.9274 11.7747C33.9274 13.9895 33.3567 16.1418 32.2315 18.171C31.1736 20.0793 29.4297 21.704 27.0593 23.0127C27.4879 22.8455 27.9029 22.6678 28.2911 22.4689C30.7864 21.1938 32.5592 19.6085 33.6103 17.7127C34.5241 16.0639 35.041 14.3498 35.1592 12.5722V11.2357Z" fill="#A17A00"/>
<path d="M20.137 42.3735C20.26 42.3764 20.3753 42.3793 20.5011 42.3822C20.799 42.3889 21.0882 42.3956 21.3966 42.4033V41.1648C20.945 41.1552 20.5261 41.1398 20.137 41.1177V42.3735Z" fill="#A17A00"/>
<path d="M50.0148 12.6854C49.7275 12.7555 49.4277 12.8209 49.1193 12.8824C49.0011 12.9054 48.8762 12.9256 48.7561 12.9477V37.1694C48.7561 38.8528 49.1078 39.4803 49.3163 39.7041C49.5843 39.9914 50.0744 40.1721 50.746 40.2432C50.2608 39.6436 50.0148 38.6232 50.0148 37.1694V12.6854Z" fill="#A17A00"/>
<path d="M73.7421 35.0265C73.7911 35.1668 73.8401 35.3061 73.8929 35.4406C73.9198 35.5098 73.9477 35.5761 73.9765 35.6424L74.0592 35.8394C74.1063 35.9537 74.1533 36.068 74.2033 36.1776C74.2417 36.2621 74.2802 36.3419 74.3186 36.4216L74.4147 36.6186C74.455 36.7012 74.4944 36.7839 74.5357 36.8636C74.5876 36.9635 74.6434 37.0606 74.6991 37.1596L74.7462 37.2431C74.7932 37.3287 74.8403 37.4142 74.8903 37.4958C74.9556 37.6044 75.0258 37.712 75.0959 37.8197C75.1699 37.934 75.2141 38.0013 75.2593 38.0666C75.3361 38.1771 75.413 38.2799 75.4899 38.3817L75.6532 38.5931C75.732 38.6911 75.8165 38.7882 75.9021 38.8843C75.9549 38.9448 76.0068 39.0024 76.0577 39.0582C76.1471 39.1514 76.2383 39.2427 76.3306 39.331C76.3796 39.3781 76.4286 39.4242 76.4776 39.4684C76.5746 39.5559 76.6726 39.6395 76.7726 39.7192L76.9119 39.8288C77.0147 39.9056 77.1204 39.9815 77.229 40.0526L77.3587 40.1343C77.4701 40.2044 77.5835 40.2707 77.6988 40.3313L77.7738 40.3688C77.9371 40.4504 78.0611 40.5081 78.186 40.559L78.2878 40.5974C78.4175 40.6464 78.552 40.6935 78.6875 40.7339L78.7673 40.755C78.7788 40.7579 78.7903 40.7598 78.8019 40.7627C78.7163 40.7031 78.6299 40.6445 78.5453 40.5811C78.4915 40.5398 78.4387 40.4994 78.3858 40.4562C78.2715 40.3649 78.1591 40.2698 78.0486 40.1699C77.9919 40.118 77.9361 40.0661 77.8804 40.0132C77.7766 39.9133 77.6738 39.8105 77.5729 39.7029C77.5143 39.6404 77.4567 39.5761 77.399 39.5117C77.3049 39.405 77.2107 39.2955 77.1194 39.1821C77.0589 39.1081 77.0003 39.0303 76.9417 38.9525C76.8562 38.8401 76.7716 38.7267 76.689 38.6075C76.6275 38.5191 76.5689 38.4269 76.5093 38.3356C76.4324 38.2194 76.3565 38.1021 76.2825 37.9801C76.2211 37.8773 76.1615 37.7687 76.1019 37.6621C76.0346 37.542 75.9664 37.4238 75.9011 37.2989C75.8396 37.1797 75.78 37.0548 75.7205 36.9309C75.6618 36.8098 75.6023 36.6916 75.5456 36.5667C75.4822 36.4264 75.4226 36.2794 75.363 36.1343C75.314 36.0181 75.2631 35.9037 75.217 35.7836C75.1488 35.6097 75.0863 35.4291 75.0219 35.2485C74.9864 35.1485 74.9489 35.0524 74.9153 34.9506C74.8192 34.6643 74.727 34.3702 74.6405 34.0676H73.745H73.4529C73.4529 34.0676 73.498 34.353 73.6239 34.6969L73.7421 35.0265Z" fill="#A17A00"/>
<path d="M93.3988 15.049H93.3815C93.3815 15.049 92.9232 14.804 92.1497 14.4667L92.1392 15.0826C92.0959 16.2933 92.069 18.679 92.0652 21.9065L93.3239 21.9209C93.3239 18.0247 93.3489 16.4432 93.3988 15.049Z" fill="#A17A00"/>
<path d="M138.253 52.9409V52.3355C137.966 52.4057 137.666 52.471 137.358 52.5315C137.24 52.5556 137.115 52.5757 136.995 52.5978V54.2197C137.383 53.7355 137.806 53.3127 138.253 52.9409Z" fill="#A17A00"/>
<path d="M47.3052 0.237865C48.6734 1.18621 49.5478 2.62074 49.5478 4.22246C49.5478 5.82513 48.6734 7.25966 47.3052 8.20801C49.3421 7.63439 50.8065 6.06918 50.8065 4.22342C50.8065 2.37765 49.3421 0.812446 47.3052 0.237865Z" fill="#A17A00"/>
<path d="M138.232 12.6862C137.944 12.7564 137.645 12.8217 137.336 12.8832C137.218 12.9062 137.093 12.9264 136.973 12.9485V14.6963C137.357 14.2879 137.784 13.9315 138.232 13.6029V12.6862Z" fill="#A17A00"/>
<path d="M109.329 16.203C109.433 16.006 109.54 15.8235 109.651 15.6496C109.687 15.5919 109.726 15.541 109.763 15.4862C109.838 15.3748 109.914 15.2662 109.993 15.1653C110.038 15.1067 110.086 15.0519 110.133 14.9972C110.206 14.9107 110.279 14.8271 110.354 14.7493C110.391 14.7127 110.427 14.6782 110.464 14.6436C110.351 14.6436 110.242 14.6522 110.134 14.6695C110.148 14.6695 110.117 14.6762 110.083 14.6839C109.992 14.7003 109.91 14.7185 109.83 14.7445L109.721 14.7896C109.658 14.8146 109.597 14.8377 109.537 14.8684L109.46 14.9126C109.36 14.9722 109.302 15.0068 109.245 15.0471C109.204 15.0759 109.163 15.1086 109.12 15.1422C109.066 15.1864 109.007 15.2364 108.95 15.2893C108.912 15.3248 108.872 15.3632 108.832 15.4036C108.766 15.4718 108.708 15.5391 108.651 15.6063L108.534 15.7447C108.468 15.8302 108.405 15.9234 108.339 16.0176L108.242 16.1598C108.147 16.3097 108.052 16.4711 107.961 16.644C107.229 18.0286 106.733 20.1626 106.484 22.998H107.743C108.002 19.9877 108.529 17.7173 109.329 16.203Z" fill="#A17A00"/>
<path d="M15.5906 39.8607C15.7818 39.9145 16.0095 39.9616 16.268 40.0039C16.1056 39.8233 15.9596 39.6253 15.8529 39.3919C15.5329 38.6972 15.3734 37.5999 15.3734 36.0991V6.59657C15.3734 5.24563 15.4676 4.23195 15.655 3.55648C15.7453 3.23172 15.8702 2.95788 16.0249 2.7292C15.9403 2.73592 15.8635 2.74265 15.7904 2.7513L15.6972 2.76283C15.5925 2.77628 15.4955 2.79261 15.4052 2.81087C15.361 2.81952 15.3129 2.83297 15.2649 2.84546C15.1822 2.8666 15.1371 2.87813 15.0967 2.89158C15.0304 2.91464 14.9584 2.94058 14.8969 2.97421C14.8085 3.02322 14.5375 3.17503 14.3617 3.80918C14.1974 4.39817 14.1147 5.33595 14.1147 6.59657V36.0991C14.1147 37.7892 14.3281 38.6078 14.5068 38.9969C14.7085 39.4361 15.0516 39.7109 15.5906 39.8607Z" fill="#A17A00"/>
<path d="M104.155 75.6379V52.3357C103.866 52.4049 103.566 52.4683 103.26 52.5278C103.142 52.5509 103.017 52.5711 102.896 52.5922V75.6379C102.896 77.035 103.088 78.0659 103.466 78.7001C103.511 78.7741 103.572 78.85 103.655 78.9326L103.7 78.9787C103.75 79.0248 103.834 79.0835 103.929 79.1363C104.096 79.2228 104.215 79.2689 104.343 79.3035C104.563 79.3592 104.735 79.388 104.914 79.4034C104.954 79.4073 104.998 79.4063 105.038 79.4092C104.978 79.3352 104.909 79.2679 104.859 79.1834C104.389 78.3955 104.155 77.2137 104.155 75.6379Z" fill="#A17A00"/>
<path d="M130.39 81.8603L130.391 81.917C130.393 81.917 130.394 81.917 130.396 81.917L130.39 81.8603Z" fill="#A17A00"/>
<path d="M122.701 81.0455C121.938 81.0071 121.669 79.9069 121.669 79.9069L121.668 79.9098C121.279 78.4926 121.156 77.0446 121.125 76.3182C121.107 76.0031 121.099 75.7004 121.099 75.2546V68.7507H121.097V52.3357C120.808 52.4039 120.508 52.4683 120.201 52.5279C120.083 52.551 119.959 52.5702 119.838 52.5923L119.841 75.2546C119.841 75.6773 119.847 75.9637 119.865 76.2634C119.88 76.6286 119.944 77.7258 120.198 78.9269L120.383 79.6821C120.423 79.832 120.524 80.0328 120.595 80.1049L121.442 80.1481V82.2764L122.701 82.2754V81.0455Z" fill="#A17A00"/>
<path d="M117.239 13.1627C120.131 14.92 122.337 18.4213 122.337 25.0107H122.7H123.596C123.596 18.5587 121.471 14.6174 117.239 13.1627Z" fill="#A17A00"/>
<path d="M140.011 41.2234V42.3495C140.413 42.3668 140.832 42.3841 141.27 42.4033V41.2234H140.011Z" fill="#A17A00"/>
<path d="M137.358 59.9078C136.976 61.3807 137.012 62.6692 137.012 62.6827L137.126 66.1494L136.994 65.9418V76.2574C136.994 77.6737 137.301 78.6374 137.906 79.1216C138.265 79.4089 138.77 79.6174 139.405 79.752C138.64 79.0602 138.254 77.8995 138.254 76.2574V73.1145V62.6827L138.272 62.7134C138.272 62.7134 138.226 61.2914 138.649 59.6695C138.976 58.4089 139.594 57.032 140.731 56.101C140.491 56.1307 140.256 56.1826 140.033 56.2758C138.746 56.8168 137.845 58.038 137.358 59.9078Z" fill="#A17A00"/>
<path d="M150.31 52.11C150.307 52.109 150.304 52.1081 150.302 52.1071C150.142 52.06 149.714 51.9447 149.11 51.8467L149.121 52.1311V59.4056C149.246 59.6526 149.361 59.8995 149.452 60.1484L150.379 60.2031V52.1311C150.379 52.1311 150.37 52.1283 150.355 52.1234C150.345 52.1206 150.334 52.1167 150.31 52.11Z" fill="#A17A00"/>
<path d="M142.285 81.9999C142.5 82.0229 142.752 82.0374 143.04 82.046C143.056 82.046 143.07 82.047 143.086 82.047C143.231 82.0508 143.381 82.0527 143.545 82.0527V80.8709C143.094 80.8709 142.675 80.8507 142.285 80.8094V81.9999Z" fill="#A17A00"/>
<path d="M138.232 21.5216C138.232 21.3121 138.24 21.1075 138.255 20.9057C138.264 20.776 138.28 20.6492 138.295 20.5223C138.303 20.4608 138.308 20.3984 138.317 20.3379C138.341 20.1745 138.37 20.0131 138.404 19.8555C138.407 19.8392 138.41 19.8228 138.413 19.8075C138.452 19.6345 138.495 19.4645 138.545 19.2973C138.812 18.3989 139.247 17.5908 139.863 16.8779C140.149 16.5483 140.451 16.2639 140.768 16.0208C139.413 16.1832 138.232 17.6792 138.232 17.6792C137.79 18.2365 137.454 18.8668 137.246 19.5673C137.204 19.7104 137.165 19.8594 137.132 20.0102C137.094 20.1908 137.069 20.3311 137.048 20.4753L137.035 20.5838C137.015 20.7501 137.002 20.8596 136.993 20.972C136.981 21.1517 136.973 21.3342 136.973 21.5216V37.1688C136.973 38.8964 137.272 39.5402 137.45 39.7708C137.685 40.0744 138.163 40.2349 138.851 40.2646C138.44 39.6689 138.232 38.6408 138.232 37.1688V21.5216Z" fill="#A17A00"/>
<path d="M67.4152 37.1685V0.563477C67.126 0.632656 66.8262 0.696075 66.5197 0.755646C66.4015 0.778706 66.2766 0.798882 66.1555 0.820019V37.1685C66.1555 38.8605 66.4966 39.4899 66.7003 39.7147C66.953 39.9953 67.4402 40.174 68.1224 40.2432C67.6525 39.6446 67.4152 38.6232 67.4152 37.1685Z" fill="#A17A00"/>
<path d="M108.766 33.8484C108.071 32.1977 107.725 30.1338 107.725 27.6568C107.725 26.9871 107.731 26.4279 107.742 25.9561H106.483C106.471 26.4211 106.465 26.989 106.465 27.6568C106.465 29.9974 106.791 31.9575 107.433 33.4823C108.051 34.9543 108.845 36.0266 109.793 36.6685C109.997 36.8068 110.217 36.9356 110.47 37.0624C110.625 37.1393 110.788 37.2017 110.951 37.2642L111.131 37.3372C111.223 37.3679 111.321 37.3872 111.417 37.4141C110.334 36.6617 109.449 35.4751 108.766 33.8484Z" fill="#A17A00"/>
<path d="M92.6279 28.4123C91.4316 26.9278 89.5964 25.2482 87.153 23.4063L85.4946 22.2043C83.7815 20.9811 82.5266 19.9502 81.7675 19.1392C81.2852 18.6261 81.07 18.0765 81.07 17.3559C81.07 16.2625 81.4226 15.4044 82.1125 14.7703C82.0202 14.7847 81.9251 14.7943 81.8367 14.8135C81.6465 14.8597 81.511 14.901 81.3822 14.95L81.2458 15.0143C81.1392 15.0624 81.0508 15.0999 80.971 15.1479C80.8182 15.2392 80.6914 15.3295 80.5848 15.4217C80.064 15.8762 79.8113 16.5094 79.8113 17.3559C79.8113 18.3927 80.1514 19.2584 80.8499 20.0021C81.6657 20.8716 82.982 21.9574 84.7625 23.2285L86.4151 24.4257C88.7547 26.1908 90.515 27.7983 91.6469 29.2021C92.8691 30.7202 93.4888 32.6236 93.4888 34.8604C93.4888 36.7139 92.9421 38.3819 91.864 39.8174C91.1107 40.8224 90.1585 41.6564 89.0372 42.3242C89.1756 42.2733 89.3245 42.2329 89.4571 42.1782C91.0704 41.5027 92.356 40.5265 93.312 39.2505C94.269 37.9755 94.7475 36.5121 94.7475 34.8604C94.7475 34.602 94.7388 34.3483 94.7206 34.1004C94.5899 31.8943 93.8914 29.9823 92.6279 28.4123Z" fill="#A17A00"/>
<path d="M86.2539 49.455C86.325 49.4944 86.3971 49.5347 86.4566 49.5693L86.4903 49.5549C86.4124 49.5213 86.3365 49.4886 86.2539 49.455Z" fill="#A17A00"/>
<path d="M156.135 40.4712C155.576 40.0148 155.455 37.1765 155.424 36.451C155.405 36.1349 155.398 35.8332 155.398 35.3864V22.0289C155.398 20.1149 155.266 18.5948 155.004 17.4697C154.741 16.3436 154.29 15.4241 153.653 14.7111C152.968 13.9261 152.05 13.3592 150.911 12.9951C151.381 13.3083 151.798 13.6744 152.161 14.0904C152.894 14.911 153.422 15.9785 153.721 17.2545C153.998 18.4488 154.139 20.0553 154.139 22.0289V35.3864C154.139 35.8102 154.143 36.0965 154.163 36.3953C154.337 39.1049 154.681 39.8149 154.681 39.8149C154.981 40.697 156.135 40.4712 156.135 40.4712Z" fill="#A17A00"/>
<path d="M157 41.2235H155.74V42.4082L157 42.4072V41.2235Z" fill="#A17A00"/>
<path d="M122.176 34.7101C121.375 37.2967 119.931 39.5268 117.882 41.338C117.367 41.7924 116.818 42.1912 116.239 42.5361C117.429 42.1095 118.503 41.4754 119.46 40.6298C121.214 39.08 122.477 37.2256 123.257 35.0714L122.176 34.7101Z" fill="#A17A00"/>
<path d="M84.1678 69.4305C82.6103 68.1382 80.5839 66.72 78.1453 65.2172C77.6918 64.8761 76.4849 64.1056 74.5316 62.9074C72.7482 61.7794 71.3944 60.7292 70.5037 59.7866C69.5881 58.8181 69.0183 58.0129 68.7598 57.3259C68.509 56.6571 68.3716 55.9663 68.3524 55.2755C68.3197 54.0773 68.5955 52.9973 69.172 52.0682C69.7466 51.1429 70.5508 50.4204 71.5635 49.9207C72.5666 49.4278 73.6947 49.179 74.9169 49.179C77.3833 49.179 79.5337 49.9813 81.3112 51.5657C83.0148 53.0838 84.3129 55.164 85.1738 57.7535H85.8406L85.8127 47.3995H85.3141C85.0912 47.7569 84.8529 48.0404 84.6021 48.2441C84.2773 48.5112 83.7556 48.6409 83.01 48.6409C82.5642 48.6409 81.9012 48.5611 81.0403 48.4045C80.6934 48.3238 78.716 47.8953 78.4412 47.8578C77.3593 47.6291 76.2447 47.5148 75.1013 47.5148C72.6627 47.5148 70.4807 48.1422 68.6186 49.3778C66.7488 50.6202 65.3037 52.2411 64.3236 54.1984C63.3407 56.1594 62.8708 58.1724 62.9266 60.1834C62.9554 61.223 63.1187 62.2146 63.4118 63.1303C63.7039 64.0412 64.193 64.9684 64.8675 65.8841C65.5468 66.8094 66.5018 67.7942 67.7058 68.8098C68.9212 69.8369 70.4096 70.915 72.1295 72.0142C75.4328 74.0887 77.7129 75.5645 78.9024 76.3966C80.1275 77.2527 81.0691 78.1376 81.7023 79.0245C82.3537 79.9382 82.7006 81.0201 82.7342 82.2404C82.7842 84.0545 82.0809 85.611 80.6454 86.8678C79.2252 88.1121 77.3833 88.7424 75.1705 88.7424C73.662 88.7424 72.0526 88.481 70.522 87.6864C69.1182 86.9581 67.0351 84.9711 66.7248 82.4364C66.229 78.3894 68.0219 76.5292 68.0219 76.5292L68.0084 76.0276C68.0084 76.0276 65.4901 75.9594 63.6434 77.8984C62.6748 78.9149 61.9417 80.0324 61.8504 82.0165C61.7457 84.3043 62.917 86.5699 65.4901 88.0996C68.0613 89.6283 71.7173 90.4901 75.4722 90.4834C75.3146 90.4844 75.1945 90.4844 75.4991 90.4844C75.8921 90.4834 75.7057 90.4834 75.5203 90.4834C77.5034 90.4815 79.3598 90.1923 81.0364 89.6225C82.7102 89.0537 84.2514 87.9593 85.4447 86.9235C86.6333 85.8916 87.5499 84.6588 88.1687 83.2598C88.7885 81.8609 89.0777 80.2841 89.0306 78.5738C88.9797 76.7175 88.5396 75.0341 87.7219 73.5717C86.8975 72.0978 85.7013 70.7046 84.1678 69.4305Z" fill="#712325"/>
<path d="M68.6367 77.4416C68.5742 77.5252 67.1186 79.5113 67.6922 82.2679C68.1159 84.3068 69.756 85.9748 70.7851 86.5081C71.0513 86.6465 71.3385 86.7694 71.6662 86.8838C70.8331 86.1641 69.3611 84.6095 69.0969 82.4486C68.629 78.6292 70.1567 76.7566 70.3931 76.4933L70.3825 76.1387C70.1231 76.1954 69.3871 76.4376 68.6367 77.4416Z" fill="#A17A00"/>
<path d="M87.1495 48.3424C87.064 48.4125 86.9602 48.474 86.8257 48.5336L86.8449 55.4852C87.1879 56.1799 87.4867 56.8996 87.7327 57.626H88.1805L88.1526 47.5257H87.8509C87.6318 47.8668 87.3964 48.1416 87.1495 48.3424Z" fill="#A17A00"/>
<path d="M90.6912 83.6237C91.7597 81.262 91.7693 79.3816 91.6376 77.853C91.4705 75.9207 91.0083 74.3901 90.0398 72.5684C88.8022 70.2393 86.9968 68.578 85.3941 67.2607C83.7597 65.9203 81.6949 64.4858 79.2582 62.9975C79.1458 62.9158 78.8873 62.7563 78.5309 62.5353C77.7449 62.0491 76.4295 61.2343 74.9863 60.2216C71.4649 57.7484 71.0767 56.0343 70.9306 55.3895C70.6703 54.2404 70.7298 53.4698 71.1574 52.4446C71.3525 51.9767 71.6234 51.5981 71.8194 51.3608C71.5148 51.478 71.24 51.626 70.9864 51.8085C70.4176 52.2178 70.0121 52.754 69.7488 53.4467C69.4913 54.1251 69.4279 54.8803 69.5547 55.7566C69.6306 56.2802 70.1111 57.8925 71.4034 59.0484C72.2902 59.8421 73.4067 60.7847 74.9652 61.7618C76.8532 62.9081 78.0255 63.6499 78.5462 64.0275C80.9762 65.5129 83.0161 66.9292 84.6034 68.2321C86.2964 69.6224 87.63 71.1588 88.5668 72.7999C89.5344 74.4948 90.0648 76.4261 90.1445 78.538C90.2175 80.478 89.9005 82.2776 89.201 83.8889C88.5044 85.4935 87.4667 86.904 86.1186 88.082C85.8659 88.303 85.5921 88.5182 85.2836 88.7383C86.4587 88.2233 87.4916 87.5795 88.3641 86.8195C89.5776 85.7597 90.1541 84.8104 90.6912 83.6237Z" fill="#A17A00"/>
<path d="M18.8743 73.2389C19.4834 72.6604 19.8466 71.8774 19.9667 70.8887V58.2354C19.3691 57.4158 18.4986 57.0055 17.3523 57.0055C16.0869 57.0055 15.1078 57.7415 14.416 59.2116C13.7232 60.6817 13.3888 62.8753 13.4129 65.7914C13.3888 68.7316 13.6694 70.8531 14.2546 72.1541C14.8397 73.456 15.6804 74.1065 16.7796 74.1065C17.5666 74.1065 18.2651 73.8173 18.8743 73.2389ZM25.6251 73.6001C25.9585 74.1065 26.5562 74.3592 27.4151 74.3592V75.1192C26.6753 75.0462 25.9345 75.0106 25.1947 75.0106C23.0702 75.0106 21.3273 75.1788 19.9667 75.517V72.4077C19.1548 74.5763 17.6031 75.6611 15.3105 75.6611C13.067 75.6611 11.2817 74.8358 9.95674 73.1851C8.63175 71.5343 7.98126 69.0448 8.00528 65.7194C8.00528 63.5978 8.34542 61.8087 9.02569 60.3502C9.70596 58.8916 10.6495 57.7953 11.8554 57.0603C13.0602 56.3253 14.439 55.9572 15.9918 55.9572C17.7338 55.9572 19.0587 56.4156 19.9667 57.3312V52.1379C19.9667 51.0301 19.7928 50.222 19.4469 49.7157C19.101 49.2093 18.5101 48.9566 17.6742 48.9566V48.1975C18.438 48.2696 19.1789 48.3061 19.8947 48.3061C21.972 48.3061 23.714 48.137 25.1236 47.7997V71.1779C25.1236 72.2867 25.2898 73.0938 25.6251 73.6001Z" fill="#712325"/>
<path d="M34.698 58.3247C34.1369 59.398 33.7852 61.0545 33.6411 63.2961H39.2639C39.312 61.3927 39.1265 59.8198 38.7086 58.5774C38.2906 57.337 37.6641 56.7163 36.8292 56.7163C35.9692 56.7163 35.2582 57.2524 34.698 58.3247ZM43.0602 69.8039L43.7049 70.02C43.2264 71.5872 42.3732 72.9189 41.1443 74.0152C39.9144 75.1125 38.3809 75.6602 36.5419 75.6602C34.011 75.6602 32 74.8473 30.5078 73.2206C29.0156 71.5929 28.27 69.1889 28.27 66.0076C28.27 62.7532 29.0694 60.2656 30.6692 58.5419C32.2681 56.8191 34.3934 55.9563 37.0434 55.9563C41.5315 55.9563 43.776 58.6322 43.776 63.9831H33.7132C33.6891 64.3444 33.6776 64.9113 33.6776 65.6819C33.6776 67.273 33.8976 68.599 34.3396 69.6588C34.7816 70.7195 35.3543 71.4911 36.0586 71.9725C36.7629 72.4548 37.521 72.696 38.3329 72.696C40.2901 72.696 41.8659 71.7323 43.0602 69.8039Z" fill="#712325"/>
<path d="M52.4706 71.7933C52.4706 72.782 52.6378 73.4623 52.9722 73.836C53.3066 74.2098 53.9032 74.3962 54.7622 74.3962V75.1553C52.2794 75.0602 50.6796 75.0111 49.9638 75.0111C49.1519 75.0111 47.5041 75.0602 45.0222 75.1553V74.3962C45.8572 74.3962 46.4481 74.2098 46.794 73.836C47.1399 73.4623 47.3138 72.782 47.3138 71.7933V52.1384C47.3138 51.0306 47.1399 50.2225 46.794 49.7162C46.4481 49.2108 45.8572 48.9571 45.0222 48.9571V48.198C45.7861 48.2701 46.5259 48.3066 47.2418 48.3066C49.3191 48.3066 51.062 48.1385 52.4706 47.8002V71.7933Z" fill="#712325"/>
<path d="M16.5121 72.916C16.662 72.916 16.8033 72.8978 16.9407 72.8632C16.7994 72.6518 16.6668 72.4202 16.5467 72.1541C15.9616 70.8521 15.682 68.7316 15.706 65.7914C15.682 62.8753 16.0154 60.6817 16.7081 59.2106C16.8897 58.8263 17.0915 58.4948 17.3115 58.2114C17.2366 58.2056 17.1655 58.196 17.0848 58.196C16.5948 58.196 15.8674 58.3536 15.2256 59.718C14.6126 61.0189 14.3137 63.0588 14.3358 65.7808C14.3137 68.5519 14.5616 70.5283 15.0728 71.666C15.6349 72.916 16.2498 72.916 16.5121 72.916Z" fill="#A17A00"/>
<path d="M26.0464 48.0565V71.1771C26.0464 72.3561 26.2587 72.8048 26.35 72.9431L26.351 72.9441C26.4797 73.1392 26.9054 73.1689 27.1485 73.1689H27.7C27.5107 72.676 27.4156 72.0121 27.4156 71.1771V47.799C26.9909 47.9009 26.5316 47.9854 26.0464 48.0565Z" fill="#A17A00"/>
<path d="M28.3384 75.0298C28.7948 75.047 29.2512 75.073 29.7076 75.1172V74.3581C29.133 74.3581 28.6785 74.2419 28.3384 74.0161V75.0298Z" fill="#A17A00"/>
<path d="M44.6994 63.9834H46.0686C46.0686 59.7038 44.6293 57.1403 41.7573 56.2842C44.2219 58.2338 44.6994 61.6457 44.6994 63.9834Z" fill="#A17A00"/>
<path d="M34.6025 65.1736C34.6015 65.3312 34.6006 65.5012 34.6006 65.6828C34.6006 67.1087 34.7928 68.2925 35.1713 69.2014C35.5211 70.0412 35.9554 70.6436 36.4636 70.9905C36.8835 71.2788 37.3169 71.4363 37.779 71.4844C37.3303 71.0222 36.9469 70.4159 36.6328 69.6597C36.1908 68.599 35.9698 67.273 35.9698 65.6828C35.9698 65.5012 35.9707 65.3321 35.9717 65.1736H34.6025Z" fill="#A17A00"/>
<path d="M36.5616 57.9066C36.4213 57.9066 35.9928 57.9066 35.4855 58.8771C35.1108 59.5938 34.8379 60.6786 34.6736 62.1055H36.0389C36.2186 60.4615 36.5347 59.197 36.9911 58.3246C36.9978 58.3111 37.0065 58.2996 37.0142 58.2852C36.8874 58.0757 36.7327 57.9066 36.5616 57.9066Z" fill="#A17A00"/>
<path d="M44.2948 71.1587C44.0767 71.7093 43.8163 72.2349 43.5069 72.7307L42.6066 73.9538C42.3184 74.2872 42.0051 74.6043 41.6688 74.9041C41.5074 75.0482 41.3402 75.1808 41.1702 75.3086C42.0138 75.0367 42.7709 74.6091 43.4368 74.0163C44.6657 72.92 45.5189 71.5882 45.9974 70.0211L45.3527 69.804C45.0279 70.3276 44.6753 70.7773 44.2948 71.1587Z" fill="#A17A00"/>
<path d="M53.394 48.0571V71.7926C53.394 72.7929 53.5901 73.0398 53.592 73.0417C53.6343 73.0831 53.8927 73.2051 54.4961 73.2051H54.9362C54.8218 72.838 54.7632 72.3691 54.7632 71.7926V47.7996C54.3385 47.9014 53.8793 47.986 53.394 48.0571Z" fill="#A17A00"/>
<path d="M55.686 74.1435V75.1043C56.1078 75.1188 56.5642 75.1361 57.0552 75.1553V74.3962C56.4806 74.3962 56.0262 74.3107 55.686 74.1435Z" fill="#A17A00"/>
</svg>
