<svg width="89" height="51" viewBox="0 0 89 51" fill="none" xmlns="http://www.w3.org/2000/svg">
<path d="M82.2094 29.4971C81.9473 29.4359 81.6629 29.4018 81.351 29.4018C81.0364 29.4018 80.7325 29.4359 80.4385 29.4971H82.2094Z" fill="#7B6744"/>
<path d="M26.9482 20.949C26.9482 21.8166 27.1015 22.4134 27.408 22.7416C27.7145 23.0692 28.2382 23.2333 28.9785 23.2333V23.8994C26.8632 23.8149 25.4573 23.7727 24.7593 23.7727C24.1034 23.7727 22.6337 23.8149 20.3494 23.8994V23.2333C21.1108 23.2333 21.6394 23.0692 21.9361 22.7416C22.2318 22.4134 22.3797 21.8166 22.3797 20.949V10.9556C22.3797 9.98355 22.2318 9.27465 21.9361 8.83057C21.6394 8.38596 21.1108 8.16392 20.3494 8.16392V7.4978C21.0263 7.56116 21.6821 7.59312 22.3163 7.59312C24.1982 7.59312 25.7427 7.44527 26.9482 7.14904V20.949Z" fill="white"/>
<path d="M36.7556 20.949C36.7556 21.8166 36.9034 22.4134 37.1996 22.7416C37.4959 23.0692 38.0244 23.2333 38.7859 23.2333V23.8994C36.5861 23.8149 35.1693 23.7727 34.5352 23.7727C33.8154 23.7727 32.3565 23.8149 30.1572 23.8994V23.2333C30.897 23.2333 31.4207 23.0692 31.7272 22.7416C32.0337 22.4134 32.1875 21.8166 32.1875 20.949V4.12444C32.1875 3.1518 32.0337 2.4429 31.7272 1.99883C31.4207 1.55475 30.897 1.33271 30.1572 1.33271V0.666594C30.8336 0.729956 31.4895 0.761368 32.1236 0.761368C33.9638 0.761368 35.5078 0.613523 36.7556 0.317291V20.949Z" fill="white"/>
<path d="M60.3793 9.13243C59.8821 10.0737 59.5702 11.5277 59.4435 13.4947H64.4242C64.4659 11.824 64.3023 10.4441 63.9325 9.35446C63.562 8.26539 63.0069 7.72058 62.2672 7.72058C61.5052 7.72058 60.8759 8.19174 60.3793 9.13243ZM67.7867 19.2049L68.3575 19.3949C67.9346 20.77 67.1785 21.9386 66.0895 22.901C64.9999 23.8633 63.6411 24.3442 62.0126 24.3442C59.7711 24.3442 57.9889 23.6305 56.6675 22.2029C55.3455 20.7754 54.6848 18.6655 54.6848 15.8737C54.6848 13.0186 55.3932 10.8351 56.8104 9.32305C58.2271 7.81103 60.1096 7.05447 62.4572 7.05447C66.4328 7.05447 68.4209 9.40212 68.4209 14.0974H59.5068C59.4857 14.4148 59.4754 14.9114 59.4754 15.5883C59.4754 16.9839 59.6704 18.1472 60.0619 19.0781C60.4529 20.0091 60.9604 20.6855 61.5848 21.1084C62.2081 21.5314 62.8797 21.7426 63.5989 21.7426C65.3329 21.7426 66.7291 20.8972 67.7867 19.2049Z" fill="white"/>
<path d="M78.8446 29.8448C77.7501 30.4594 77.0818 31.5707 76.6821 32.5488V32.4486V29.4982C75.4766 29.7944 73.9326 29.9422 72.0502 29.9422C71.416 29.9422 70.7602 29.9103 70.0833 29.8469V30.5136C70.8447 30.5136 71.3732 30.7351 71.6695 31.1797C71.9657 31.6238 72.1136 32.3327 72.1136 33.3048V43.2981C72.1136 44.1657 71.9657 44.763 71.6695 45.0907C71.3732 45.4189 70.8447 45.5824 70.0833 45.5824V46.2485C70.3372 46.2485 70.5484 46.2382 70.718 46.2166C72.7483 46.1532 74.0491 46.1218 74.6199 46.1218C75.3385 46.1218 76.7769 46.1532 78.9345 46.2166C79.1251 46.2382 79.3677 46.2485 79.6639 46.2485V45.5824C78.6274 45.5824 77.8719 45.3918 77.3959 45.0111C76.9199 44.6304 76.6821 43.954 76.6821 42.9808V41.2099V35.3302L76.693 35.347C76.693 35.347 76.5874 32.1231 78.7216 31.2279C80.3593 30.5412 82.375 32.2298 82.9945 33.9021L83.5171 33.933V29.3839C83.5171 29.3839 81.0882 28.5846 78.8446 29.8448Z" fill="white"/>
<path d="M51.241 16.7928C50.6274 16.0314 49.6759 15.1644 48.3859 14.1912L47.4658 13.5251C46.4293 12.7853 45.6678 12.156 45.1815 11.6378C44.6947 11.1195 44.452 10.501 44.452 9.78184C44.452 9.14713 44.6584 8.65052 45.0705 8.29093C45.4761 7.93729 45.9901 7.75966 46.6107 7.7537C47.6331 7.76399 48.4634 8.32938 49.2464 9.24623C49.9169 10.0315 50.4839 11.0892 50.8218 12.3542H51.3585C51.3585 10.1582 51.3726 9.26681 51.4008 8.48101H51.391C51.391 8.48101 48.6491 7.00635 45.8103 7.05076L45.8157 7.05672C45.7837 7.05618 45.7534 7.05347 45.7209 7.05347C44.198 7.05347 42.9081 7.44501 41.8509 8.22702C40.7927 9.01012 40.2642 10.0781 40.2642 11.4314C40.2642 12.214 40.4391 12.9223 40.7879 13.557C41.1372 14.1912 41.5596 14.7414 42.0573 15.2066C42.5539 15.6718 43.2785 16.2854 44.23 17.0463C45.0337 17.681 45.6364 18.1781 46.0383 18.5377C46.4396 18.8973 46.7726 19.31 47.0374 19.7747C47.3017 20.2404 47.4344 20.769 47.4344 21.3609C47.4344 22.1223 47.2172 22.6888 46.784 23.0581C46.3502 23.4285 45.8265 23.6132 45.2135 23.6132C43.1653 23.6132 41.6273 21.9977 40.8279 19.2001H40.255C40.255 21.3961 40.2398 22.4922 40.2095 23.278L40.2203 23.2742C40.2203 23.2742 42.6026 24.4797 46.1655 24.3432L46.1617 24.3405C47.2221 24.327 48.3031 24.1385 49.1793 23.7719C50.088 23.3917 50.8126 22.8415 51.352 22.1223C51.8914 21.4037 52.1611 20.5789 52.1611 19.6479C52.1611 18.5058 51.854 17.5543 51.241 16.7928Z" fill="white"/>
<path d="M27.3945 2.38011C27.3945 3.69447 26.0791 4.76025 24.456 4.76025C22.8335 4.76025 21.5181 3.69447 21.5181 2.38011C21.5181 1.06575 22.8335 -3.67165e-05 24.456 -3.67165e-05C26.0791 -3.67165e-05 27.3945 1.06575 27.3945 2.38011Z" fill="white"/>
<path d="M16.3377 2.08385C14.836 0.952538 12.6573 0.38661 9.80219 0.38661C9.25251 0.38661 8.76565 0.39744 8.34324 0.41856L4.82203 0.449972C2.68558 0.449972 1.07824 0.41856 0 0.354656V0.989363C0.697526 1.03215 1.21038 1.11609 1.53856 1.24335C1.86567 1.37008 2.08825 1.61324 2.20468 1.97283C2.32057 2.33242 2.37906 2.91406 2.37906 3.71773V20.5363C2.37906 21.3406 2.32057 21.9222 2.20468 22.2812C2.08825 22.6414 1.86567 22.884 1.53856 23.0107C1.21038 23.138 0.697526 23.2225 0 23.2647V23.8994L1.01488 23.8675C2.62222 23.8252 3.95445 23.8041 5.01211 23.8041C6.28098 23.8041 8.21651 23.8361 10.8176 23.8994V23.2013C9.82331 23.1808 9.09925 23.106 8.64434 22.9793C8.18943 22.8526 7.87208 22.5937 7.69282 22.2022C7.51303 21.8106 7.42313 21.1922 7.42313 20.3463V3.71773C7.42313 2.9563 7.47566 2.38496 7.58181 2.00424C7.68741 1.62407 7.87208 1.35979 8.1369 1.2114C8.40118 1.06356 8.81872 0.989363 9.39007 0.989363C10.8068 0.989363 11.8173 1.47622 12.4195 2.44832C13.0223 3.4215 13.3239 4.93407 13.3239 6.98549C13.3239 8.86794 12.9958 10.3588 12.3405 11.4582C11.7112 12.5137 10.5902 13.0569 8.98769 13.0997L8.99473 13.1105L8.99094 13.7425H9.10467C11.4307 13.7425 13.2974 13.3829 14.7038 12.6637C16.1103 11.9451 17.1094 11.0515 17.7019 9.98301C18.2938 8.9156 18.59 7.79945 18.59 6.63618C18.59 4.73261 17.8389 3.21571 16.3377 2.08385Z" fill="white"/>
<path d="M87.2482 23.9021V23.2089C86.8182 23.1878 86.6665 22.5672 86.6665 22.5672L86.666 22.5688C86.3985 21.6812 86.3773 20.9539 86.36 20.5445C86.3497 20.3668 86.3454 20.1968 86.3454 19.945V12.4157C86.3454 11.3375 86.2707 10.4807 86.1234 9.846C85.975 9.21184 85.721 8.69357 85.3619 8.29173C84.6427 7.46694 83.4789 7.05482 81.8721 7.05482C79.355 7.05482 77.6214 8.03774 76.6694 10.0047V7.14959C75.4639 7.44636 73.9199 7.59367 72.038 7.59367C71.4033 7.59367 70.7475 7.56226 70.071 7.49889V8.16501C70.8325 8.16501 71.3605 8.38705 71.6567 8.83113C71.953 9.2752 72.1013 9.9841 72.1013 10.9567V20.9496C72.1013 21.8171 71.953 22.4145 71.6567 22.7421C71.3605 23.0703 70.8325 23.2338 70.071 23.2338V23.9C72.3548 23.8155 73.8143 23.7732 74.4485 23.7732C75.1254 23.7732 76.4365 23.8155 78.3829 23.9V23.2338C77.7482 23.2338 77.3041 23.0703 77.0501 22.7421C76.7966 22.4145 76.6694 21.8171 76.6694 20.9496V12.1303C76.6694 11.0943 76.9759 10.2218 77.5895 9.51295C78.2025 8.80459 78.9428 8.45041 79.8104 8.45041C80.5502 8.45041 81.0636 8.67245 81.349 9.11653C81.6344 9.5606 81.7768 10.2164 81.7768 11.0835V20.1724C81.8044 20.8916 81.8981 21.7299 82.2285 22.4215C82.8388 23.6963 84.0221 23.9 84.8334 23.9C84.8447 23.9 84.8485 23.9032 84.8566 23.9043L87.2482 23.9021Z" fill="white"/>
<path d="M67.9162 46.3719V45.6787C67.4862 45.6576 67.3346 45.0369 67.3346 45.0369L67.3341 45.0386C67.1147 44.2398 67.0454 43.4236 67.0281 43.0142C67.0178 42.8366 67.0134 42.6666 67.0134 42.4147V38.7489H67.0124V29.497C65.7641 29.7932 64.2206 29.941 62.3804 29.941C61.7457 29.941 61.0904 29.9096 60.4135 29.8457V30.5124C61.1538 30.5124 61.6769 30.7339 61.984 31.1785C62.29 31.6226 62.4438 32.3315 62.4438 33.3041V41.6154C62.4438 42.6519 62.1427 43.5244 61.5394 44.2327C60.9372 44.9416 60.2126 45.2953 59.3667 45.2953C58.6258 45.2953 58.1238 45.0738 57.8595 44.6292C57.5952 44.1851 57.4631 43.519 57.4631 42.6308V29.497C56.2153 29.7932 54.6714 29.941 52.8317 29.941C52.1759 29.941 51.52 29.9096 50.8647 29.8457V30.5124C51.6045 30.5124 52.1282 30.7339 52.4353 31.1785C52.7412 31.6226 52.895 32.3315 52.895 33.3041V41.33C52.895 42.3876 52.9741 43.239 53.1328 43.884C53.2915 44.529 53.54 45.0527 53.8785 45.4539C54.5972 46.2787 55.7501 46.6914 57.3364 46.6914C59.768 46.6914 61.4706 45.7079 62.4438 43.741C62.4438 43.741 62.4741 43.676 62.5283 43.5894C62.5938 44.0383 62.7048 44.4894 62.8965 44.8913C63.5069 46.1661 64.6902 46.3697 65.5014 46.3697C65.5128 46.3697 65.5166 46.373 65.5247 46.3741L67.9162 46.3719Z" fill="white"/>
<path d="M19.817 6.33283C19.7396 4.57331 18.9993 3.15389 17.5799 2.08431C17.0919 1.7166 16.5244 1.41495 15.8929 1.16691C16.1621 1.31909 16.4209 1.48048 16.6581 1.65919C18.2931 2.89178 19.1228 4.56681 19.1228 6.63665C19.1228 7.88494 18.8011 9.09803 18.1669 10.2418C17.5707 11.3173 16.5877 12.2331 15.2517 12.9707C15.4932 12.8765 15.7272 12.7763 15.946 12.6642C17.3524 11.9455 18.3516 11.052 18.944 9.98347C19.4591 9.05416 19.7504 8.08802 19.817 7.0856V6.33283Z" fill="#7B6744"/>
<path d="M11.3499 23.8826C11.4192 23.8843 11.4842 23.8859 11.5551 23.8875C11.723 23.8913 11.886 23.8951 12.0598 23.8994V23.2013C11.8053 23.1959 11.5692 23.1873 11.3499 23.1748V23.8826Z" fill="#7B6744"/>
<path d="M28.1902 7.14874C28.0282 7.18827 27.8593 7.2251 27.6854 7.25976C27.6188 7.27276 27.5484 7.28413 27.4807 7.29659V20.9487C27.4807 21.8975 27.6789 22.2512 27.7964 22.3773C27.9475 22.5393 28.2237 22.6411 28.6023 22.6812C28.3288 22.3432 28.1902 21.7681 28.1902 20.9487V7.14874Z" fill="#7B6744"/>
<path d="M41.5636 19.7415C41.5913 19.8206 41.6189 19.8991 41.6487 19.9749C41.6638 20.0139 41.6795 20.0513 41.6958 20.0886L41.7424 20.1997C41.7689 20.2641 41.7954 20.3286 41.8236 20.3903C41.8453 20.438 41.8669 20.4829 41.8886 20.5279L41.9427 20.6389C41.9655 20.6854 41.9877 20.732 42.011 20.777C42.0402 20.8333 42.0716 20.888 42.103 20.9438L42.1296 20.9909C42.1561 21.0391 42.1826 21.0873 42.2108 21.1333C42.2476 21.1945 42.2872 21.2552 42.3267 21.3158C42.3684 21.3803 42.3933 21.4182 42.4188 21.455C42.4621 21.5173 42.5054 21.5752 42.5487 21.6326L42.6408 21.7518C42.6852 21.807 42.7329 21.8617 42.7811 21.9159C42.8109 21.95 42.8401 21.9825 42.8688 22.0139C42.9192 22.0664 42.9706 22.1179 43.0226 22.1677C43.0502 22.1942 43.0778 22.2202 43.1055 22.2451C43.1602 22.2944 43.2154 22.3415 43.2717 22.3865L43.3502 22.4482C43.4082 22.4915 43.4678 22.5343 43.529 22.5744L43.6021 22.6204C43.6649 22.66 43.7288 22.6973 43.7938 22.7315L43.836 22.7526C43.9281 22.7986 43.9979 22.8311 44.0683 22.8598L44.1258 22.8815C44.1989 22.9091 44.2747 22.9362 44.351 22.9584L44.396 22.9703C44.4025 22.9719 44.409 22.973 44.4155 22.9746C44.3673 22.941 44.3185 22.908 44.2709 22.8723C44.2406 22.849 44.2108 22.8262 44.181 22.8024C44.1165 22.7504 44.0532 22.6968 43.9909 22.6405C43.959 22.6112 43.9275 22.582 43.8961 22.5522C43.8376 22.4959 43.7797 22.4379 43.7228 22.3773C43.6898 22.3426 43.6573 22.3058 43.6248 22.2695C43.5717 22.2094 43.5187 22.1477 43.4672 22.0837C43.4331 22.042 43.4001 21.9982 43.367 21.9543C43.3188 21.891 43.2712 21.827 43.2246 21.7599C43.1899 21.7101 43.1569 21.6581 43.1233 21.6066C43.08 21.5411 43.0372 21.475 42.9955 21.4063C42.9609 21.3483 42.9273 21.2871 42.8937 21.227C42.8558 21.1593 42.8173 21.0927 42.7805 21.0223C42.7459 20.9551 42.7123 20.8847 42.6787 20.8149C42.6457 20.7466 42.6121 20.68 42.5801 20.6096C42.5444 20.5306 42.5108 20.4477 42.4773 20.3659C42.4496 20.3004 42.4209 20.236 42.3949 20.1683C42.3565 20.0702 42.3213 19.9684 42.285 19.8666C42.265 19.8103 42.2438 19.7561 42.2249 19.6987C42.1707 19.5373 42.1187 19.3716 42.07 19.201H41.5653H41.4006C41.4006 19.201 41.4261 19.3624 41.497 19.5558L41.5636 19.7415Z" fill="#7B6744"/>
<path d="M52.6426 8.48176H52.6328C52.6328 8.48176 52.3745 8.34366 51.9385 8.15358L51.9326 8.50072C51.9082 9.18308 51.893 10.5278 51.8909 12.3469L52.6003 12.355C52.6003 10.159 52.6144 9.26756 52.6426 8.48176Z" fill="#7B6744"/>
<path d="M77.924 29.8388V29.4976C77.7621 29.5371 77.5931 29.5739 77.4193 29.6081C77.3527 29.6216 77.2823 29.633 77.2146 29.6454V30.5596C77.4334 30.2866 77.6717 30.0483 77.924 29.8388Z" fill="#7B6744"/>
<path d="M26.6628 0.133757C27.434 0.668274 27.9268 1.47682 27.9268 2.3796C27.9268 3.28291 27.434 4.09146 26.6628 4.62598C27.8109 4.30213 28.6363 3.42047 28.6363 2.38014C28.6363 1.33981 27.8109 0.457609 26.6628 0.133757Z" fill="#7B6744"/>
<path d="M77.9116 7.14929C77.7497 7.18882 77.5807 7.22565 77.4069 7.26031C77.3402 7.2733 77.2698 7.28468 77.2021 7.29713V8.28223C77.4188 8.05206 77.6592 7.85115 77.9116 7.66593V7.14929Z" fill="#7B6744"/>
<path d="M61.6214 9.13251C61.6799 9.02149 61.7405 8.91859 61.8028 8.82057C61.8234 8.78808 61.845 8.75937 61.8662 8.72851C61.9084 8.66569 61.9512 8.60449 61.9956 8.54763C62.021 8.51405 62.0481 8.48372 62.0747 8.45285C62.1158 8.40411 62.157 8.357 62.1992 8.31313C62.2198 8.29255 62.2404 8.27306 62.261 8.25356C62.1976 8.25356 62.1359 8.25843 62.0752 8.26818C62.0828 8.26818 62.0655 8.27197 62.0465 8.27576C61.995 8.28551 61.949 8.2958 61.9041 8.31042L61.8423 8.33588C61.8071 8.34996 61.7725 8.36295 61.7389 8.38028L61.695 8.4052C61.6387 8.43877 61.6062 8.45827 61.5743 8.48101C61.551 8.49726 61.5277 8.51567 61.5039 8.53463C61.473 8.55954 61.44 8.5877 61.408 8.61749C61.3863 8.63752 61.3636 8.65919 61.3414 8.68193C61.304 8.72038 61.2715 8.75829 61.239 8.7962L61.1735 8.87419C61.1361 8.92238 61.1004 8.97491 61.0636 9.02799L61.0089 9.10814C60.9553 9.19262 60.9016 9.2836 60.8502 9.38108C60.4381 10.1615 60.1581 11.3643 60.0178 12.9624H60.7273C60.8735 11.2657 61.1703 9.986 61.6214 9.13251Z" fill="#7B6744"/>
<path d="M8.78764 22.4662C8.89541 22.4965 9.02376 22.523 9.16944 22.5469C9.07792 22.4451 8.9956 22.3335 8.93549 22.2019C8.75515 21.8104 8.66525 21.1919 8.66525 20.346V3.71746C8.66525 2.95603 8.71832 2.38469 8.82393 2.00397C8.87483 1.82147 8.94524 1.66658 9.03243 1.53769C8.98477 1.54148 8.94145 1.54527 8.90029 1.55015L8.84776 1.55665C8.78873 1.56423 8.73403 1.57343 8.68312 1.58372C8.65821 1.5886 8.63113 1.59618 8.60405 1.60322C8.55748 1.61514 8.53203 1.62163 8.50928 1.62922C8.47191 1.64221 8.4313 1.65684 8.39664 1.67579C8.34682 1.70341 8.1941 1.78897 8.09499 2.1464C8.00238 2.47838 7.95581 3.00694 7.95581 3.71746V20.346C7.95581 21.2991 8.07604 21.76 8.17677 21.9793C8.29049 22.2268 8.48383 22.3817 8.78764 22.4662Z" fill="#7B6744"/>
<path d="M58.7053 42.6312V29.4974C58.5423 29.5364 58.3734 29.5721 58.2006 29.6057C58.134 29.6187 58.0636 29.6301 57.9954 29.642V42.6312C57.9954 43.4186 58.1037 43.9997 58.317 44.3572C58.342 44.3989 58.3766 44.4416 58.4232 44.4882L58.4486 44.5142C58.4768 44.5402 58.5239 44.5732 58.5775 44.603C58.6718 44.6518 58.7389 44.6778 58.8109 44.6973C58.935 44.7287 59.0319 44.7449 59.1332 44.7536C59.1554 44.7558 59.1803 44.7552 59.203 44.7568C59.1689 44.7151 59.1299 44.6772 59.1018 44.6296C58.8369 44.1855 58.7053 43.5194 58.7053 42.6312Z" fill="#7B6744"/>
<path d="M73.4919 46.1372L73.4925 46.1694C73.4936 46.1694 73.4947 46.1694 73.4958 46.1694L73.4919 46.1372Z" fill="#7B6744"/>
<path d="M69.1583 45.6788C68.7283 45.6572 68.5766 45.0371 68.5766 45.0371L68.5761 45.0387C68.3568 44.2399 68.2875 43.4238 68.2701 43.0144C68.2598 42.8367 68.2555 42.6661 68.2555 42.4149V38.7491H68.2544V29.4971C68.0914 29.5355 67.9224 29.5718 67.7491 29.6054C67.6825 29.6184 67.6127 29.6292 67.5444 29.6417L67.5461 42.4149C67.5461 42.6531 67.5498 42.8145 67.5596 42.9835C67.5683 43.1887 67.6045 43.8077 67.7475 44.4847L67.852 44.9104C67.8742 44.9948 67.9311 45.108 67.9712 45.1486L68.4488 45.173V46.3726L69.1583 46.372V45.6788Z" fill="#7B6744"/>
<path d="M66.0796 7.41873C67.7097 8.40924 68.9531 10.3827 68.9531 14.0967H69.1578H69.6625C69.6625 10.4601 68.4646 8.23865 66.0796 7.41873Z" fill="#7B6744"/>
<path d="M78.9148 23.2344V23.8691C79.1412 23.8788 79.3773 23.8886 79.6242 23.8994V23.2344H78.9148Z" fill="#7B6744"/>
<path d="M77.4196 33.7649C77.2041 34.5951 77.2246 35.3214 77.2246 35.3289L77.2885 37.2829L77.2144 37.1659V42.9801C77.2144 43.7783 77.3871 44.3215 77.7283 44.5944C77.9308 44.7564 78.2152 44.8739 78.5731 44.9497C78.142 44.5603 77.9243 43.9056 77.9243 42.9801V41.2086V35.3289L77.9346 35.3463C77.9346 35.3463 77.9086 34.5453 78.1469 33.6306C78.3316 32.9201 78.6798 32.144 79.3205 31.6193C79.1851 31.6361 79.0529 31.6653 78.9273 31.7178C78.2016 32.0227 77.6942 32.711 77.4196 33.7649Z" fill="#7B6744"/>
<path d="M84.7196 29.3706C84.718 29.37 84.7164 29.3695 84.7147 29.369C84.6248 29.3424 84.3839 29.2774 84.0432 29.2222L84.0492 29.3825V33.4826C84.1196 33.6218 84.1846 33.761 84.236 33.9013L84.7586 33.9321V29.3825C84.7586 29.3825 84.7532 29.3809 84.7451 29.3782C84.7391 29.3765 84.7332 29.3744 84.7196 29.3706Z" fill="#7B6744"/>
<path d="M80.1965 46.2173C80.3178 46.2303 80.4597 46.2384 80.6222 46.2433C80.6309 46.2433 80.639 46.2438 80.6477 46.2438C80.7294 46.246 80.8145 46.2471 80.9065 46.2471V45.581C80.6525 45.581 80.4164 45.5696 80.1965 45.5468V46.2173Z" fill="#7B6744"/>
<path d="M77.9116 12.1307C77.9116 12.0126 77.9165 11.8973 77.9246 11.7835C77.93 11.7104 77.9387 11.6389 77.9473 11.5674C77.9517 11.5328 77.9549 11.4976 77.9598 11.4635C77.9733 11.3714 77.9896 11.2804 78.0085 11.1916C78.0107 11.1824 78.0123 11.1732 78.0139 11.1645C78.0356 11.067 78.06 10.9712 78.0881 10.877C78.2387 10.3706 78.484 9.91515 78.8312 9.51332C78.9925 9.32756 79.1626 9.16726 79.3413 9.03025C78.5777 9.12177 77.9116 9.96497 77.9116 9.96497C77.6625 10.2785 77.4735 10.6343 77.356 11.0291C77.3321 11.1098 77.3105 11.1938 77.292 11.2788C77.2704 11.3806 77.2563 11.4597 77.2444 11.5409L77.2373 11.6021C77.226 11.6958 77.2184 11.7575 77.2135 11.8209C77.2065 11.9222 77.2021 12.0251 77.2021 12.1307V20.9499C77.2021 21.9236 77.3706 22.2865 77.4713 22.4165C77.6034 22.5876 77.8731 22.678 78.2609 22.6948C78.0291 22.3591 77.9116 21.7796 77.9116 20.9499V12.1307Z" fill="#7B6744"/>
<path d="M37.9973 20.9501V0.318399C37.8343 0.357393 37.6654 0.393135 37.4926 0.426712C37.426 0.439711 37.3556 0.45108 37.2874 0.462996V20.9501C37.2874 21.9038 37.4796 22.2585 37.5944 22.3852C37.7368 22.5434 38.0114 22.6441 38.3959 22.6831C38.1311 22.3457 37.9973 21.77 37.9973 20.9501Z" fill="#7B6744"/>
<path d="M61.3038 19.0772C60.9123 18.1468 60.7173 16.9835 60.7173 15.5874C60.7173 15.2099 60.7206 14.8947 60.7271 14.6288H60.0171C60.0106 14.891 60.0073 15.211 60.0073 15.5874C60.0073 16.9066 60.1909 18.0114 60.5527 18.8709C60.9009 19.7005 61.3488 20.3049 61.8827 20.6672C61.9981 20.7446 62.1221 20.8172 62.2645 20.8887C62.3517 20.932 62.4438 20.9672 62.5359 21.0024L62.6371 21.0436C62.6891 21.0609 62.7444 21.0718 62.7985 21.0869C62.1876 20.6629 61.6889 19.9941 61.3038 19.0772Z" fill="#7B6744"/>
<path d="M52.2082 16.0147C51.534 15.178 50.4996 14.2314 49.1224 13.1932L48.1877 12.5157C47.2221 11.8263 46.5148 11.2452 46.087 10.7882C45.8151 10.499 45.6938 10.1892 45.6938 9.78304C45.6938 9.16675 45.8926 8.68314 46.2814 8.32571C46.2294 8.33383 46.1758 8.33925 46.126 8.35008C46.0187 8.37608 45.9424 8.39936 45.8698 8.42698L45.7929 8.46327C45.7328 8.49034 45.683 8.51147 45.638 8.53854C45.5519 8.58999 45.4804 8.6409 45.4203 8.69289C45.1268 8.94904 44.9844 9.30593 44.9844 9.78304C44.9844 10.3674 45.1761 10.8553 45.5698 11.2745C46.0296 11.7646 46.7715 12.3766 47.775 13.093L48.7065 13.7678C50.0252 14.7627 51.0173 15.6687 51.6553 16.4599C52.3441 17.3156 52.6934 18.3884 52.6934 19.6491C52.6934 20.6938 52.3853 21.6339 51.7777 22.443C51.3531 23.0095 50.8164 23.4796 50.1844 23.856C50.2624 23.8273 50.3463 23.8045 50.4211 23.7736C51.3303 23.3929 52.055 22.8427 52.5938 22.1235C53.1332 21.4049 53.4029 20.5801 53.4029 19.6491C53.4029 19.5035 53.398 19.3605 53.3877 19.2208C53.3141 17.9773 52.9204 16.8997 52.2082 16.0147Z" fill="#7B6744"/>
<path d="M48.6155 27.8755C48.6556 27.8977 48.6962 27.9204 48.7297 27.9399L48.7487 27.9318C48.7048 27.9129 48.6621 27.8945 48.6155 27.8755Z" fill="#7B6744"/>
<path d="M88.0028 22.8111C87.6876 22.5539 87.6194 20.9546 87.602 20.5452C87.5912 20.367 87.5874 20.197 87.5874 19.9452V12.4164C87.5874 11.3377 87.5127 10.4809 87.3654 9.84675C87.217 9.21204 86.963 8.69377 86.604 8.29193C86.2178 7.84948 85.7001 7.52996 85.0583 7.32471C85.3232 7.50126 85.5582 7.70759 85.7629 7.94209C86.1761 8.40458 86.4734 9.00625 86.6419 9.72544C86.7984 10.3986 86.8774 11.3041 86.8774 12.4164V19.9452C86.8774 20.184 86.8801 20.3454 86.891 20.5143C86.9895 22.041 87.1834 22.4412 87.1834 22.4412C87.3524 22.9384 88.0028 22.8111 88.0028 22.8111Z" fill="#7B6744"/>
<path d="M88.4905 23.2351H87.7805V23.9028L88.4905 23.9023V23.2351Z" fill="#7B6744"/>
<path d="M68.8619 19.5641C68.4108 21.022 67.5968 22.2789 66.4417 23.2998C66.1514 23.5559 65.8422 23.7807 65.5156 23.9751C66.1866 23.7346 66.7921 23.3772 67.3315 22.9006C68.3198 22.0271 69.0314 20.9819 69.4712 19.7677L68.8619 19.5641Z" fill="#7B6744"/>
<path d="M47.4396 39.1339C46.5617 38.4055 45.4196 37.6061 44.0451 36.7591C43.7895 36.5669 43.1093 36.1326 42.0083 35.4572C41.0032 34.8215 40.2401 34.2295 39.7381 33.6983C39.222 33.1524 38.9008 32.6985 38.7551 32.3113C38.6138 31.9344 38.5364 31.545 38.5255 31.1557C38.5071 30.4803 38.6625 29.8716 38.9875 29.3474C39.3113 28.8264 39.7646 28.4192 40.3354 28.1376C40.9008 27.8597 41.5366 27.7195 42.2254 27.7195C43.6156 27.7195 44.8276 28.1717 45.8295 29.0647C46.7897 29.9204 47.5213 31.0928 48.0066 32.5523H48.3824L48.3667 26.7165H48.0856C47.96 26.918 47.8257 27.0777 47.6843 27.1925C47.5013 27.3431 47.2072 27.4162 46.787 27.4162C46.5357 27.4162 46.162 27.3713 45.6768 27.283C45.4813 27.2375 44.3668 26.996 44.2119 26.9748C43.6021 26.8459 42.9739 26.7815 42.3294 26.7815C40.955 26.7815 39.7251 27.1351 38.6755 27.8316C37.6217 28.5318 36.8072 29.4454 36.2548 30.5486C35.7008 31.6539 35.4359 32.7885 35.4674 33.9219C35.4836 34.5079 35.5757 35.0668 35.7408 35.5829C35.9055 36.0963 36.1811 36.6189 36.5613 37.135C36.9442 37.6565 37.4825 38.2116 38.1611 38.784C38.8461 39.363 39.685 39.9706 40.6544 40.5901C42.5163 41.7593 43.8014 42.5912 44.4718 43.0602C45.1623 43.5427 45.693 44.0415 46.0499 44.5413C46.4171 45.0564 46.6126 45.6661 46.6316 46.3539C46.6597 47.3764 46.2633 48.2537 45.4542 48.9621C44.6538 49.6634 43.6156 50.0186 42.3684 50.0186C41.5182 50.0186 40.6111 49.8713 39.7484 49.4235C38.9571 49.013 37.7831 47.893 37.6081 46.4644C37.3287 44.1834 38.3392 43.1349 38.3392 43.1349L38.3316 42.8522C38.3316 42.8522 36.9122 42.8138 35.8714 43.9061C35.3255 44.4796 34.9123 45.1094 34.8608 46.2272C34.8018 47.5172 35.4619 48.7942 36.9122 49.6563C38.3614 50.518 40.4221 51.0037 42.5385 50.9999C42.4497 51.0005 42.382 51.0005 42.5536 51.0005C42.7751 50.9999 42.6701 50.9999 42.5655 50.9999C43.6833 50.9989 44.7296 50.8359 45.6746 50.5147C46.618 50.1941 47.4867 49.5773 48.1593 48.9935C48.8292 48.4118 49.3458 47.717 49.6946 46.9285C50.0439 46.14 50.2069 45.2513 50.1804 44.2873C50.1517 43.2411 49.9037 42.2922 49.4428 41.468C48.9781 40.6372 48.3039 39.852 47.4396 39.1339Z" fill="white"/>
<path d="M38.6858 43.6483C38.6506 43.6954 37.8301 44.8148 38.1534 46.3686C38.3922 47.5178 39.3167 48.4579 39.8967 48.7585C40.0467 48.8365 40.2086 48.9058 40.3933 48.9702C39.9238 48.5646 39.0941 47.6883 38.9452 46.4704C38.6814 44.3177 39.5425 43.2622 39.6757 43.1138L39.6698 42.914C39.5236 42.9459 39.1087 43.0824 38.6858 43.6483Z" fill="#7B6744"/>
<path d="M49.1202 27.2479C49.0721 27.2875 49.0136 27.3221 48.9377 27.3557L48.9486 31.2739C49.1419 31.6654 49.3103 32.0711 49.449 32.4805H49.7013L49.6856 26.7876H49.5156C49.3921 26.9799 49.2594 27.1348 49.1202 27.2479Z" fill="#7B6744"/>
<path d="M51.1163 47.1329C51.7185 45.8018 51.724 44.7419 51.6498 43.8803C51.5555 42.7912 51.295 41.9285 50.7492 40.9018C50.0516 39.589 49.034 38.6527 48.1307 37.9102C47.2095 37.1547 46.0457 36.3462 44.6723 35.5073C44.609 35.4618 44.4633 35.3714 44.2624 35.2468C43.8194 34.9728 43.078 34.5135 42.2646 33.9427C40.2798 32.5488 40.061 31.5826 39.9787 31.2192C39.8319 30.5715 39.8655 30.1372 40.1065 29.5594C40.2164 29.2956 40.3691 29.0823 40.4796 28.9485C40.3079 29.0151 40.153 29.098 40.0101 29.2009C39.6895 29.4316 39.4609 29.7338 39.3125 30.1242C39.1674 30.5066 39.1317 30.9322 39.2031 31.4261C39.2459 31.7213 39.5167 32.63 40.2451 33.2815C40.745 33.7288 41.3742 34.2601 42.2527 34.8109C43.3168 35.4569 43.9775 35.875 44.271 36.0878C45.6406 36.9251 46.7904 37.7234 47.685 38.4577C48.6392 39.2413 49.3909 40.1073 49.9189 41.0323C50.4643 41.9876 50.7632 43.0761 50.8082 44.2665C50.8493 45.3599 50.6706 46.3742 50.2764 47.2824C49.8837 48.1868 49.2989 48.9818 48.5391 49.6457C48.3966 49.7703 48.2423 49.8916 48.0684 50.0156C48.7308 49.7254 49.3129 49.3625 49.8047 48.9341C50.4887 48.3368 50.8136 47.8017 51.1163 47.1329Z" fill="#7B6744"/>
<path d="M10.6382 41.2788C10.9815 40.9528 11.1862 40.5114 11.2539 39.9541V32.8224C10.9171 32.3604 10.4264 32.1292 9.78035 32.1292C9.06712 32.1292 8.51527 32.544 8.12535 33.3726C7.73489 34.2012 7.54643 35.4375 7.55997 37.0812C7.54643 38.7383 7.70456 39.9341 8.03437 40.6674C8.36418 41.4012 8.83804 41.7678 9.45758 41.7678C9.90112 41.7678 10.2948 41.6048 10.6382 41.2788ZM14.4432 41.4824C14.6311 41.7678 14.9679 41.9102 15.4521 41.9102V42.3386C15.0351 42.2974 14.6175 42.2774 14.2005 42.2774C13.0032 42.2774 12.0208 42.3722 11.2539 42.5628V40.8103C10.7963 42.0326 9.9217 42.644 8.62954 42.644C7.36501 42.644 6.35879 42.1788 5.61198 41.2484C4.86518 40.3181 4.49854 38.9149 4.51208 37.04C4.51208 35.8448 4.70379 34.8364 5.08721 34.0143C5.47064 33.1922 6.00245 32.5743 6.6821 32.16C7.36121 31.7457 8.13835 31.5383 9.01351 31.5383C9.99535 31.5383 10.7422 31.7966 11.2539 32.3127V29.3856C11.2539 28.7612 11.1559 28.3058 10.9609 28.0204C10.766 27.735 10.4329 27.5925 9.96177 27.5925V27.1647C10.3923 27.2053 10.8099 27.2259 11.2133 27.2259C12.3842 27.2259 13.366 27.1306 14.1605 26.9405V40.1171C14.1605 40.7421 14.2542 41.197 14.4432 41.4824Z" fill="white"/>
<path d="M19.5571 32.8733C19.2408 33.4776 19.0426 34.4118 18.9614 35.6753H22.1306C22.1577 34.6025 22.0531 33.7159 21.8176 33.0157C21.582 32.3165 21.2289 31.9667 20.7583 31.9667C20.2736 31.9667 19.8728 32.2689 19.5571 32.8733ZM24.2703 39.3432L24.6337 39.4651C24.364 40.3484 23.8831 41.099 23.1904 41.7169C22.4972 42.3354 21.6329 42.644 20.5964 42.644C19.1699 42.644 18.0364 42.1859 17.1954 41.2685C16.3543 40.3516 15.9341 38.9967 15.9341 37.2036C15.9341 35.3693 16.3847 33.9672 17.2864 32.9957C18.1875 32.0246 19.3854 31.5383 20.879 31.5383C23.4087 31.5383 24.6737 33.0466 24.6737 36.0625H19.002C18.9885 36.2661 18.982 36.5856 18.982 37.02C18.982 37.9168 19.106 38.6641 19.3551 39.2615C19.6042 39.8594 19.927 40.2942 20.3239 40.5655C20.7209 40.8374 21.1482 40.9733 21.6058 40.9733C22.709 40.9733 23.5971 40.4302 24.2703 39.3432Z" fill="white"/>
<path d="M29.5744 40.464C29.5744 41.0212 29.6686 41.4047 29.8571 41.6153C30.0455 41.826 30.3818 41.9311 30.866 41.9311V42.3589C29.4666 42.3053 28.5649 42.2777 28.1615 42.2777C27.7038 42.2777 26.7751 42.3053 25.3762 42.3589V41.9311C25.8468 41.9311 26.1799 41.826 26.3749 41.6153C26.5698 41.4047 26.6678 41.0212 26.6678 40.464V29.3859C26.6678 28.7615 26.5698 28.306 26.3749 28.0206C26.1799 27.7352 25.8468 27.5928 25.3762 27.5928V27.1649C25.8068 27.2056 26.2238 27.2261 26.6272 27.2261C27.7981 27.2261 28.7805 27.1314 29.5744 26.9407V40.464Z" fill="white"/>
<path d="M9.30698 41.0972C9.39147 41.0972 9.47107 41.0869 9.54852 41.0674C9.46891 40.9482 9.39417 40.8177 9.32648 40.6677C8.99667 39.9339 8.83908 38.7387 8.85262 37.0815C8.83908 35.4379 9.027 34.2015 9.41746 33.3724C9.51981 33.1558 9.63354 32.9689 9.75756 32.8092C9.71532 32.8059 9.67524 32.8005 9.62975 32.8005C9.35356 32.8005 8.9436 32.8893 8.58184 33.6583C8.23632 34.3916 8.0679 35.5413 8.08035 37.0756C8.0679 38.6374 8.20762 39.7514 8.49573 40.3926C8.81254 41.0972 9.15914 41.0972 9.30698 41.0972Z" fill="#7B6744"/>
<path d="M14.6807 27.0856V40.1176C14.6807 40.7816 14.8003 41.0345 14.8518 41.1125L14.8523 41.113C14.9249 41.223 15.1648 41.2397 15.3018 41.2397H15.6127C15.506 40.9619 15.4524 40.5877 15.4524 40.1176V26.9405C15.213 26.9979 14.9542 27.0455 14.6807 27.0856Z" fill="#7B6744"/>
<path d="M15.9727 42.2896C16.2299 42.2993 16.4871 42.314 16.7444 42.3389V41.911C16.4205 41.911 16.1644 41.8455 15.9727 41.7182V42.2896Z" fill="#7B6744"/>
<path d="M25.1941 36.063H25.9659C25.9659 33.6509 25.1546 32.206 23.5359 31.7235C24.925 32.8223 25.1941 34.7454 25.1941 36.063Z" fill="#7B6744"/>
<path d="M19.503 36.7331C19.5025 36.8219 19.502 36.9178 19.502 37.0201C19.502 37.8238 19.6103 38.491 19.8236 39.0033C20.0208 39.4766 20.2655 39.8162 20.552 40.0117C20.7887 40.1741 21.0329 40.263 21.2934 40.29C21.0405 40.0295 20.8244 39.6878 20.6473 39.2616C20.3982 38.6637 20.2737 37.9164 20.2737 37.0201C20.2737 36.9178 20.2742 36.8224 20.2748 36.7331H19.503Z" fill="#7B6744"/>
<path d="M20.6071 32.6378C20.5281 32.6378 20.2865 32.6378 20.0006 33.1848C19.7894 33.5888 19.6356 34.2002 19.543 35.0044H20.3125C20.4138 34.0778 20.592 33.3651 20.8492 32.8739C20.853 32.8658 20.8579 32.8593 20.8622 32.8512C20.7907 32.7331 20.7035 32.6378 20.6071 32.6378Z" fill="#7B6744"/>
<path d="M24.966 40.1073C24.843 40.4176 24.6963 40.7138 24.5219 40.9933L24.0145 41.6827C23.852 41.8706 23.6754 42.0493 23.4859 42.2183C23.3949 42.2995 23.3007 42.3743 23.2048 42.4463C23.6803 42.293 24.1071 42.0526 24.4824 41.7179C25.175 41.1 25.6559 40.3494 25.9256 39.4661L25.5622 39.3437C25.3792 39.6389 25.1804 39.8923 24.966 40.1073Z" fill="#7B6744"/>
<path d="M30.0947 27.0856V40.4637C30.0947 41.0274 30.2052 41.1666 30.2063 41.1677C30.2301 41.191 30.3758 41.2598 30.7159 41.2598H30.9639C30.8995 41.0529 30.8664 40.7886 30.8664 40.4637V26.9404C30.6271 26.9978 30.3682 27.0455 30.0947 27.0856Z" fill="#7B6744"/>
<path d="M31.3862 41.7886V42.3302C31.624 42.3383 31.8812 42.3481 32.1579 42.3589V41.9311C31.8341 41.9311 31.5779 41.8829 31.3862 41.7886Z" fill="#7B6744"/>
</svg>
